SILCHBImaster.ufo
<glyph name="PercentSgn" format="1">
  <advance width="1843"/>
  <unicode hex="0025"/>
  <outline>
    <contour>
      <point x="1763" y="535" type="curve" smooth="yes" name="hr01"/>
      <point x="1763" y="719"/>
      <point x="1669" y="823"/>
      <point x="1483" y="823" type="curve" smooth="yes"/>
      <point x="1176" y="823"/>
      <point x="1034" y="524"/>
      <point x="1034" y="254" type="curve" smooth="yes"/>
      <point x="1034" y="70"/>
      <point x="1126" y="-33"/>
      <point x="1313" y="-33" type="curve" smooth="yes"/>
      <point x="1618" y="-33"/>
      <point x="1763" y="262"/>
    </contour>
    <contour>
      <point x="1587" y="1374" type="line"/>
      <point x="1438" y="1374" type="line"/>
      <point x="315" y="0" type="line" name="hr02"/>
      <point x="463" y="0" type="line"/>
    </contour>
    <contour>
      <point x="868" y="1118" type="curve" smooth="yes"/>
      <point x="868" y="1303"/>
      <point x="774" y="1407"/>
      <point x="588" y="1407" type="curve" smooth="yes"/>
      <point x="283" y="1407"/>
      <point x="137" y="1110"/>
      <point x="137" y="840" type="curve" smooth="yes"/>
      <point x="137" y="655"/>
      <point x="231" y="549"/>
      <point x="420" y="549" type="curve" smooth="yes"/>
      <point x="725" y="549"/>
      <point x="868" y="848"/>
    </contour>
    <contour>
      <point x="1548" y="584" type="curve" smooth="yes"/>
      <point x="1548" y="467"/>
      <point x="1491" y="63"/>
      <point x="1331" y="63" type="curve" smooth="yes" name="hr03"/>
      <point x="1249" y="63"/>
      <point x="1237" y="160"/>
      <point x="1237" y="223" type="curve" smooth="yes"/>
      <point x="1237" y="346"/>
      <point x="1296" y="727"/>
      <point x="1462" y="727" type="curve" smooth="yes"/>
      <point x="1538" y="727"/>
      <point x="1548" y="641"/>
    </contour>
    <contour>
      <point x="655" y="1165" type="curve" smooth="yes"/>
      <point x="655" y="1051"/>
      <point x="596" y="645"/>
      <point x="438" y="645" type="curve" smooth="yes"/>
      <point x="354" y="645"/>
      <point x="342" y="745"/>
      <point x="342" y="811" type="curve" smooth="yes"/>
      <point x="342" y="932"/>
      <point x="401" y="1311"/>
      <point x="569" y="1311" type="curve" smooth="yes"/>
      <point x="645" y="1311"/>
      <point x="655" y="1225"/>
    </contour>
  </outline>
</glyph>
<glyph name="Apos" format="1">
  <advance width="358"/>
  <unicode hex="0027"/>
  <outline>
    <contour>
      <point x="461" y="1370" type="curve" smooth="yes" name="hr01"/>
      <point x="461" y="1434"/>
      <point x="422" y="1462"/>
      <point x="362" y="1462" type="curve" smooth="yes"/>
      <point x="293" y="1462"/>
      <point x="223" y="1407"/>
      <point x="219" y="1333" type="curve"/>
      <point x="205" y="854" type="line"/>
      <point x="281" y="854" type="line"/>
      <point x="311" y="940"/>
      <point x="461" y="1305"/>
    </contour>
  </outline>
</glyph>
<glyph name="Comma" format="1">
  <advance width="657"/>
  <unicode hex="002C"/>
  <outline>
    <contour>
      <point x="410" y="172" type="curve" smooth="yes" name="hr00"/>
      <point x="410" y="270"/>
      <point x="344" y="317"/>
      <point x="252" y="317" type="curve" smooth="yes"/>
      <point x="141" y="317"/>
      <point x="41" y="221"/>
      <point x="41" y="111" type="curve" smooth="yes"/>
      <point x="41" y="74"/>
      <point x="55" y="39"/>
      <point x="82" y="14" type="curve"/>
      <point x="207" y="14" type="line"/>
      <point x="182" y="-143"/>
      <point x="57" y="-238"/>
      <point x="-94" y="-260" type="curve"/>
      <point x="-113" y="-360" type="line"/>
      <point x="119" y="-344"/>
      <point x="410" y="-66"/>
    </contour>
  </outline>
</glyph>
<glyph name="HyphenMinus" format="1">
  <advance width="713"/>
  <unicode hex="002D"/>
  <outline>
    <contour>
      <point x="641" y="602" type="line" name="hr00"/>
      <point x="104" y="602" type="line"/>
      <point x="61" y="385" type="line"/>
      <point x="598" y="385" type="line"/>
    </contour>
    <contour>
      <point x="475" y="1100" type="move" name="U"/>
    </contour>
  </outline>
</glyph>
<glyph name="FullStop" format="1">
  <advance width="651"/>
  <unicode hex="002E"/>
  <outline>
    <contour>
      <point x="391" y="145" type="curve" smooth="yes" name="hr00"/>
      <point x="391" y="240"/>
      <point x="315" y="317"/>
      <point x="221" y="317" type="curve" smooth="yes"/>
      <point x="127" y="317"/>
      <point x="49" y="240"/>
      <point x="49" y="145" type="curve" smooth="yes"/>
      <point x="49" y="51"/>
      <point x="127" y="-25"/>
      <point x="221" y="-25" type="curve" smooth="yes"/>
      <point x="315" y="-25"/>
      <point x="391" y="51"/>
    </contour>
  </outline>
</glyph>
<glyph name="Solidus" format="1">
  <advance width="1026"/>
  <unicode hex="002F"/>
  <outline>
    <contour>
      <point x="1026" y="1374" type="line" name="hr00"/>
      <point x="864" y="1374" type="line"/>
      <point x="0" y="-190" type="line"/>
      <point x="160" y="-190" type="line"/>
    </contour>
  </outline>
</glyph>
<glyph name="DigitTwo" format="1">
  <advance width="1225"/>
  <unicode hex="0032"/>
  <outline>
    <contour>
      <point x="1182" y="1096" type="curve" smooth="yes" name="hr00"/>
      <point x="1182" y="1307"/>
      <point x="1024" y="1407"/>
      <point x="760" y="1407" type="curve" smooth="yes"/>
      <point x="436" y="1407"/>
      <point x="211" y="1286"/>
      <point x="211" y="1098" type="curve" smooth="yes"/>
      <point x="211" y="1028"/>
      <point x="272" y="969"/>
      <point x="367" y="969" type="curve" smooth="yes"/>
      <point x="459" y="969"/>
      <point x="479" y="1008"/>
      <point x="506" y="1024" type="curve"/>
      <point x="547" y="1237" type="line"/>
      <point x="573" y="1249"/>
      <point x="635" y="1276"/>
      <point x="694" y="1276" type="curve" smooth="yes"/>
      <point x="758" y="1276"/>
      <point x="860" y="1231"/>
      <point x="860" y="1071" type="curve" smooth="yes"/>
      <point x="860" y="778"/>
      <point x="578" y="561"/>
      <point x="-16" y="145" type="curve"/>
      <point x="-43" y="0" type="line"/>
      <point x="1024" y="0" type="line"/>
      <point x="1092" y="360" type="line"/>
      <point x="934" y="360" type="line"/>
      <point x="864" y="190" type="line"/>
      <point x="342" y="190" type="line"/>
      <point x="526" y="317"/>
      <point x="719" y="444"/>
      <point x="866" y="573" type="curve" smooth="yes"/>
      <point x="1042" y="729"/>
      <point x="1182" y="909"/>
    </contour>
    <contour>
      <point x="758" y="1500" type="move" name="U"/>
    </contour>
    <contour>
      <point x="470" y="-100" type="move" name="L"/>
    </contour>
  </outline>
</glyph>
<glyph name="DigitThree" format="1">
  <advance width="1225"/>
  <unicode hex="0033"/>
  <outline>
    <contour>
      <point x="1178" y="1110" type="curve" smooth="yes" name="hr01"/>
      <point x="1178" y="1290"/>
      <point x="1051" y="1407"/>
      <point x="764" y="1407" type="curve" smooth="yes"/>
      <point x="469" y="1407"/>
      <point x="231" y="1292"/>
      <point x="231" y="1133" type="curve" smooth="yes"/>
      <point x="231" y="1057"/>
      <point x="311" y="993"/>
      <point x="371" y="993" type="curve" smooth="yes"/>
      <point x="418" y="993"/>
      <point x="485" y="1024"/>
      <point x="514" y="1036" type="curve"/>
      <point x="547" y="1231" type="line"/>
      <point x="569" y="1247"/>
      <point x="623" y="1282"/>
      <point x="696" y="1282" type="curve" smooth="yes"/>
      <point x="723" y="1282"/>
      <point x="858" y="1247"/>
      <point x="858" y="1083" type="curve" smooth="yes"/>
      <point x="858" y="889"/>
      <point x="676" y="772"/>
      <point x="426" y="784" type="curve"/>
      <point x="403" y="625" type="line"/>
      <point x="520" y="643"/>
      <point x="555" y="649"/>
      <point x="594" y="649" type="curve" smooth="yes"/>
      <point x="616" y="649"/>
      <point x="778" y="635"/>
      <point x="778" y="442" type="curve" smooth="yes" name="hr02"/>
      <point x="778" y="233"/>
      <point x="600" y="92"/>
      <point x="457" y="92" type="curve" smooth="yes"/>
      <point x="414" y="92"/>
      <point x="352" y="119"/>
      <point x="336" y="129" type="curve"/>
      <point x="303" y="301" type="line"/>
      <point x="276" y="313"/>
      <point x="246" y="348"/>
      <point x="182" y="348" type="curve" smooth="yes"/>
      <point x="76" y="348"/>
      <point x="23" y="242"/>
      <point x="23" y="201" type="curve" smooth="yes"/>
      <point x="23" y="106"/>
      <point x="137" y="-33"/>
      <point x="432" y="-33" type="curve" smooth="yes"/>
      <point x="838" y="-33"/>
      <point x="1094" y="221"/>
      <point x="1094" y="471" type="curve" smooth="yes"/>
      <point x="1094" y="618"/>
      <point x="995" y="700"/>
      <point x="817" y="735" type="curve"/>
      <point x="1069" y="819"/>
      <point x="1178" y="973"/>
    </contour>
    <contour>
      <point x="762" y="1500" type="move" name="U"/>
    </contour>
    <contour>
      <point x="474" y="-100" type="move" name="L"/>
    </contour>
  </outline>
</glyph>
<glyph name="DigitSeven" format="1">
  <advance width="1225"/>
  <unicode hex="0037"/>
  <outline>
    <contour>
      <point x="1325" y="1374" type="line" name="hr00"/>
      <point x="264" y="1374" type="line"/>
      <point x="190" y="1008" type="line"/>
      <point x="356" y="1008" type="line"/>
      <point x="422" y="1190" type="line"/>
      <point x="979" y="1190" type="line"/>
      <point x="66" y="-76" type="line"/>
      <point x="360" y="-76" type="line"/>
      <point x="375" y="-18" type="line"/>
      <point x="1307" y="1276" type="line"/>
    </contour>
    <contour>
      <point x="784" y="1500" type="move" name="U"/>
    </contour>
    <contour>
      <point x="496" y="-100" type="move" name="L"/>
    </contour>
  </outline>
</glyph>
<glyph name="Colon" format="1">
  <advance width="651"/>
  <unicode hex="003A"/>
  <outline>
    <contour>
      <point x="530" y="848" type="curve" smooth="yes" name="hr01"/>
      <point x="530" y="942"/>
      <point x="455" y="1020"/>
      <point x="360" y="1020" type="curve" smooth="yes"/>
      <point x="266" y="1020"/>
      <point x="188" y="942"/>
      <point x="188" y="848" type="curve" smooth="yes"/>
      <point x="188" y="754"/>
      <point x="266" y="678"/>
      <point x="360" y="678" type="curve" smooth="yes"/>
      <point x="455" y="678"/>
      <point x="530" y="754"/>
    </contour>
    <contour>
      <point x="391" y="145" type="curve" smooth="yes" name="hr02"/>
      <point x="391" y="240"/>
      <point x="315" y="317"/>
      <point x="221" y="317" type="curve" smooth="yes"/>
      <point x="127" y="317"/>
      <point x="49" y="240"/>
      <point x="49" y="145" type="curve" smooth="yes"/>
      <point x="49" y="51"/>
      <point x="127" y="-25"/>
      <point x="221" y="-25" type="curve" smooth="yes"/>
      <point x="315" y="-25"/>
      <point x="391" y="51"/>
    </contour>
  </outline>
</glyph>
<glyph name="LTSgn" format="1">
  <advance width="2048"/>
  <unicode hex="003C"/>
  <outline>
    <contour>
      <point x="1638" y="80" type="line" name="hr00"/>
      <point x="1638" y="207" type="line"/>
      <point x="541" y="614" type="line"/>
      <point x="1638" y="1022" type="line"/>
      <point x="1638" y="1149" type="line"/>
      <point x="410" y="678" type="line"/>
      <point x="410" y="551" type="line"/>
    </contour>
  </outline>
</glyph>
<glyph name="LtnCapI" format="1">
  <advance width="729"/>
  <unicode hex="0049"/>
  <outline>
    <contour>
      <point x="815" y="1272" type="line" name="hr01"/>
      <point x="815" y="1374" type="line"/>
      <point x="197" y="1374" type="line"/>
      <point x="197" y="1272" type="line" name="hr02"/>
      <point x="252" y="1266"/>
      <point x="313" y="1262"/>
      <point x="313" y="1262" type="curve"/>
      <point x="340" y="1260"/>
      <point x="356" y="1255"/>
      <point x="350" y="1231" type="curve"/>
      <point x="137" y="145" type="line"/>
      <point x="133" y="117"/>
      <point x="121" y="113"/>
      <point x="90" y="111" type="curve"/>
      <point x="90" y="111"/>
      <point x="29" y="106"/>
      <point x="-31" y="102" type="curve"/>
      <point x="-31" y="0" type="line"/>
      <point x="590" y="0" type="line"/>
      <point x="590" y="102" type="line"/>
      <point x="524" y="109"/>
      <point x="461" y="113"/>
      <point x="461" y="113" type="curve"/>
      <point x="434" y="115"/>
      <point x="426" y="121"/>
      <point x="430" y="143" type="curve" smooth="yes"/>
      <point x="643" y="1229" type="line" smooth="yes" name="hr03"/>
      <point x="647" y="1247"/>
      <point x="653" y="1260"/>
      <point x="674" y="1262" type="curve" smooth="yes"/>
    </contour>
    <contour>
      <point x="531" y="1500" type="move" name="U"/>
    </contour>
    <contour>
      <point x="243" y="-100" type="move" name="L"/>
    </contour>
    <contour>
      <point x="452" y="0" type="move" name="O"/>
    </contour>
    <contour>
      <point x="263" y="0" type="move" name="H"/>
    </contour>
    <contour>
      <point x="780" y="1200" type="move" name="R"/>
    </contour>
  </outline>
</glyph>
<glyph name="LtnCapR" format="1">
  <advance width="1399"/>
  <unicode hex="0052"/>
  <outline>
    <contour>
      <point x="1346" y="6" type="curve" name="hr01"/>
      <point x="1346" y="102" type="line"/>
      <point x="1139" y="102"/>
      <point x="1120" y="178"/>
      <point x="1083" y="322" type="curve" smooth="yes"/>
      <point x="1044" y="475"/>
      <point x="1024" y="578"/>
      <point x="866" y="649" type="curve"/>
      <point x="1098" y="717"/>
      <point x="1276" y="852"/>
      <point x="1276" y="1067" type="curve" smooth="yes"/>
      <point x="1276" y="1294"/>
      <point x="1063" y="1374"/>
      <point x="788" y="1374" type="curve" smooth="yes"/>
      <point x="197" y="1374" type="line"/>
      <point x="197" y="1272" type="line"/>
      <point x="254" y="1266"/>
      <point x="315" y="1262"/>
      <point x="315" y="1262" type="curve"/>
      <point x="342" y="1260"/>
      <point x="356" y="1253"/>
      <point x="350" y="1231" type="curve"/>
      <point x="141" y="145" type="line" smooth="yes" name="hr02"/>
      <point x="135" y="119"/>
      <point x="119" y="113"/>
      <point x="94" y="111" type="curve"/>
      <point x="94" y="111"/>
      <point x="33" y="106"/>
      <point x="-27" y="102" type="curve"/>
      <point x="-27" y="0" type="line"/>
      <point x="592" y="0" type="line"/>
      <point x="592" y="102" type="line" name="hr03"/>
      <point x="530" y="106"/>
      <point x="467" y="113"/>
      <point x="467" y="113" type="curve" name="hr04"/>
      <point x="440" y="115"/>
      <point x="430" y="121"/>
      <point x="434" y="143" type="curve" smooth="yes"/>
      <point x="520" y="596" type="line"/>
      <point x="543" y="596"/>
      <point x="569" y="598"/>
      <point x="586" y="598" type="curve" smooth="yes"/>
      <point x="741" y="598"/>
      <point x="770" y="420"/>
      <point x="797" y="301" type="curve" smooth="yes"/>
      <point x="842" y="86"/>
      <point x="901" y="-33"/>
      <point x="1153" y="-33" type="curve" smooth="yes" name="hr05"/>
      <point x="1227" y="-33"/>
      <point x="1284" y="-20"/>
    </contour>
    <contour>
      <point x="958" y="1036" type="curve" smooth="yes" name="hr07"/>
      <point x="958" y="803"/>
      <point x="754" y="729"/>
      <point x="598" y="723" type="curve"/>
      <point x="598" y="723"/>
      <point x="563" y="721"/>
      <point x="547" y="721" type="curve"/>
      <point x="647" y="1251" type="line"/>
      <point x="698" y="1255" type="line" smooth="yes"/>
      <point x="762" y="1260"/>
      <point x="958" y="1235"/>
    </contour>
    <contour>
      <point x="801" y="1500" type="move" name="U"/>
    </contour>
    <contour>
      <point x="513" y="-100" type="move" name="L"/>
    </contour>
    <contour>
      <point x="243" y="0" type="move" name="H"/>
    </contour>
  </outline>
</glyph>
<glyph name="LtnCapY" format="1">
  <advance width="1395"/>
  <unicode hex="0059"/>
  <outline>
    <contour>
      <point x="1542" y="1272" type="line" name="hr01"/>
      <point x="1542" y="1374" type="line" name="hr02"/>
      <point x="963" y="1374" type="line"/>
      <point x="963" y="1272" type="line" name="hr03"/>
      <point x="1083" y="1264" type="line" smooth="yes" name="hr04"/>
      <point x="1114" y="1262"/>
      <point x="1116" y="1243"/>
      <point x="1108" y="1233" type="curve" smooth="yes"/>
      <point x="770" y="786" type="line"/>
      <point x="629" y="1231" type="line"/>
      <point x="618" y="1257"/>
      <point x="639" y="1264"/>
      <point x="662" y="1264" type="curve" smooth="yes"/>
      <point x="662" y="1264"/>
      <point x="727" y="1268"/>
      <point x="788" y="1272" type="curve"/>
      <point x="788" y="1374" type="line"/>
      <point x="172" y="1374" type="line"/>
      <point x="172" y="1272" type="line"/>
      <point x="219" y="1268"/>
      <point x="274" y="1264"/>
      <point x="274" y="1264" type="curve"/>
      <point x="299" y="1262"/>
      <point x="319" y="1262"/>
      <point x="326" y="1239" type="curve"/>
      <point x="555" y="559" type="line"/>
      <point x="471" y="145" type="line" smooth="yes"/>
      <point x="465" y="119"/>
      <point x="446" y="115"/>
      <point x="420" y="113" type="curve"/>
      <point x="420" y="113"/>
      <point x="358" y="109"/>
      <point x="303" y="102" type="curve"/>
      <point x="303" y="0" type="line"/>
      <point x="922" y="0" type="line"/>
      <point x="922" y="102" type="line"/>
      <point x="864" y="109"/>
      <point x="805" y="113"/>
      <point x="805" y="113" type="curve"/>
      <point x="776" y="115"/>
      <point x="762" y="119"/>
      <point x="768" y="143" type="curve" smooth="yes"/>
      <point x="854" y="575" type="line"/>
      <point x="1374" y="1237" type="line" smooth="yes" name="hr05"/>
      <point x="1380" y="1245"/>
      <point x="1397" y="1260"/>
      <point x="1411" y="1262" type="curve" smooth="yes"/>
    </contour>
    <contour>
      <point x="873" y="1500" type="move" name="U"/>
    </contour>
    <contour>
      <point x="585" y="-100" type="move" name="L"/>
    </contour>
  </outline>
</glyph>
<glyph name="LftSqrBrac" format="1">
  <advance width="918"/>
  <unicode hex="005B"/>
  <outline>
    <contour>
      <point x="1020" y="1450" type="line" name="hr00"/>
      <point x="451" y="1450" type="line"/>
      <point x="111" y="-270" type="line"/>
      <point x="678" y="-270" type="line"/>
      <point x="702" y="-152" type="line"/>
      <point x="387" y="-152" type="line"/>
      <point x="682" y="1327" type="line"/>
      <point x="995" y="1327" type="line"/>
    </contour>
  </outline>
</glyph>
<glyph name="RtSqrBrac" format="1">
  <advance width="918"/>
  <unicode hex="005D"/>
  <outline>
    <contour>
      <point x="825" y="1450" type="line" name="hr00"/>
      <point x="258" y="1450" type="line"/>
      <point x="233" y="1327" type="line"/>
      <point x="549" y="1327" type="line"/>
      <point x="256" y="-152" type="line"/>
      <point x="-59" y="-152" type="line"/>
      <point x="-84" y="-270" type="line"/>
      <point x="485" y="-270" type="line"/>
    </contour>
  </outline>
</glyph>
<glyph name="LowLine" format="1">
  <advance width="700"/>
  <unicode hex="005F"/>
  <outline>
    <contour>
      <point x="570" y="-175" type="line" name="hr00"/>
      <point x="-130" y="-175" type="line"/>
      <point x="-163" y="-340" type="line"/>
      <point x="537" y="-340" type="line"/>
    </contour>
  </outline>
</glyph>
<glyph name="LtnSmA" format="1">
  <advance width="1163"/>
  <unicode hex="0061"/>
  <outline>
    <contour>
      <point x="1157" y="61" type="curve" name="hr01"/>
      <point x="1157" y="160" type="line" name="hr02"/>
      <point x="1137" y="156"/>
      <point x="989" y="117"/>
      <point x="979" y="117" type="curve" smooth="yes"/>
      <point x="930" y="117"/>
      <point x="924" y="137"/>
      <point x="924" y="199" type="curve"/>
      <point x="1057" y="874" type="line" smooth="yes"/>
      <point x="1061" y="893"/>
      <point x="1094" y="958"/>
      <point x="1108" y="999" type="curve"/>
      <point x="889" y="999" type="line"/>
      <point x="874" y="981" type="line" name="hr03"/>
      <point x="827" y="1006"/>
      <point x="764" y="1024"/>
      <point x="705" y="1024" type="curve" smooth="yes"/>
      <point x="264" y="1024"/>
      <point x="66" y="655"/>
      <point x="66" y="350" type="curve" smooth="yes"/>
      <point x="66" y="197"/>
      <point x="156" y="-25"/>
      <point x="408" y="-25" type="curve" smooth="yes"/>
      <point x="506" y="-25"/>
      <point x="602" y="20"/>
      <point x="674" y="68" type="curve"/>
      <point x="700" y="8"/>
      <point x="760" y="-25"/>
      <point x="846" y="-25" type="curve" smooth="yes"/>
      <point x="950" y="-25"/>
      <point x="1063" y="25"/>
    </contour>
    <contour>
      <point x="768" y="807" type="curve"/>
      <point x="672" y="305"/>
      <point x="692" y="412"/>
      <point x="662" y="248" type="curve"/>
      <point x="633" y="221"/>
      <point x="561" y="129"/>
      <point x="473" y="129" type="curve" smooth="yes"/>
      <point x="350" y="129"/>
      <point x="354" y="254"/>
      <point x="354" y="362" type="curve" smooth="yes"/>
      <point x="354" y="596"/>
      <point x="473" y="905"/>
      <point x="735" y="905" type="curve" smooth="yes"/>
      <point x="758" y="905"/>
      <point x="772" y="819"/>
    </contour>
    <contour>
      <point x="749" y="1100" type="move" name="U"/>
    </contour>
    <contour>
      <point x="505" y="-100" type="move" name="L"/>
    </contour>
    <contour>
      <point x="1163" y="1000" type="move" name="R"/>
    </contour>
    <contour>
      <point x="1069" y="0" type="move" name="O"/>
    </contour>
    <contour>
      <point x="538" y="0" type="move" name="H"/>
    </contour>
  </outline>
</glyph>
<glyph name="LtnSmB" format="1">
  <advance width="1090"/>
  <unicode hex="0062"/>
  <outline>
    <contour>
      <point x="1026" y="637" type="curve" smooth="yes" name="hr00"/>
      <point x="1026" y="809"/>
      <point x="922" y="1024"/>
      <point x="702" y="1024" type="curve" smooth="yes"/>
      <point x="631" y="1024"/>
      <point x="549" y="997"/>
      <point x="475" y="958" type="curve"/>
      <point x="582" y="1509" type="line"/>
      <point x="442" y="1509" type="line"/>
      <point x="96" y="1444" type="line"/>
      <point x="96" y="1370" type="line"/>
      <point x="276" y="1354" type="line"/>
      <point x="37" y="78" type="line"/>
      <point x="135" y="14"/>
      <point x="260" y="-25"/>
      <point x="408" y="-25" type="curve" smooth="yes"/>
      <point x="877" y="-25"/>
      <point x="1026" y="393"/>
    </contour>
    <contour>
      <point x="741" y="629" type="curve" smooth="yes"/>
      <point x="741" y="375"/>
      <point x="586" y="90"/>
      <point x="451" y="90" type="curve" smooth="yes"/>
      <point x="387" y="90"/>
      <point x="348" y="127"/>
      <point x="326" y="162" type="curve"/>
      <point x="440" y="774" type="line"/>
      <point x="502" y="827"/>
      <point x="578" y="868"/>
      <point x="635" y="868" type="curve" smooth="yes"/>
      <point x="682" y="868"/>
      <point x="741" y="801"/>
    </contour>
    <contour>
      <point x="708" y="1540" type="move" name="U"/>
    </contour>
    <contour>
      <point x="392" y="-100" type="move" name="L"/>
    </contour>
    <contour>
      <point x="1090" y="1000" type="move" name="R"/>
    </contour>
    <contour>
      <point x="412" y="0" type="move" name="H"/>
    </contour>
  </outline>
</glyph>
<glyph name="LtnSmL" format="1">
  <advance width="627"/>
  <unicode hex="006C"/>
  <outline>
    <contour>
      <point x="623" y="59" type="curve" name="hr01"/>
      <point x="623" y="170" type="line"/>
      <point x="526" y="127"/>
      <point x="446" y="109"/>
      <point x="414" y="109" type="curve" smooth="yes" name="hr02"/>
      <point x="362" y="109"/>
      <point x="352" y="162"/>
      <point x="360" y="209" type="curve" smooth="yes"/>
      <point x="612" y="1509" type="line"/>
      <point x="477" y="1509" type="line"/>
      <point x="131" y="1444" type="line"/>
      <point x="131" y="1370" type="line"/>
      <point x="311" y="1354" type="line"/>
      <point x="88" y="205" type="line" smooth="yes"/>
      <point x="82" y="178"/>
      <point x="80" y="154"/>
      <point x="80" y="131" type="curve" smooth="yes"/>
      <point x="80" y="37"/>
      <point x="160" y="-25"/>
      <point x="295" y="-25" type="curve" smooth="yes"/>
      <point x="401" y="-25"/>
      <point x="524" y="8"/>
    </contour>
    <contour>
      <point x="528" y="1580" type="move" name="U"/>
    </contour>
    <contour>
      <point x="204" y="-100" type="move" name="L"/>
    </contour>
    <contour>
      <point x="527" y="1000" type="move" name="R"/>
    </contour>
    <contour>
      <point x="224" y="0" type="move" name="H"/>
    </contour>
  </outline>
</glyph>
<glyph name="LtnSmV" format="1">
  <advance width="1042"/>
  <unicode hex="0076"/>
  <outline>
    <contour>
      <point x="1053" y="893" type="curve" smooth="yes" name="hr01"/>
      <point x="1053" y="973"/>
      <point x="979" y="1024"/>
      <point x="883" y="1024" type="curve" smooth="yes"/>
      <point x="819" y="1024"/>
      <point x="756" y="1004"/>
      <point x="721" y="971" type="curve"/>
      <point x="778" y="711" type="line"/>
      <point x="725" y="582"/>
      <point x="635" y="477"/>
      <point x="535" y="342" type="curve"/>
      <point x="479" y="870" type="line" smooth="yes"/>
      <point x="469" y="973"/>
      <point x="391" y="1022"/>
      <point x="250" y="1024" type="curve"/>
      <point x="6" y="952" type="line" name="hr02"/>
      <point x="6" y="879" type="line"/>
      <point x="76" y="877"/>
      <point x="147" y="872"/>
      <point x="147" y="872" type="curve"/>
      <point x="184" y="872"/>
      <point x="186" y="868"/>
      <point x="199" y="838" type="curve" smooth="yes"/>
      <point x="242" y="729"/>
      <point x="285" y="158"/>
      <point x="285" y="141" type="curve" smooth="yes"/>
      <point x="287" y="96"/>
      <point x="272" y="45"/>
      <point x="238" y="-25" type="curve"/>
      <point x="438" y="-25" type="line"/>
      <point x="571" y="121"/>
      <point x="823" y="403"/>
      <point x="1008" y="739" type="curve" smooth="yes"/>
      <point x="1022" y="764"/>
      <point x="1053" y="823"/>
    </contour>
    <contour>
      <point x="569" y="1100" type="move" name="U"/>
    </contour>
    <contour>
      <point x="325" y="-100" type="move" name="L"/>
    </contour>
    <contour>
      <point x="530" y="0" type="move" name="O"/>
    </contour>
    <contour>
      <point x="358" y="0" type="move" name="H"/>
    </contour>
  </outline>
</glyph>
<glyph name="VertLine" format="1">
  <advance width="815"/>
  <unicode hex="007C"/>
  <outline>
    <contour>
      <point x="495" y="-528" type="line" name="hr00"/>
      <point x="495" y="1630" type="line"/>
      <point x="320" y="1630" type="line"/>
      <point x="320" y="-528" type="line"/>
    </contour>
  </outline>
</glyph>
<glyph name="NotSgn" format="1">
  <advance width="1270"/>
  <unicode hex="00AC"/>
  <outline>
    <contour>
      <point x="1188" y="387" type="line" name="hr00"/>
      <point x="1188" y="860" type="line"/>
      <point x="82" y="860" type="line"/>
      <point x="82" y="737" type="line"/>
      <point x="1065" y="737" type="line"/>
      <point x="1065" y="387" type="line"/>
    </contour>
  </outline>
</glyph>
<glyph name="PlusMinusSgn" format="1">
  <advance width="2048"/>
  <unicode hex="00B1"/>
  <outline>
    <contour>
      <point x="1638" y="733" type="line" name="hr00"/>
      <point x="1638" y="860" type="line"/>
      <point x="1087" y="860" type="line"/>
      <point x="1087" y="1229" type="line"/>
      <point x="961" y="1229" type="line"/>
      <point x="961" y="860" type="line"/>
      <point x="410" y="860" type="line"/>
      <point x="410" y="733" type="line"/>
      <point x="961" y="733" type="line"/>
      <point x="961" y="365" type="line"/>
      <point x="1087" y="365" type="line"/>
      <point x="1087" y="733" type="line"/>
    </contour>
    <contour>
      <point x="1638" y="0" type="line"/>
      <point x="1638" y="127" type="line"/>
      <point x="410" y="127" type="line"/>
      <point x="410" y="0" type="line"/>
    </contour>
  </outline>
</glyph>
<glyph name="PilcrowSgn" format="1">
  <advance width="1096"/>
  <unicode hex="00B6"/>
  <outline>
    <contour>
      <point x="1090" y="1257" type="line" name="hr01"/>
      <point x="1090" y="1374" type="line" name="hr02"/>
      <point x="610" y="1374" type="line" smooth="yes"/>
      <point x="297" y="1374"/>
      <point x="104" y="1272"/>
      <point x="104" y="961" type="curve" smooth="yes"/>
      <point x="104" y="631"/>
      <point x="334" y="553"/>
      <point x="657" y="553" type="curve"/>
      <point x="657" y="1243" type="line"/>
      <point x="813" y="1243" type="line"/>
      <point x="813" y="-162" type="line"/>
      <point x="963" y="-162" type="line"/>
      <point x="963" y="1237" type="line" name="hr03"/>
    </contour>
  </outline>
</glyph>
<glyph name="SupOne" format="1">
  <advance width="797"/>
  <unicode hex="00B9"/>
  <outline>
    <contour>
      <point x="760" y="1628" type="line" name="hr00"/>
      <point x="670" y="1628" type="line"/>
      <point x="338" y="1542" type="line"/>
      <point x="338" y="1475" type="line"/>
      <point x="543" y="1499" type="line"/>
      <point x="412" y="879" type="line" smooth="yes"/>
      <point x="410" y="868"/>
      <point x="399" y="860"/>
      <point x="387" y="860" type="curve" smooth="yes"/>
      <point x="252" y="852" type="line"/>
      <point x="252" y="784" type="line"/>
      <point x="725" y="784" type="line"/>
      <point x="725" y="852" type="line"/>
      <point x="625" y="860" type="line" smooth="yes"/>
      <point x="610" y="862"/>
      <point x="596" y="868"/>
      <point x="598" y="877" type="curve" smooth="yes"/>
    </contour>
    <contour>
      <point x="612" y="1650" type="move" name="U"/>
    </contour>
    <contour>
      <point x="443" y="725" type="move" name="L"/>
    </contour>
  </outline>
</glyph>
<glyph name="LtnSmEth" format="1">
  <advance width="1120"/>
  <unicode hex="00F0"/>
  <outline>
    <contour>
      <point x="1079" y="1335" type="line" name="hr01"/>
      <point x="1024" y="1452" type="line"/>
      <point x="776" y="1356" type="line"/>
      <point x="664" y="1516" type="line"/>
      <point x="324" y="1466" type="line"/>
      <point x="315" y="1397" type="line"/>
      <point x="477" y="1356" type="line"/>
      <point x="543" y="1264" type="line"/>
      <point x="274" y="1161" type="line"/>
      <point x="326" y="1038" type="line"/>
      <point x="614" y="1153" type="line"/>
      <point x="631" y="1116"/>
      <point x="655" y="1063"/>
      <point x="676" y="1014" type="curve" name="hr02"/>
      <point x="662" y="1016"/>
      <point x="647" y="1018"/>
      <point x="635" y="1018" type="curve" smooth="yes" name="hr03"/>
      <point x="272" y="1018"/>
      <point x="66" y="696"/>
      <point x="66" y="373" type="curve" smooth="yes"/>
      <point x="66" y="139"/>
      <point x="205" y="-25"/>
      <point x="473" y="-25" type="curve" smooth="yes"/>
      <point x="920" y="-25"/>
      <point x="1042" y="373"/>
      <point x="1042" y="604" type="curve" smooth="yes"/>
      <point x="1042" y="817"/>
      <point x="944" y="1075"/>
      <point x="850" y="1243" type="curve"/>
    </contour>
    <contour>
      <point x="758" y="598" type="curve" smooth="yes"/>
      <point x="758" y="348"/>
      <point x="641" y="88"/>
      <point x="498" y="88" type="curve" smooth="yes"/>
      <point x="461" y="88"/>
      <point x="356" y="160"/>
      <point x="356" y="381" type="curve" smooth="yes"/>
      <point x="356" y="621"/>
      <point x="467" y="911"/>
      <point x="657" y="911" type="curve" smooth="yes"/>
      <point x="688" y="911"/>
      <point x="702" y="899"/>
      <point x="717" y="887" type="curve"/>
      <point x="743" y="805"/>
      <point x="758" y="725"/>
    </contour>
    <contour>
      <point x="751" y="1540" type="move" name="U"/>
    </contour>
    <contour>
      <point x="435" y="-100" type="move" name="L"/>
    </contour>
  </outline>
</glyph>
<glyph name="LtnSmOStrk" format="1">
  <advance width="1133"/>
  <unicode hex="00F8"/>
  <outline>
    <contour>
      <point x="1069" y="621" type="curve" smooth="yes" name="hr01"/>
      <point x="1069" y="772"/>
      <point x="1020" y="881"/>
      <point x="930" y="946" type="curve"/>
      <point x="1020" y="1087" type="line"/>
      <point x="905" y="1153" type="line"/>
      <point x="811" y="1004" type="line" name="hr02"/>
      <point x="764" y="1016"/>
      <point x="713" y="1024"/>
      <point x="655" y="1024" type="curve" smooth="yes" name="hr03"/>
      <point x="276" y="1024"/>
      <point x="66" y="692"/>
      <point x="66" y="371" type="curve" smooth="yes"/>
      <point x="66" y="236"/>
      <point x="111" y="123"/>
      <point x="207" y="51" type="curve"/>
      <point x="96" y="-123" type="line"/>
      <point x="201" y="-193" type="line"/>
      <point x="322" y="-4" type="line"/>
      <point x="367" y="-16"/>
      <point x="418" y="-25"/>
      <point x="475" y="-25" type="curve" smooth="yes" name="hr04"/>
      <point x="848" y="-25"/>
      <point x="1069" y="299"/>
    </contour>
    <contour>
      <point x="717" y="856" type="curve"/>
      <point x="365" y="299" type="line"/>
      <point x="360" y="324"/>
      <point x="358" y="350"/>
      <point x="358" y="379" type="curve" smooth="yes"/>
      <point x="358" y="655"/>
      <point x="508" y="915"/>
      <point x="633" y="915" type="curve" smooth="yes"/>
      <point x="657" y="915"/>
      <point x="688" y="897"/>
    </contour>
    <contour>
      <point x="774" y="629" type="curve" smooth="yes"/>
      <point x="774" y="377"/>
      <point x="643" y="88"/>
      <point x="500" y="88" type="curve" smooth="yes"/>
      <point x="477" y="88"/>
      <point x="444" y="106"/>
      <point x="418" y="147" type="curve"/>
      <point x="770" y="698" type="line"/>
      <point x="774" y="678"/>
      <point x="774" y="653"/>
    </contour>
    <contour>
      <point x="690" y="1100" type="move" name="U"/>
    </contour>
    <contour>
      <point x="446" y="-100" type="move" name="L"/>
    </contour>
    <contour>
      <point x="1133" y="1000" type="move" name="R"/>
    </contour>
    <contour>
      <point x="724" y="0" type="move" name="O"/>
    </contour>
    <contour>
      <point x="466" y="0" type="move" name="H"/>
    </contour>
  </outline>
</glyph>
<glyph name="LtnCapDStrk" format="1">
  <advance width="1460"/>
  <unicode hex="0110"/>
  <outline>
    <contour>
      <point x="41" y="657" type="line" name="hr00"/>
      <point x="800" y="657" type="line"/>
      <point x="800" y="786" type="line"/>
      <point x="41" y="786" type="line"/>
    </contour>
    <contour>
      <point x="854" y="1500" type="move" name="U"/>
    </contour>
    <contour>
      <point x="566" y="-100" type="move" name="L"/>
    </contour>
    <component base="LtnCapD"/>
  </outline>
</glyph>
<glyph name="LtnSmTCaron" format="1">
  <advance width="705"/>
  <unicode hex="0165"/>
  <outline>
    <contour>
      <point x="805" y="856" type="line" name="hr00"/>
      <point x="805" y="969" type="line"/>
      <point x="520" y="969" type="line"/>
      <point x="563" y="1200" type="line"/>
      <point x="358" y="1200" type="line"/>
      <point x="254" y="989" type="line"/>
      <point x="80" y="920" type="line"/>
      <point x="80" y="836" type="line"/>
      <point x="227" y="852" type="line"/>
      <point x="102" y="242" type="line" smooth="yes"/>
      <point x="96" y="213"/>
      <point x="94" y="186"/>
      <point x="94" y="160" type="curve" smooth="yes"/>
      <point x="94" y="53"/>
      <point x="170" y="-25"/>
      <point x="328" y="-25" type="curve" smooth="yes"/>
      <point x="457" y="-25"/>
      <point x="662" y="55"/>
      <point x="707" y="76" type="curve"/>
      <point x="707" y="188" type="line"/>
      <point x="641" y="166"/>
      <point x="514" y="117"/>
      <point x="451" y="117" type="curve" smooth="yes"/>
      <point x="387" y="117"/>
      <point x="356" y="160"/>
      <point x="371" y="223" type="curve"/>
      <point x="500" y="856" type="line"/>
    </contour>
    <contour>
      <point x="1004" y="1434" type="curve" smooth="yes"/>
      <point x="1004" y="1520"/>
      <point x="941" y="1571"/>
      <point x="857" y="1571" type="curve" smooth="yes"/>
      <point x="777" y="1571"/>
      <point x="693" y="1520"/>
      <point x="693" y="1430" type="curve" smooth="yes"/>
      <point x="693" y="1405"/>
      <point x="701" y="1380"/>
      <point x="720" y="1362" type="curve"/>
      <point x="849" y="1362" type="line"/>
      <point x="832" y="1286"/>
      <point x="740" y="1229"/>
      <point x="673" y="1210" type="curve"/>
      <point x="656" y="1128" type="line"/>
      <point x="802" y="1155"/>
      <point x="1004" y="1262"/>
    </contour>
    <contour>
      <point x="292" y="0" type="move" name="H"/>
    </contour>
    <contour>
      <point x="520" y="1363" type="move" name="U"/>
    </contour>
    <contour>
      <point x="272" y="-100" type="move" name="L"/>
    </contour>
  </outline>
</glyph>
<glyph name="LtnCapTStrk" format="1">
  <advance width="1286"/>
  <unicode hex="0166"/>
  <outline>
    <contour>
      <point x="1417" y="1374" type="line" name="hr01"/>
      <point x="197" y="1374" type="line"/>
      <point x="127" y="1016" type="line"/>
      <point x="287" y="1016" type="line"/>
      <point x="365" y="1233" type="line" smooth="yes"/>
      <point x="371" y="1251"/>
      <point x="403" y="1262"/>
      <point x="422" y="1262" type="curve" smooth="yes"/>
      <point x="633" y="1262" type="line"/>
      <point x="543" y="778" type="line"/>
      <point x="246" y="778" type="line"/>
      <point x="246" y="655" type="line"/>
      <point x="518" y="655" type="line"/>
      <point x="422" y="145" type="line" smooth="yes" name="hr02"/>
      <point x="418" y="119"/>
      <point x="395" y="113"/>
      <point x="367" y="111" type="curve"/>
      <point x="367" y="111"/>
      <point x="307" y="106"/>
      <point x="254" y="102" type="curve"/>
      <point x="254" y="0" type="line" name="hr03"/>
      <point x="872" y="0" type="line"/>
      <point x="872" y="102" type="line"/>
      <point x="754" y="113" type="line" smooth="yes"/>
      <point x="729" y="115"/>
      <point x="711" y="119"/>
      <point x="715" y="143" type="curve" smooth="yes"/>
      <point x="811" y="655" type="line"/>
      <point x="1108" y="655" type="line"/>
      <point x="1108" y="778" type="line"/>
      <point x="836" y="778" type="line"/>
      <point x="926" y="1262" type="line"/>
      <point x="1149" y="1262" type="line" smooth="yes"/>
      <point x="1169" y="1262"/>
      <point x="1196" y="1253"/>
      <point x="1194" y="1235" type="curve"/>
      <point x="1184" y="1016" type="line"/>
      <point x="1343" y="1016" type="line"/>
    </contour>
    <contour>
      <point x="812" y="1500" type="move" name="U"/>
    </contour>
    <contour>
      <point x="524" y="-100" type="move" name="L"/>
    </contour>
  </outline>
</glyph>
<glyph name="LtnSmBTopbar" format="1">
  <advance width="1157"/>
  <unicode hex="0183"/>
  <outline>
    <contour>
      <point x="741" y="629" type="curve" name="hr00"/>
      <point x="741" y="375"/>
      <point x="586" y="90"/>
      <point x="451" y="90" type="curve" smooth="yes"/>
      <point x="387" y="90"/>
      <point x="348" y="127"/>
      <point x="326" y="162" type="curve"/>
      <point x="440" y="774" type="line"/>
      <point x="502" y="827"/>
      <point x="578" y="868"/>
      <point x="635" y="868" type="curve" smooth="yes"/>
      <point x="682" y="868"/>
      <point x="741" y="801"/>
    </contour>
    <contour>
      <point x="553" y="1362" type="line"/>
      <point x="555" y="1374"/>
      <point x="569" y="1392"/>
      <point x="589" y="1392" type="curve" smooth="yes"/>
      <point x="849" y="1392" type="line" smooth="yes"/>
      <point x="878" y="1392"/>
      <point x="886" y="1380"/>
      <point x="884" y="1347" type="curve"/>
      <point x="880" y="1173" type="line"/>
      <point x="1027" y="1173" type="line"/>
      <point x="1093" y="1509" type="line"/>
      <point x="349" y="1509"/>
      <point x="756" y="1509"/>
      <point x="305" y="1509" type="curve"/>
      <point x="37" y="78" type="line"/>
      <point x="135" y="14"/>
      <point x="260" y="-25"/>
      <point x="408" y="-25" type="curve" smooth="yes"/>
      <point x="877" y="-25"/>
      <point x="1026" y="393"/>
      <point x="1026" y="637" type="curve" smooth="yes"/>
      <point x="1026" y="809"/>
      <point x="922" y="1024"/>
      <point x="702" y="1024" type="curve" smooth="yes"/>
      <point x="631" y="1024"/>
      <point x="549" y="997"/>
      <point x="475" y="958" type="curve"/>
    </contour>
    <contour>
      <point x="751" y="1540" type="move" name="U"/>
    </contour>
    <contour>
      <point x="435" y="-100" type="move" name="L"/>
    </contour>
  </outline>
</glyph>
<glyph name="LtnCapOMiddleTilde" format="1">
  <advance width="1540"/>
  <unicode hex="019F"/>
  <outline>
    <contour>
      <point x="1501" y="854" type="curve" smooth="yes" name="hr00"/>
      <point x="1501" y="1145"/>
      <point x="1298" y="1407"/>
      <point x="903" y="1407" type="curve" smooth="yes"/>
      <point x="397" y="1407"/>
      <point x="98" y="965"/>
      <point x="98" y="539" type="curve" smooth="yes"/>
      <point x="98" y="207"/>
      <point x="317" y="-33"/>
      <point x="698" y="-33" type="curve" smooth="yes"/>
      <point x="1235" y="-33"/>
      <point x="1501" y="434"/>
    </contour>
    <contour>
      <point x="1182" y="854" type="curve" smooth="yes"/>
      <point x="1182" y="825"/>
      <point x="1180" y="799"/>
      <point x="1178" y="770" type="curve"/>
      <point x="446" y="770" type="line"/>
      <point x="518" y="1049"/>
      <point x="696" y="1284"/>
      <point x="885" y="1284" type="curve" smooth="yes"/>
      <point x="1026" y="1284"/>
      <point x="1182" y="1128"/>
    </contour>
    <contour>
      <point x="1159" y="655" type="line"/>
      <point x="1098" y="365"/>
      <point x="911" y="94"/>
      <point x="713" y="94" type="curve" smooth="yes"/>
      <point x="578" y="94"/>
      <point x="416" y="240"/>
      <point x="416" y="522" type="curve" smooth="yes"/>
      <point x="416" y="567"/>
      <point x="418" y="612"/>
      <point x="424" y="655" type="curve"/>
    </contour>
    <contour>
      <point x="936" y="1500" type="move" name="U"/>
    </contour>
    <contour>
      <point x="648" y="-100" type="move" name="L"/>
    </contour>
  </outline>
</glyph>
<glyph name="LtnCapOi" format="1">
  <advance width="2150"/>
  <unicode hex="01A2"/>
  <outline>
    <contour>
      <point x="1896" y="-344" type="line" name="hr01"/>
      <point x="1772" y="-333" type="line" smooth="yes"/>
      <point x="1746" y="-331"/>
      <point x="1730" y="-329"/>
      <point x="1736" y="-303" type="curve"/>
      <point x="2067" y="1407" type="line" name="hr02"/>
      <point x="1887" y="1407" type="line"/>
      <point x="1806" y="1347"/>
      <point x="1678" y="1322"/>
      <point x="1570" y="1322" type="curve" smooth="yes"/>
      <point x="1363" y="1322"/>
      <point x="1301" y="1407"/>
      <point x="923" y="1407" type="curve" smooth="yes"/>
      <point x="423" y="1407"/>
      <point x="98" y="985"/>
      <point x="98" y="539" type="curve" smooth="yes" name="hr03"/>
      <point x="98" y="207"/>
      <point x="318" y="-33"/>
      <point x="698" y="-33" type="curve" smooth="yes"/>
      <point x="1001" y="-33"/>
      <point x="1229" y="133"/>
      <point x="1266" y="329" type="curve" smooth="yes"/>
      <point x="1415" y="1118" type="line" name="hr04"/>
      <point x="1489" y="1109"/>
      <point x="1626" y="1099"/>
      <point x="1726" y="1123" type="curve"/>
      <point x="1443" y="-305" type="line" smooth="yes"/>
      <point x="1439" y="-325"/>
      <point x="1427" y="-333"/>
      <point x="1396" y="-335" type="curve" smooth="yes"/>
      <point x="1275" y="-344" type="line"/>
      <point x="1275" y="-446" type="line"/>
      <point x="1896" y="-446" type="line"/>
    </contour>
    <contour>
      <point x="973" y="364" type="line"/>
      <point x="932" y="143"/>
      <point x="871" y="94"/>
      <point x="713" y="94" type="curve" smooth="yes"/>
      <point x="558" y="94"/>
      <point x="416" y="262"/>
      <point x="416" y="522" type="curve" smooth="yes"/>
      <point x="416" y="861"/>
      <point x="604" y="1280"/>
      <point x="894" y="1280" type="curve" smooth="yes" name="hr05"/>
      <point x="964" y="1280"/>
      <point x="1054" y="1260"/>
      <point x="1131" y="1205" type="curve"/>
    </contour>
    <contour>
      <point x="1248" y="1500" type="move" name="U"/>
    </contour>
    <contour>
      <point x="960" y="-100" type="move" name="L"/>
    </contour>
  </outline>
</glyph>
<glyph name="LtnYr" format="1">
  <advance width="1369"/>
  <unicode hex="01A6"/>
  <outline>
    <contour>
      <point x="600" y="697" type="curve" smooth="yes" name="hr01"/>
      <point x="546" y="697"/>
      <point x="565" y="699"/>
      <point x="540" y="701" type="curve"/>
      <point x="614" y="1090" type="line"/>
      <point x="682" y="1090" type="line" smooth="yes"/>
      <point x="830" y="1090"/>
      <point x="918" y="1040"/>
      <point x="918" y="915" type="curve" smooth="yes"/>
      <point x="918" y="744"/>
      <point x="741" y="697"/>
    </contour>
    <contour>
      <point x="553" y="582" type="line"/>
      <point x="692" y="582"/>
      <point x="732" y="379"/>
      <point x="785" y="227" type="curve" smooth="yes"/>
      <point x="851" y="38"/>
      <point x="878" y="-139"/>
      <point x="1143" y="-139" type="curve" smooth="yes" name="hr02"/>
      <point x="1220" y="-139"/>
      <point x="1268" y="-124"/>
      <point x="1316" y="-108" type="curve"/>
      <point x="1316" y="-4" type="line"/>
      <point x="1305" y="-6"/>
      <point x="1283" y="-9"/>
      <point x="1260" y="-9" type="curve" smooth="yes"/>
      <point x="1134" y="-9"/>
      <point x="1114" y="72"/>
      <point x="1066" y="240" type="curve" smooth="yes"/>
      <point x="1012" y="429"/>
      <point x="945" y="557"/>
      <point x="818" y="601" type="curve"/>
      <point x="998" y="637"/>
      <point x="1231" y="727"/>
      <point x="1231" y="917" type="curve" smooth="yes"/>
      <point x="1231" y="1107"/>
      <point x="1049" y="1194"/>
      <point x="769" y="1194" type="curve" smooth="yes"/>
      <point x="635" y="1194" type="line"/>
      <point x="642" y="1237" type="line" smooth="yes"/>
      <point x="648" y="1270"/>
      <point x="658" y="1276"/>
      <point x="685" y="1278" type="curve" smooth="yes"/>
      <point x="823" y="1288" type="line"/>
      <point x="823" y="1374" type="line"/>
      <point x="193" y="1374" type="line"/>
      <point x="193" y="1272" type="line" name="hr03"/>
      <point x="311" y="1262" type="line" smooth="yes"/>
      <point x="338" y="1260"/>
      <point x="348" y="1255"/>
      <point x="343" y="1231" type="curve" smooth="yes"/>
      <point x="134" y="145" type="line" smooth="yes"/>
      <point x="129" y="120"/>
      <point x="115" y="113"/>
      <point x="90" y="111" type="curve" smooth="yes"/>
      <point x="-31" y="102" type="line"/>
      <point x="-31" y="0" type="line"/>
      <point x="588" y="0" type="line"/>
      <point x="588" y="102" type="line"/>
      <point x="463" y="113" type="line" smooth="yes"/>
      <point x="434" y="116"/>
      <point x="429" y="123"/>
      <point x="433" y="143" type="curve" smooth="yes"/>
      <point x="517" y="582" type="line"/>
    </contour>
    <contour>
      <point x="894" y="1500" type="move" name="U"/>
    </contour>
    <contour>
      <point x="606" y="-100" type="move" name="L"/>
    </contour>
  </outline>
</glyph>
<glyph name="LtnRevEshLoop" format="1">
  <advance width="987"/>
  <unicode hex="01AA"/>
  <outline>
    <contour>
      <point x="1077" y="-301" type="curve" smooth="yes" name="hr01"/>
      <point x="1077" y="-211"/>
      <point x="1022" y="-162"/>
      <point x="936" y="-162" type="curve"/>
      <point x="782" y="-291" type="line" name="hr02"/>
      <point x="754" y="-291"/>
      <point x="711" y="-240"/>
      <point x="711" y="-193" type="curve" smooth="yes"/>
      <point x="711" y="-150"/>
      <point x="715" y="-88"/>
      <point x="729" y="-12" type="curve" smooth="yes"/>
      <point x="930" y="1016" type="line" name="hr03"/>
      <point x="936" y="1040"/>
      <point x="938" y="1067"/>
      <point x="938" y="1092" type="curve" smooth="yes"/>
      <point x="938" y="1260"/>
      <point x="840" y="1409"/>
      <point x="582" y="1409" type="curve" smooth="yes"/>
      <point x="238" y="1409"/>
      <point x="80" y="1139"/>
      <point x="80" y="934" type="curve" smooth="yes"/>
      <point x="80" y="762"/>
      <point x="190" y="625"/>
      <point x="436" y="625" type="curve" smooth="yes"/>
      <point x="494" y="625"/>
      <point x="545" y="633"/>
      <point x="590" y="645" type="curve"/>
      <point x="465" y="-6" type="line" smooth="yes" name="hr04"/>
      <point x="459" y="-39"/>
      <point x="455" y="-72"/>
      <point x="455" y="-102" type="curve" smooth="yes"/>
      <point x="455" y="-285"/>
      <point x="561" y="-446"/>
      <point x="825" y="-446" type="curve" smooth="yes"/>
      <point x="961" y="-446"/>
      <point x="1077" y="-395"/>
    </contour>
    <contour>
      <point x="672" y="1102" type="curve" smooth="yes"/>
      <point x="672" y="948"/>
      <point x="616" y="750"/>
      <point x="453" y="750" type="curve" smooth="yes"/>
      <point x="375" y="750"/>
      <point x="344" y="805"/>
      <point x="344" y="930" type="curve" smooth="yes"/>
      <point x="344" y="1075"/>
      <point x="399" y="1284"/>
      <point x="565" y="1284" type="curve" smooth="yes"/>
      <point x="651" y="1284"/>
      <point x="672" y="1225"/>
    </contour>
    <contour>
      <point x="807" y="1540" type="move" name="U"/>
    </contour>
    <contour>
      <point x="415" y="-500" type="move" name="L"/>
    </contour>
  </outline>
</glyph>
<glyph name="LtnDentalClick" format="1">
  <advance width="463"/>
  <unicode hex="01C0"/>
  <outline>
    <contour>
      <point x="145" y="-440" type="line" name="hr00"/>
      <point x="516" y="1507" type="line"/>
      <point x="361" y="1507" type="line"/>
      <point x="-10" y="-440" type="line"/>
    </contour>
    <contour>
      <point x="440" y="1540" type="move" name="U"/>
    </contour>
    <contour>
      <point x="48" y="-500" type="move" name="L"/>
    </contour>
  </outline>
</glyph>
<glyph name="LtnLateralClick" format="1">
  <advance width="753"/>
  <unicode hex="01C1"/>
  <outline>
    <contour>
      <point x="435" y="-440" type="line" name="hr00"/>
      <point x="806" y="1507" type="line"/>
      <point x="651" y="1507" type="line"/>
      <point x="280" y="-440" type="line"/>
    </contour>
    <contour>
      <point x="145" y="-440" type="line"/>
      <point x="516" y="1507" type="line"/>
      <point x="361" y="1507" type="line"/>
      <point x="-10" y="-440" type="line"/>
    </contour>
    <contour>
      <point x="585" y="1540" type="move" name="U"/>
    </contour>
    <contour>
      <point x="193" y="-500" type="move" name="L"/>
    </contour>
  </outline>
</glyph>
<glyph name="LtnAlveolarClick" format="1">
  <advance width="863"/>
  <unicode hex="01C2"/>
  <outline>
    <contour>
      <point x="100" y="609" type="line" name="hr00"/>
      <point x="853" y="609" type="line"/>
      <point x="853" y="743" type="line"/>
      <point x="100" y="743" type="line"/>
    </contour>
    <contour>
      <point x="40" y="323" type="line"/>
      <point x="793" y="323" type="line"/>
      <point x="793" y="457" type="line"/>
      <point x="40" y="457" type="line"/>
    </contour>
    <contour>
      <point x="634" y="1540" type="move" name="U"/>
    </contour>
    <contour>
      <point x="242" y="-500" type="move" name="L"/>
    </contour>
    <component base="LtnDentalClick" xOffset="200"/>
  </outline>
</glyph>
<glyph name="LtnSmGStrk" format="1">
  <advance width="1110"/>
  <unicode hex="01E5"/>
  <outline>
    <contour>
      <point x="1172" y="854" type="line" name="hr01"/>
      <point x="1172" y="973" type="line"/>
      <point x="873" y="973" type="line"/>
      <point x="834" y="989"/>
      <point x="744" y="1024"/>
      <point x="641" y="1024" type="curve" smooth="yes" name="hr02"/>
      <point x="324" y="1024"/>
      <point x="180" y="799"/>
      <point x="180" y="608" type="curve" smooth="yes"/>
      <point x="180" y="479"/>
      <point x="260" y="403"/>
      <point x="369" y="352" type="curve"/>
      <point x="316" y="297"/>
      <point x="281" y="188"/>
      <point x="291" y="125" type="curve"/>
      <point x="137" y="72"/>
      <point x="17" y="-23"/>
      <point x="17" y="-162" type="curve" smooth="yes" name="hr03"/>
      <point x="17" y="-309"/>
      <point x="133" y="-469"/>
      <point x="457" y="-469" type="curve" smooth="yes"/>
      <point x="766" y="-469"/>
      <point x="1022" y="-301"/>
      <point x="1022" y="-129" type="curve" smooth="yes"/>
      <point x="1022" y="-10"/>
      <point x="936" y="41"/>
      <point x="805" y="98" type="curve"/>
      <point x="533" y="221" type="line"/>
      <point x="529" y="244"/>
      <point x="537" y="287"/>
      <point x="551" y="326" type="curve"/>
      <point x="848" y="328"/>
      <point x="1006" y="524"/>
      <point x="1006" y="727" type="curve" smooth="yes" name="hr04"/>
      <point x="1006" y="776"/>
      <point x="995" y="823"/>
      <point x="983" y="854" type="curve"/>
    </contour>
    <contour>
      <point x="723" y="737" type="curve" smooth="yes" name="hr05"/>
      <point x="723" y="612"/>
      <point x="674" y="422"/>
      <point x="539" y="422" type="curve" smooth="yes"/>
      <point x="471" y="422"/>
      <point x="463" y="489"/>
      <point x="463" y="584" type="curve" smooth="yes"/>
      <point x="463" y="784"/>
      <point x="600" y="918"/>
      <point x="645" y="918" type="curve" smooth="yes"/>
      <point x="723" y="918"/>
      <point x="723" y="834"/>
    </contour>
    <contour>
      <point x="746" y="-170" type="curve" smooth="yes" name="hr06"/>
      <point x="746" y="-233"/>
      <point x="696" y="-354"/>
      <point x="510" y="-354" type="curve" smooth="yes"/>
      <point x="342" y="-354"/>
      <point x="295" y="-215"/>
      <point x="295" y="-127" type="curve" smooth="yes"/>
      <point x="295" y="-51"/>
      <point x="326" y="18"/>
      <point x="416" y="53" type="curve"/>
      <point x="645" y="-47" type="line"/>
      <point x="721" y="-82"/>
      <point x="746" y="-123"/>
    </contour>
    <contour>
      <point x="1099" y="-208" type="line"/>
      <point x="1099" y="-97" type="line"/>
      <point x="-52" y="-97" type="line"/>
      <point x="-52" y="-208" type="line"/>
    </contour>
    <contour>
      <point x="779" y="1100" type="move" name="U"/>
    </contour>
    <contour>
      <point x="459" y="-500" type="move" name="L"/>
    </contour>
  </outline>
</glyph>
<glyph name="LtnCapOu" format="1">
  <advance width="1321"/>
  <unicode hex="0222"/>
  <outline>
    <contour>
      <point x="893" y="732" type="curve" name="hr01"/>
      <point x="1067" y="757"/>
      <point x="1282" y="861"/>
      <point x="1282" y="1086" type="curve" smooth="yes" name="hr02"/>
      <point x="1282" y="1281"/>
      <point x="1080" y="1407"/>
      <point x="851" y="1407" type="curve" smooth="yes"/>
      <point x="587" y="1407"/>
      <point x="285" y="1290"/>
      <point x="285" y="1016" type="curve" smooth="yes"/>
      <point x="285" y="833"/>
      <point x="424" y="750"/>
      <point x="552" y="732" type="curve"/>
      <point x="321" y="704"/>
      <point x="98" y="571"/>
      <point x="98" y="325" type="curve" smooth="yes" name="hr03"/>
      <point x="98" y="105"/>
      <point x="306" y="-33"/>
      <point x="579" y="-33" type="curve" smooth="yes"/>
      <point x="883" y="-33"/>
      <point x="1210" y="130"/>
      <point x="1210" y="406" type="curve" smooth="yes"/>
      <point x="1210" y="595"/>
      <point x="1064" y="707"/>
    </contour>
    <contour>
      <point x="980" y="1086" type="curve" smooth="yes" name="hr05"/>
      <point x="980" y="933"/>
      <point x="867" y="786"/>
      <point x="726" y="786" type="curve" smooth="yes"/>
      <point x="630" y="786"/>
      <point x="579" y="897"/>
      <point x="579" y="1016" type="curve" smooth="yes"/>
      <point x="579" y="1197"/>
      <point x="703" y="1302"/>
      <point x="819" y="1302" type="curve" smooth="yes"/>
      <point x="914" y="1302"/>
      <point x="980" y="1205"/>
    </contour>
    <contour>
      <point x="609" y="81" type="curve" smooth="yes" name="hr06"/>
      <point x="495" y="81"/>
      <point x="413" y="183"/>
      <point x="413" y="327" type="curve" smooth="yes"/>
      <point x="413" y="514"/>
      <point x="528" y="678"/>
      <point x="692" y="678" type="curve" smooth="yes"/>
      <point x="811" y="678"/>
      <point x="894" y="561"/>
      <point x="894" y="418" type="curve" smooth="yes"/>
      <point x="894" y="228"/>
      <point x="764" y="81"/>
    </contour>
    <contour>
      <point x="834" y="1585" type="move" name="U"/>
    </contour>
    <contour>
      <point x="531" y="-100" type="move" name="L"/>
    </contour>
  </outline>
</glyph>
<glyph name="LtnSmOu" format="1">
  <advance width="1209"/>
  <unicode hex="0223"/>
  <outline>
    <contour>
      <point x="775" y="1509" type="curve" smooth="yes" name="hr01"/>
      <point x="519" y="1509"/>
      <point x="254" y="1351"/>
      <point x="254" y="1067" type="curve" smooth="yes"/>
      <point x="254" y="899"/>
      <point x="389" y="803"/>
      <point x="505" y="785" type="curve"/>
      <point x="279" y="748"/>
      <point x="66" y="579"/>
      <point x="66" y="324" type="curve" smooth="yes" name="hr02"/>
      <point x="66" y="117"/>
      <point x="234" y="-25"/>
      <point x="482" y="-25" type="curve" smooth="yes"/>
      <point x="773" y="-25"/>
      <point x="1056" y="165"/>
      <point x="1056" y="454" type="curve" smooth="yes"/>
      <point x="1056" y="632"/>
      <point x="921" y="749"/>
      <point x="767" y="785" type="curve"/>
      <point x="938" y="809"/>
      <point x="1145" y="955"/>
      <point x="1145" y="1188" type="curve" smooth="yes" name="hr03"/>
      <point x="1145" y="1379"/>
      <point x="983" y="1509"/>
    </contour>
    <contour>
      <point x="858" y="1181" type="curve" smooth="yes"/>
      <point x="858" y="990"/>
      <point x="760" y="841"/>
      <point x="655" y="841" type="curve" smooth="yes"/>
      <point x="577" y="841"/>
      <point x="541" y="956"/>
      <point x="541" y="1074" type="curve" smooth="yes"/>
      <point x="541" y="1261"/>
      <point x="626" y="1402"/>
      <point x="728" y="1402" type="curve" smooth="yes"/>
      <point x="818" y="1402"/>
      <point x="858" y="1310"/>
    </contour>
    <contour>
      <point x="512" y="84" type="curve" smooth="yes" name="hr05"/>
      <point x="426" y="84"/>
      <point x="364" y="201"/>
      <point x="364" y="340" type="curve" smooth="yes"/>
      <point x="364" y="566"/>
      <point x="483" y="729"/>
      <point x="613" y="729" type="curve" smooth="yes"/>
      <point x="698" y="729"/>
      <point x="758" y="622"/>
      <point x="758" y="465" type="curve" smooth="yes"/>
      <point x="758" y="229"/>
      <point x="644" y="84"/>
    </contour>
    <contour>
      <point x="786" y="1580" type="move" name="U"/>
    </contour>
    <contour>
      <point x="462" y="-100" type="move" name="L"/>
    </contour>
  </outline>
</glyph>
<glyph name="LtnCapAStrk" format="1">
  <advance width="1464"/>
  <unicode hex="023A"/>
  <outline>
    <contour>
      <point x="183" y="-90" type="line" name="hr00"/>
      <point x="331" y="-197" type="line"/>
      <point x="1433" y="1460" type="line"/>
      <point x="1269" y="1563" type="line"/>
    </contour>
    <contour>
      <point x="888" y="1500" type="move" name="U"/>
    </contour>
    <contour>
      <point x="600" y="-100" type="move" name="L"/>
    </contour>
    <contour>
      <point x="1254" y="0" type="move" name="O"/>
    </contour>
    <contour>
      <point x="1080" y="0" type="move" name="H"/>
    </contour>
    <component base="LtnCapA"/>
  </outline>
</glyph>
<glyph name="LtnCapCStrk" format="1">
  <advance width="1376"/>
  <unicode hex="023B"/>
  <outline>
    <contour>
      <point x="53" y="-90" type="line" name="hr00"/>
      <point x="201" y="-197" type="line"/>
      <point x="1303" y="1460" type="line"/>
      <point x="1139" y="1563" type="line"/>
    </contour>
    <contour>
      <point x="887" y="1500" type="move" name="U"/>
    </contour>
    <contour>
      <point x="599" y="-100" type="move" name="L"/>
    </contour>
    <contour>
      <point x="571" y="0" type="move" name="H"/>
    </contour>
    <component base="LtnCapC"/>
  </outline>
</glyph>
<glyph name="LtnCapTDiagStrk" format="1">
  <advance width="1286"/>
  <unicode hex="023E"/>
  <outline>
    <contour>
      <point x="43" y="-90" type="line" name="hr00"/>
      <point x="191" y="-197" type="line"/>
      <point x="1293" y="1460" type="line"/>
      <point x="1129" y="1563" type="line"/>
    </contour>
    <contour>
      <point x="812" y="1500" type="move" name="U"/>
    </contour>
    <contour>
      <point x="524" y="-100" type="move" name="L"/>
    </contour>
    <contour>
      <point x="544" y="0" type="move" name="H"/>
    </contour>
    <component base="LtnCapT"/>
  </outline>
</glyph>
<glyph name="LtnCapUBar" format="1">
  <advance width="1534"/>
  <unicode hex="0244"/>
  <outline>
    <contour>
      <point x="1620" y="1272" type="line" name="hr01"/>
      <point x="1620" y="1374" type="line" name="hr02"/>
      <point x="1071" y="1374" type="line"/>
      <point x="1071" y="1272" type="line"/>
      <point x="1126" y="1266"/>
      <point x="1188" y="1262"/>
      <point x="1188" y="1262" type="curve"/>
      <point x="1221" y="1260"/>
      <point x="1231" y="1255"/>
      <point x="1227" y="1231" type="curve" smooth="yes"/>
      <point x="1137" y="784" type="line"/>
      <point x="559" y="784" type="line"/>
      <point x="651" y="1229" type="line" smooth="yes"/>
      <point x="655" y="1253"/>
      <point x="670" y="1260"/>
      <point x="694" y="1262" type="curve"/>
      <point x="694" y="1262"/>
      <point x="758" y="1266"/>
      <point x="821" y="1272" type="curve"/>
      <point x="821" y="1374" type="line"/>
      <point x="203" y="1374" type="line"/>
      <point x="203" y="1272" type="line"/>
      <point x="258" y="1266"/>
      <point x="317" y="1262"/>
      <point x="317" y="1262" type="curve"/>
      <point x="346" y="1260"/>
      <point x="362" y="1255"/>
      <point x="358" y="1231" type="curve" smooth="yes"/>
      <point x="266" y="784" type="line"/>
      <point x="51" y="784" type="line"/>
      <point x="51" y="651" type="line"/>
      <point x="240" y="651" type="line"/>
      <point x="215" y="543" type="line"/>
      <point x="197" y="451"/>
      <point x="188" y="371"/>
      <point x="188" y="332" type="curve" smooth="yes"/>
      <point x="188" y="78"/>
      <point x="377" y="-33"/>
      <point x="680" y="-33" type="curve" smooth="yes"/>
      <point x="1057" y="-33"/>
      <point x="1239" y="156"/>
      <point x="1294" y="440" type="curve" smooth="yes"/>
      <point x="1337" y="651" type="line"/>
      <point x="1554" y="651" type="line"/>
      <point x="1554" y="784" type="line"/>
      <point x="1364" y="784" type="line"/>
      <point x="1452" y="1229" type="line" smooth="yes" name="hr03"/>
      <point x="1456" y="1247"/>
      <point x="1466" y="1260"/>
      <point x="1485" y="1262" type="curve" smooth="yes"/>
    </contour>
    <contour>
      <point x="1110" y="651" type="line"/>
      <point x="1083" y="512" type="line" smooth="yes"/>
      <point x="1038" y="287"/>
      <point x="946" y="121"/>
      <point x="733" y="121" type="curve" smooth="yes"/>
      <point x="610" y="121"/>
      <point x="487" y="188"/>
      <point x="487" y="362" type="curve" smooth="yes"/>
      <point x="487" y="399"/>
      <point x="494" y="465"/>
      <point x="510" y="543" type="curve" smooth="yes"/>
      <point x="532" y="651" type="line"/>
    </contour>
    <contour>
      <point x="956" y="1500" type="move" name="U"/>
    </contour>
    <contour>
      <point x="668" y="-100" type="move" name="L"/>
    </contour>
  </outline>
</glyph>
<glyph name="LtnCapEStrk" format="1">
  <advance width="1229"/>
  <unicode hex="0246"/>
  <outline>
    <contour>
      <point x="3" y="-90" type="line" name="hr00"/>
      <point x="151" y="-197" type="line"/>
      <point x="1253" y="1460" type="line"/>
      <point x="1089" y="1563" type="line"/>
    </contour>
    <contour>
      <point x="800" y="1500" type="move" name="U"/>
    </contour>
    <contour>
      <point x="512" y="-100" type="move" name="L"/>
    </contour>
    <component base="LtnCapE"/>
  </outline>
</glyph>
<glyph name="LtnSmTurnedA" format="1">
  <advance width="1163"/>
  <unicode hex="0250"/>
  <outline>
    <contour>
      <point x="1098" y="649" type="curve" smooth="yes" name="hr01"/>
      <point x="1098" y="801"/>
      <point x="1008" y="1024"/>
      <point x="756" y="1024" type="curve" smooth="yes"/>
      <point x="657" y="1024"/>
      <point x="561" y="979"/>
      <point x="489" y="932" type="curve"/>
      <point x="463" y="991"/>
      <point x="403" y="1024"/>
      <point x="317" y="1024" type="curve" smooth="yes"/>
      <point x="213" y="1024"/>
      <point x="100" y="975"/>
      <point x="4" y="938" type="curve"/>
      <point x="4" y="840" type="line" name="hr02"/>
      <point x="25" y="844"/>
      <point x="174" y="883"/>
      <point x="184" y="883" type="curve" smooth="yes"/>
      <point x="233" y="883"/>
      <point x="240" y="862"/>
      <point x="240" y="801" type="curve"/>
      <point x="106" y="125" type="line" smooth="yes"/>
      <point x="102" y="104"/>
      <point x="70" y="41"/>
      <point x="55" y="0" type="curve"/>
      <point x="274" y="0" type="line"/>
      <point x="289" y="16" type="line" name="hr03"/>
      <point x="336" y="-6"/>
      <point x="399" y="-25"/>
      <point x="459" y="-25" type="curve" smooth="yes"/>
      <point x="899" y="-25"/>
      <point x="1098" y="344"/>
    </contour>
    <contour>
      <point x="809" y="637" type="curve" smooth="yes"/>
      <point x="809" y="403"/>
      <point x="690" y="92"/>
      <point x="428" y="92" type="curve" smooth="yes"/>
      <point x="406" y="92"/>
      <point x="391" y="180"/>
      <point x="393" y="193" type="curve" smooth="yes"/>
      <point x="492" y="692"/>
      <point x="471" y="588"/>
      <point x="502" y="752" type="curve"/>
      <point x="530" y="778"/>
      <point x="602" y="868"/>
      <point x="688" y="868" type="curve" smooth="yes"/>
      <point x="813" y="868"/>
      <point x="809" y="743"/>
    </contour>
    <contour>
      <point x="622" y="1100" type="move" name="U"/>
    </contour>
    <contour>
      <point x="378" y="-100" type="move" name="L"/>
    </contour>
    <contour>
      <point x="1163" y="1000" type="move" name="R"/>
    </contour>
  </outline>
</glyph>
<glyph name="LtnSmDTail" format="1">
  <advance width="1159"/>
  <unicode hex="0256"/>
  <outline>
    <contour>
      <point x="1208" y="-315" type="curve" smooth="yes" name="hr01"/>
      <point x="1208" y="-215"/>
      <point x="1135" y="-186"/>
      <point x="1073" y="-176" type="curve"/>
      <point x="944" y="-315" type="line" name="hr02"/>
      <point x="897" y="-315"/>
      <point x="862" y="-258"/>
      <point x="862" y="-205" type="curve" smooth="yes"/>
      <point x="862" y="-160"/>
      <point x="883" y="-86"/>
      <point x="897" y="-12" type="curve" smooth="yes"/>
      <point x="1167" y="1509" type="line"/>
      <point x="1028" y="1509" type="line"/>
      <point x="682" y="1444" type="line" name="hr03"/>
      <point x="682" y="1370" type="line"/>
      <point x="866" y="1354" type="line"/>
      <point x="805" y="999" type="line"/>
      <point x="778" y="1008"/>
      <point x="737" y="1024"/>
      <point x="686" y="1024" type="curve" smooth="yes" name="hr04"/>
      <point x="272" y="1024"/>
      <point x="66" y="659"/>
      <point x="66" y="346" type="curve" smooth="yes"/>
      <point x="66" y="170"/>
      <point x="164" y="-25"/>
      <point x="401" y="-25" type="curve" smooth="yes"/>
      <point x="489" y="-25"/>
      <point x="559" y="0"/>
      <point x="633" y="53" type="curve" name="hr05"/>
      <point x="633" y="53"/>
      <point x="606" y="-100"/>
      <point x="606" y="-129" type="curve" smooth="yes"/>
      <point x="606" y="-309"/>
      <point x="702" y="-469"/>
      <point x="965" y="-469" type="curve" smooth="yes"/>
      <point x="1102" y="-469"/>
      <point x="1208" y="-381"/>
    </contour>
    <contour>
      <point x="770" y="807" type="curve"/>
      <point x="676" y="276" type="line"/>
      <point x="606" y="197"/>
      <point x="535" y="121"/>
      <point x="465" y="121" type="curve" smooth="yes"/>
      <point x="389" y="121"/>
      <point x="348" y="193"/>
      <point x="348" y="358" type="curve" smooth="yes"/>
      <point x="348" y="684"/>
      <point x="539" y="907"/>
      <point x="682" y="907" type="curve" smooth="yes"/>
      <point x="731" y="907"/>
      <point x="772" y="817"/>
    </contour>
    <contour>
      <point x="416" y="-475" type="move" name="L"/>
    </contour>
    <contour>
      <point x="1159" y="1000" type="move" name="R"/>
    </contour>
    <contour>
      <point x="803" y="1540" type="move" name="U"/>
    </contour>
  </outline>
</glyph>
<glyph name="LtnSmRevE" format="1">
  <advance width="1104"/>
  <unicode hex="0258"/>
  <outline>
    <contour>
      <point x="1040" y="612" type="curve" smooth="yes" name="hr00"/>
      <point x="1040" y="827"/>
      <point x="915" y="1024"/>
      <point x="629" y="1024" type="curve" smooth="yes"/>
      <point x="313" y="1024"/>
      <point x="102" y="868"/>
      <point x="102" y="612" type="curve" smooth="yes"/>
      <point x="102" y="496"/>
      <point x="215" y="422"/>
      <point x="375" y="426" type="curve" smooth="yes"/>
      <point x="528" y="428"/>
      <point x="602" y="451"/>
      <point x="731" y="520" type="curve"/>
      <point x="696" y="336"/>
      <point x="625" y="104"/>
      <point x="424" y="104" type="curve" smooth="yes"/>
      <point x="330" y="104"/>
      <point x="193" y="160"/>
      <point x="51" y="338" type="curve"/>
      <point x="10" y="147" type="line"/>
      <point x="90" y="33"/>
      <point x="217" y="-25"/>
      <point x="395" y="-25" type="curve" smooth="yes"/>
      <point x="791" y="-25"/>
      <point x="1040" y="295"/>
    </contour>
    <contour>
      <point x="745" y="676" type="curve"/>
      <point x="598" y="592"/>
      <point x="522" y="569"/>
      <point x="459" y="569" type="curve" smooth="yes"/>
      <point x="432" y="569"/>
      <point x="383" y="588"/>
      <point x="383" y="653" type="curve" smooth="yes"/>
      <point x="383" y="788"/>
      <point x="467" y="913"/>
      <point x="602" y="913" type="curve" smooth="yes"/>
      <point x="729" y="913"/>
      <point x="737" y="766"/>
    </contour>
    <contour>
      <point x="673" y="1100" type="move" name="U"/>
    </contour>
    <contour>
      <point x="429" y="-100" type="move" name="L"/>
    </contour>
    <contour>
      <point x="1104" y="1000" type="move" name="R"/>
    </contour>
  </outline>
</glyph>
<glyph name="LtnSmSchwa" format="1">
  <advance width="983"/>
  <unicode hex="0259"/>
  <outline>
    <contour>
      <point x="918" y="641" type="curve" smooth="yes" name="hr00"/>
      <point x="918" y="946"/>
      <point x="725" y="1024"/>
      <point x="547" y="1024" type="curve" smooth="yes"/>
      <point x="348" y="1024"/>
      <point x="164" y="893"/>
      <point x="84" y="813" type="curve"/>
      <point x="84" y="621" type="line"/>
      <point x="309" y="815"/>
      <point x="391" y="881"/>
      <point x="479" y="881" type="curve" smooth="yes"/>
      <point x="592" y="881"/>
      <point x="633" y="776"/>
      <point x="633" y="635" type="curve" smooth="yes"/>
      <point x="633" y="612"/>
      <point x="629" y="575"/>
      <point x="627" y="551" type="curve"/>
      <point x="354" y="526"/>
      <point x="37" y="406"/>
      <point x="37" y="190" type="curve" smooth="yes"/>
      <point x="37" y="127"/>
      <point x="127" y="-25"/>
      <point x="328" y="-25" type="curve" smooth="yes"/>
      <point x="678" y="-25"/>
      <point x="918" y="330"/>
    </contour>
    <contour>
      <point x="612" y="444" type="curve"/>
      <point x="575" y="295"/>
      <point x="502" y="88"/>
      <point x="375" y="88" type="curve" smooth="yes"/>
      <point x="313" y="88"/>
      <point x="303" y="141"/>
      <point x="303" y="188" type="curve" smooth="yes"/>
      <point x="303" y="313"/>
      <point x="471" y="412"/>
    </contour>
    <contour>
      <point x="556" y="1100" type="move" name="U"/>
    </contour>
    <contour>
      <point x="316" y="-100" type="move" name="L"/>
    </contour>
    <contour>
      <point x="415" y="0" type="move" name="O"/>
    </contour>
    <contour>
      <point x="336" y="0" type="move" name="H"/>
    </contour>
  </outline>
</glyph>
<glyph name="LtnSmClosedRevOpnE" format="1">
  <advance width="1116"/>
  <unicode hex="025E"/>
  <outline>
    <contour>
      <point x="1051" y="780" type="curve" smooth="yes" name="hr01"/>
      <point x="1051" y="936"/>
      <point x="895" y="1024"/>
      <point x="709" y="1024" type="curve" smooth="yes"/>
      <point x="311" y="1024"/>
      <point x="66" y="715"/>
      <point x="66" y="360" type="curve" smooth="yes"/>
      <point x="66" y="147"/>
      <point x="168" y="-25"/>
      <point x="453" y="-25" type="curve" smooth="yes"/>
      <point x="711" y="-25"/>
      <point x="983" y="72"/>
      <point x="983" y="328" type="curve" smooth="yes" name="hr02"/>
      <point x="983" y="436"/>
      <point x="905" y="485"/>
      <point x="797" y="508" type="curve"/>
      <point x="911" y="555"/>
      <point x="1051" y="653"/>
    </contour>
    <contour>
      <point x="768" y="786" type="curve" smooth="yes"/>
      <point x="768" y="629"/>
      <point x="625" y="543"/>
      <point x="483" y="541" type="curve"/>
      <point x="483" y="438" type="line"/>
      <point x="575" y="438"/>
      <point x="702" y="463"/>
      <point x="702" y="330" type="curve" smooth="yes" name="hr04"/>
      <point x="702" y="188"/>
      <point x="561" y="90"/>
      <point x="479" y="90" type="curve" smooth="yes"/>
      <point x="322" y="90"/>
      <point x="270" y="250"/>
      <point x="270" y="385" type="curve" smooth="yes"/>
      <point x="270" y="621"/>
      <point x="446" y="924"/>
      <point x="659" y="924" type="curve" smooth="yes"/>
      <point x="743" y="924"/>
      <point x="768" y="870"/>
    </contour>
    <contour>
      <point x="674" y="1100" type="move" name="U"/>
    </contour>
    <contour>
      <point x="430" y="-100" type="move" name="L"/>
    </contour>
    <contour>
      <point x="1116" y="1000" type="move" name="R"/>
    </contour>
  </outline>
</glyph>
<glyph name="LtnSmLMiddleTilde" format="1">
  <advance width="686"/>
  <unicode hex="026B"/>
  <outline>
    <contour>
      <point x="836" y="874" type="curve" name="hr01"/>
      <point x="725" y="874" type="line"/>
      <point x="709" y="819"/>
      <point x="659" y="776"/>
      <point x="616" y="776" type="curve" smooth="yes"/>
      <point x="590" y="776"/>
      <point x="561" y="782"/>
      <point x="535" y="788" type="curve"/>
      <point x="674" y="1509" type="line"/>
      <point x="539" y="1509" type="line"/>
      <point x="193" y="1444" type="line"/>
      <point x="193" y="1370" type="line"/>
      <point x="373" y="1354" type="line"/>
      <point x="279" y="872" type="line" name="hr02"/>
      <point x="266" y="874"/>
      <point x="256" y="874"/>
      <point x="244" y="874" type="curve" smooth="yes"/>
      <point x="106" y="874"/>
      <point x="8" y="762"/>
      <point x="-53" y="621" type="curve"/>
      <point x="57" y="621" type="line"/>
      <point x="74" y="676"/>
      <point x="123" y="719"/>
      <point x="166" y="719" type="curve" smooth="yes"/>
      <point x="193" y="719"/>
      <point x="219" y="713"/>
      <point x="246" y="707" type="curve"/>
      <point x="150" y="205" type="line" smooth="yes" name="hr03"/>
      <point x="143" y="178"/>
      <point x="141" y="154"/>
      <point x="141" y="131" type="curve" smooth="yes"/>
      <point x="141" y="37"/>
      <point x="221" y="-25"/>
      <point x="356" y="-25" type="curve" smooth="yes"/>
      <point x="463" y="-25"/>
      <point x="586" y="8"/>
      <point x="682" y="59" type="curve"/>
      <point x="682" y="170" type="line"/>
      <point x="588" y="127"/>
      <point x="508" y="109"/>
      <point x="473" y="109" type="curve" smooth="yes"/>
      <point x="424" y="109"/>
      <point x="414" y="162"/>
      <point x="422" y="209" type="curve" smooth="yes"/>
      <point x="502" y="623" type="line"/>
      <point x="514" y="621"/>
      <point x="526" y="621"/>
      <point x="539" y="621" type="curve" smooth="yes"/>
      <point x="678" y="621"/>
      <point x="774" y="733"/>
    </contour>
    <contour>
      <point x="541" y="1540" type="move" name="U"/>
    </contour>
    <contour>
      <point x="225" y="-100" type="move" name="L"/>
    </contour>
  </outline>
</glyph>
<glyph name="LtnSmCapOe" format="1">
  <advance width="1710"/>
  <unicode hex="0276"/>
  <outline>
    <contour>
      <point x="1718" y="999" type="line" name="hr01"/>
      <point x="1008" y="999" type="line"/>
      <point x="993" y="934" type="line" name="hr02"/>
      <point x="920" y="987"/>
      <point x="831" y="1024"/>
      <point x="696" y="1024" type="curve" smooth="yes"/>
      <point x="276" y="1024"/>
      <point x="63" y="696"/>
      <point x="63" y="391" type="curve" smooth="yes"/>
      <point x="63" y="141"/>
      <point x="238" y="-25"/>
      <point x="537" y="-25" type="curve" smooth="yes"/>
      <point x="639" y="-25"/>
      <point x="690" y="-14"/>
      <point x="829" y="49" type="curve"/>
      <point x="817" y="0" type="line" name="hr03"/>
      <point x="1554" y="0" type="line"/>
      <point x="1616" y="274" type="line"/>
      <point x="1477" y="274" type="line"/>
      <point x="1427" y="143" type="line" smooth="yes"/>
      <point x="1419" y="119"/>
      <point x="1401" y="111"/>
      <point x="1378" y="111" type="curve" smooth="yes"/>
      <point x="1047" y="111" type="line"/>
      <point x="1122" y="457" type="line"/>
      <point x="1294" y="457" type="line" smooth="yes"/>
      <point x="1325" y="457"/>
      <point x="1333" y="442"/>
      <point x="1329" y="420" type="curve" smooth="yes"/>
      <point x="1313" y="328" type="line"/>
      <point x="1446" y="328" type="line"/>
      <point x="1528" y="692" type="line"/>
      <point x="1395" y="692" type="line"/>
      <point x="1366" y="600" type="line" smooth="yes"/>
      <point x="1358" y="578"/>
      <point x="1341" y="571"/>
      <point x="1317" y="571" type="curve" smooth="yes"/>
      <point x="1147" y="571" type="line"/>
      <point x="1217" y="879" type="line"/>
      <point x="1479" y="879" type="line" smooth="yes"/>
      <point x="1509" y="879"/>
      <point x="1520" y="856"/>
      <point x="1520" y="842" type="curve" smooth="yes"/>
      <point x="1520" y="737" type="line"/>
      <point x="1659" y="737" type="line"/>
    </contour>
    <contour>
      <point x="877" y="616" type="curve" smooth="yes" name="hr04"/>
      <point x="877" y="358"/>
      <point x="713" y="88"/>
      <point x="543" y="88" type="curve" smooth="yes"/>
      <point x="457" y="88"/>
      <point x="344" y="180"/>
      <point x="344" y="381" type="curve" smooth="yes"/>
      <point x="344" y="662"/>
      <point x="508" y="913"/>
      <point x="682" y="913" type="curve" smooth="yes"/>
      <point x="750" y="913"/>
      <point x="877" y="838"/>
    </contour>
    <contour>
      <point x="989" y="1100" type="move" name="U"/>
    </contour>
    <contour>
      <point x="745" y="-100" type="move" name="L"/>
    </contour>
    <contour>
      <point x="1710" y="1000" type="move" name="R"/>
    </contour>
  </outline>
</glyph>
<glyph name="LtnSmPhi" format="1">
  <advance width="1315"/>
  <unicode hex="0278"/>
  <outline>
    <contour>
      <point x="1249" y="600" type="curve" smooth="yes" name="hr01"/>
      <point x="1249" y="813"/>
      <point x="1087" y="954"/>
      <point x="895" y="1004" type="curve"/>
      <point x="940" y="1223" type="line" name="hr02"/>
      <point x="950" y="1264"/>
      <point x="973" y="1266"/>
      <point x="1008" y="1268" type="curve"/>
      <point x="1008" y="1268"/>
      <point x="1059" y="1272"/>
      <point x="1100" y="1276" type="curve"/>
      <point x="1100" y="1374" type="line"/>
      <point x="524" y="1374" type="line"/>
      <point x="524" y="1276" type="line"/>
      <point x="565" y="1272"/>
      <point x="616" y="1268"/>
      <point x="616" y="1268" type="curve"/>
      <point x="647" y="1266"/>
      <point x="678" y="1262"/>
      <point x="670" y="1223" type="curve" smooth="yes"/>
      <point x="627" y="1016" type="line"/>
      <point x="240" y="969"/>
      <point x="66" y="684"/>
      <point x="66" y="389" type="curve" smooth="yes"/>
      <point x="66" y="205"/>
      <point x="209" y="47"/>
      <point x="414" y="-4" type="curve"/>
      <point x="352" y="-299" type="line" smooth="yes"/>
      <point x="344" y="-340"/>
      <point x="322" y="-340"/>
      <point x="285" y="-342" type="curve" smooth="yes"/>
      <point x="264" y="-344"/>
      <point x="236" y="-346"/>
      <point x="195" y="-350" type="curve" name="hr03"/>
      <point x="195" y="-449" type="line" name="hr04"/>
      <point x="770" y="-449" type="line"/>
      <point x="770" y="-350" type="line" name="hr05"/>
      <point x="729" y="-346"/>
      <point x="698" y="-344"/>
      <point x="678" y="-342" type="curve" smooth="yes" name="hr06"/>
      <point x="645" y="-340"/>
      <point x="616" y="-340"/>
      <point x="625" y="-299" type="curve" smooth="yes"/>
      <point x="682" y="-16" type="line"/>
      <point x="1067" y="31"/>
      <point x="1249" y="307"/>
    </contour>
    <contour>
      <point x="965" y="608" type="curve" smooth="yes"/>
      <point x="965" y="408"/>
      <point x="860" y="197"/>
      <point x="711" y="119" type="curve"/>
      <point x="864" y="854" type="line"/>
      <point x="920" y="803"/>
      <point x="965" y="721"/>
    </contour>
    <contour>
      <point x="598" y="885" type="curve"/>
      <point x="444" y="150" type="line"/>
      <point x="389" y="201"/>
      <point x="348" y="283"/>
      <point x="348" y="399" type="curve" smooth="yes"/>
      <point x="348" y="616"/>
      <point x="455" y="813"/>
    </contour>
    <contour>
      <point x="852" y="1540" type="move" name="U"/>
    </contour>
    <contour>
      <point x="460" y="-500" type="move" name="L"/>
    </contour>
  </outline>
</glyph>
<glyph name="LtnSmCapInvR" format="1">
  <advance width="1084"/>
  <unicode hex="0281"/>
  <outline>
    <contour>
      <point x="1195" y="911" type="curve" name="hr01"/>
      <point x="1195" y="999" type="line" name="hr02"/>
      <point x="1144" y="1004"/>
      <point x="1117" y="1024"/>
      <point x="1058" y="1024" type="curve" smooth="yes" name="hr03"/>
      <point x="941" y="1024"/>
      <point x="885" y="983"/>
      <point x="828" y="926" type="curve" smooth="yes"/>
      <point x="711" y="809"/>
      <point x="646" y="563"/>
      <point x="466" y="563" type="curve" smooth="yes"/>
      <point x="437" y="563" type="line"/>
      <point x="503" y="868" type="line" smooth="yes" name="hr04"/>
      <point x="507" y="893"/>
      <point x="511" y="899"/>
      <point x="543" y="901" type="curve"/>
      <point x="543" y="901"/>
      <point x="589" y="903"/>
      <point x="636" y="907" type="curve"/>
      <point x="636" y="999" type="line" name="hr05"/>
      <point x="138" y="999" type="line"/>
      <point x="138" y="907" type="line"/>
      <point x="218" y="900" type="line"/>
      <point x="247" y="898"/>
      <point x="250" y="887"/>
      <point x="247" y="872" type="curve" smooth="yes"/>
      <point x="83" y="123" type="line" smooth="yes"/>
      <point x="79" y="106"/>
      <point x="72" y="98"/>
      <point x="48" y="96" type="curve" smooth="yes"/>
      <point x="-55" y="90" type="line"/>
      <point x="-55" y="0" type="line" name="hr06"/>
      <point x="410" y="0" type="line" smooth="yes"/>
      <point x="675" y="0"/>
      <point x="935" y="57"/>
      <point x="935" y="313" type="curve" smooth="yes"/>
      <point x="935" y="410"/>
      <point x="830" y="481"/>
      <point x="730" y="514" type="curve"/>
      <point x="816" y="547"/>
      <point x="873" y="618"/>
      <point x="920" y="692" type="curve" smooth="yes"/>
      <point x="1008" y="834"/>
      <point x="1007" y="911"/>
    </contour>
    <contour>
      <point x="660" y="317" type="curve" smooth="yes" name="hr08"/>
      <point x="660" y="139"/>
      <point x="480" y="102"/>
      <point x="359" y="102" type="curve" smooth="yes"/>
      <point x="333" y="102" type="line"/>
      <point x="412" y="461" type="line"/>
      <point x="439" y="461" type="line"/>
      <point x="543" y="461"/>
      <point x="660" y="406"/>
    </contour>
    <contour>
      <point x="692" y="1100" type="move" name="U"/>
    </contour>
    <contour>
      <point x="448" y="-100" type="move" name="L"/>
    </contour>
  </outline>
</glyph>
<glyph name="LtnSmSquatRevEsh" format="1">
  <advance width="686"/>
  <unicode hex="0285"/>
  <outline>
    <contour>
      <point x="721" y="-303" type="curve" smooth="yes" name="hr01"/>
      <point x="721" y="-258"/>
      <point x="698" y="-205"/>
      <point x="606" y="-172" type="curve"/>
      <point x="453" y="-315" type="line" name="hr02"/>
      <point x="401" y="-315"/>
      <point x="387" y="-264"/>
      <point x="387" y="-238" type="curve" smooth="yes"/>
      <point x="387" y="-174"/>
      <point x="399" y="-115"/>
      <point x="412" y="-53" type="curve" smooth="yes"/>
      <point x="514" y="453" type="line" smooth="yes" name="hr03"/>
      <point x="528" y="522"/>
      <point x="539" y="594"/>
      <point x="539" y="664" type="curve" smooth="yes"/>
      <point x="539" y="850"/>
      <point x="477" y="1024"/>
      <point x="207" y="1024" type="curve" smooth="yes"/>
      <point x="76" y="1024"/>
      <point x="-37" y="958"/>
      <point x="-37" y="856" type="curve" smooth="yes"/>
      <point x="-37" y="811"/>
      <point x="-14" y="758"/>
      <point x="78" y="725" type="curve"/>
      <point x="231" y="868" type="line"/>
      <point x="283" y="868"/>
      <point x="297" y="817"/>
      <point x="297" y="791" type="curve" smooth="yes"/>
      <point x="297" y="729"/>
      <point x="285" y="668"/>
      <point x="272" y="606" type="curve" smooth="yes"/>
      <point x="170" y="100" type="line" smooth="yes" name="hr04"/>
      <point x="156" y="31"/>
      <point x="145" y="-41"/>
      <point x="145" y="-111" type="curve" smooth="yes"/>
      <point x="145" y="-297"/>
      <point x="207" y="-469"/>
      <point x="477" y="-469" type="curve" smooth="yes"/>
      <point x="608" y="-469"/>
      <point x="721" y="-406"/>
    </contour>
    <contour>
      <point x="510" y="1100" type="move" name="U"/>
    </contour>
    <contour>
      <point x="190" y="-500" type="move" name="L"/>
    </contour>
  </outline>
</glyph>
<glyph name="LtnBilabialClick" format="1">
  <advance width="1589"/>
  <unicode hex="0298"/>
  <outline>
    <contour>
      <point x="1593" y="825" type="curve" smooth="yes" name="hr00"/>
      <point x="1593" y="1153"/>
      <point x="1354" y="1407"/>
      <point x="967" y="1407" type="curve" smooth="yes"/>
      <point x="471" y="1407"/>
      <point x="55" y="985"/>
      <point x="55" y="549" type="curve" smooth="yes"/>
      <point x="55" y="221"/>
      <point x="295" y="-33"/>
      <point x="680" y="-33" type="curve" smooth="yes"/>
      <point x="1176" y="-33"/>
      <point x="1593" y="389"/>
    </contour>
    <contour>
      <point x="1368" y="799" type="curve" smooth="yes"/>
      <point x="1368" y="434"/>
      <point x="1018" y="127"/>
      <point x="709" y="127" type="curve" smooth="yes"/>
      <point x="489" y="127"/>
      <point x="279" y="303"/>
      <point x="279" y="575" type="curve" smooth="yes"/>
      <point x="279" y="938"/>
      <point x="631" y="1247"/>
      <point x="940" y="1247" type="curve" smooth="yes"/>
      <point x="1161" y="1247"/>
      <point x="1368" y="1073"/>
    </contour>
    <contour>
      <point x="1014" y="729" type="curve" smooth="yes"/>
      <point x="1014" y="803"/>
      <point x="922" y="844"/>
      <point x="854" y="844" type="curve" smooth="yes"/>
      <point x="756" y="844"/>
      <point x="641" y="762"/>
      <point x="641" y="666" type="curve" smooth="yes"/>
      <point x="641" y="592"/>
      <point x="721" y="537"/>
      <point x="797" y="537" type="curve" smooth="yes"/>
      <point x="901" y="537"/>
      <point x="1014" y="629"/>
    </contour>
    <contour>
      <point x="953" y="1500" type="move" name="U"/>
    </contour>
    <contour>
      <point x="665" y="-100" type="move" name="L"/>
    </contour>
  </outline>
</glyph>
<glyph name="LtnSmTurnedHFishhook" format="1">
  <advance width="1225"/>
  <unicode hex="02AE"/>
  <outline>
    <contour>
      <point x="1169" y="999" type="line" name="hr01"/>
      <point x="895" y="999" type="line"/>
      <point x="745" y="283" type="line"/>
      <point x="662" y="197"/>
      <point x="565" y="129"/>
      <point x="504" y="129" type="curve" smooth="yes"/>
      <point x="461" y="129"/>
      <point x="412" y="186"/>
      <point x="432" y="285" type="curve" smooth="yes"/>
      <point x="508" y="649" type="line" smooth="yes"/>
      <point x="551" y="854"/>
      <point x="481" y="1024"/>
      <point x="180" y="1024" type="curve" smooth="yes" name="hr02"/>
      <point x="53" y="1024"/>
      <point x="-49" y="952"/>
      <point x="-49" y="879" type="curve" smooth="yes"/>
      <point x="-49" y="795"/>
      <point x="-20" y="768"/>
      <point x="43" y="745" type="curve"/>
      <point x="207" y="874" type="line"/>
      <point x="293" y="874"/>
      <point x="256" y="750"/>
      <point x="227" y="606" type="curve" smooth="yes"/>
      <point x="156" y="262" type="line" smooth="yes"/>
      <point x="119" y="90"/>
      <point x="186" y="-25"/>
      <point x="389" y="-25" type="curve" smooth="yes" name="hr03"/>
      <point x="510" y="-25"/>
      <point x="618" y="18"/>
      <point x="700" y="70" type="curve"/>
      <point x="590" y="-469" type="line"/>
      <point x="729" y="-469" type="line"/>
      <point x="1075" y="-403" type="line"/>
      <point x="1075" y="-332" type="line"/>
      <point x="895" y="-313" type="line"/>
    </contour>
    <contour>
      <point x="688" y="1100" type="move" name="U"/>
    </contour>
    <contour>
      <point x="368" y="-500" type="move" name="L"/>
    </contour>
  </outline>
</glyph>
<glyph name="LtnSmTurnedHFishhookTail" format="1">
  <advance width="1227"/>
  <unicode hex="02AF"/>
  <outline>
    <contour>
      <point x="1303" y="-332" type="curve" smooth="yes" name="hr01"/>
      <point x="1303" y="-240"/>
      <point x="1235" y="-213"/>
      <point x="1184" y="-195" type="curve"/>
      <point x="981" y="-330" type="line" name="hr02"/>
      <point x="932" y="-287"/>
      <point x="920" y="-203"/>
      <point x="958" y="-14" type="curve" smooth="yes"/>
      <point x="1169" y="999" type="line"/>
      <point x="895" y="999" type="line"/>
      <point x="745" y="283" type="line"/>
      <point x="662" y="197"/>
      <point x="565" y="129"/>
      <point x="504" y="129" type="curve" smooth="yes"/>
      <point x="461" y="129"/>
      <point x="412" y="186"/>
      <point x="432" y="285" type="curve" smooth="yes"/>
      <point x="508" y="649" type="line" smooth="yes"/>
      <point x="551" y="854"/>
      <point x="481" y="1024"/>
      <point x="180" y="1024" type="curve" smooth="yes" name="hr03"/>
      <point x="53" y="1024"/>
      <point x="-49" y="952"/>
      <point x="-49" y="879" type="curve" smooth="yes"/>
      <point x="-49" y="795"/>
      <point x="-20" y="768"/>
      <point x="43" y="745" type="curve"/>
      <point x="207" y="874" type="line"/>
      <point x="293" y="874"/>
      <point x="256" y="750"/>
      <point x="227" y="606" type="curve" smooth="yes"/>
      <point x="156" y="262" type="line" smooth="yes"/>
      <point x="119" y="90"/>
      <point x="186" y="-25"/>
      <point x="389" y="-25" type="curve" smooth="yes" name="hr04"/>
      <point x="510" y="-25"/>
      <point x="618" y="18"/>
      <point x="700" y="70" type="curve"/>
      <point x="684" y="-12" type="line" smooth="yes"/>
      <point x="637" y="-246"/>
      <point x="743" y="-469"/>
      <point x="1044" y="-469" type="curve" smooth="yes"/>
      <point x="1217" y="-469"/>
      <point x="1303" y="-401"/>
    </contour>
    <contour>
      <point x="796" y="1100" type="move" name="U"/>
    </contour>
    <contour>
      <point x="476" y="-500" type="move" name="L"/>
    </contour>
  </outline>
</glyph>
<glyph name="ModTurnedComma" format="1">
  <advance width="565"/>
  <unicode hex="02BB"/>
  <outline>
    <contour>
      <point x="625" y="1444" type="curve" name="hr01"/>
      <point x="602" y="1520" type="line"/>
      <point x="399" y="1464"/>
      <point x="180" y="1268"/>
      <point x="180" y="1044" type="curve" smooth="yes"/>
      <point x="180" y="952"/>
      <point x="227" y="881"/>
      <point x="326" y="881" type="curve" smooth="yes" name="hr02"/>
      <point x="420" y="881"/>
      <point x="510" y="961"/>
      <point x="510" y="1059" type="curve" smooth="yes"/>
      <point x="510" y="1085"/>
      <point x="502" y="1116"/>
      <point x="487" y="1141" type="curve"/>
      <point x="365" y="1141" type="line"/>
      <point x="389" y="1286"/>
      <point x="483" y="1397"/>
    </contour>
  </outline>
</glyph>
<glyph name="ModLftArrwhd" format="1">
  <advance width="1090"/>
  <unicode hex="02C2"/>
  <outline>
    <contour>
      <point x="987" y="885" type="line" name="hr00"/>
      <point x="987" y="963" type="line"/>
      <point x="197" y="1206" type="line"/>
      <point x="987" y="1450" type="line"/>
      <point x="987" y="1528" type="line"/>
      <point x="102" y="1245" type="line"/>
      <point x="102" y="1167" type="line"/>
    </contour>
  </outline>
</glyph>
<glyph name="ModDwnArrwhd" format="1">
  <advance width="975"/>
  <unicode hex="02C5"/>
  <outline>
    <contour>
      <point x="872" y="1587" type="line" name="hr00"/>
      <point x="780" y="1587" type="line"/>
      <point x="487" y="928" type="line"/>
      <point x="195" y="1587" type="line"/>
      <point x="102" y="1587" type="line"/>
      <point x="442" y="850" type="line"/>
      <point x="532" y="850" type="line"/>
    </contour>
  </outline>
</glyph>
<glyph name="ModVertLine" format="1">
  <advance width="437"/>
  <unicode hex="02C8"/>
  <outline>
    <contour>
      <point x="271" y="922" type="line" name="hr00"/>
      <point x="271" y="1614" type="line"/>
      <point x="166" y="1614" type="line"/>
      <point x="166" y="922" type="line"/>
    </contour>
  </outline>
</glyph>
<glyph name="ModLowVertLine" format="1">
  <advance width="437"/>
  <unicode hex="02CC"/>
  <outline>
    <contour>
      <point x="271" y="-590" type="line" name="hr00"/>
      <point x="271" y="102" type="line"/>
      <point x="166" y="102" type="line"/>
      <point x="166" y="-590" type="line"/>
    </contour>
  </outline>
</glyph>
<glyph name="ModLowMacron" format="1">
  <advance width="696"/>
  <unicode hex="02CD"/>
  <outline>
    <contour>
      <point x="555" y="-175" type="line" name="hr00"/>
      <point x="-141" y="-175" type="line"/>
      <point x="-174" y="-340" type="line"/>
      <point x="522" y="-340" type="line"/>
    </contour>
  </outline>
</glyph>
<glyph name="ModTriangularColon" format="1">
  <advance width="500"/>
  <unicode hex="02D0"/>
  <outline>
    <contour>
      <point x="557" y="1016" type="line" name="hr00"/>
      <point x="127" y="1016" type="line"/>
      <point x="172" y="629" type="line"/>
      <point x="358" y="629" type="line"/>
    </contour>
    <contour>
      <point x="356" y="0" type="line"/>
      <point x="309" y="385" type="line"/>
      <point x="125" y="385" type="line"/>
      <point x="-74" y="0" type="line"/>
    </contour>
    <contour>
      <point x="346" y="1100" type="move" name="U"/>
    </contour>
    <contour>
      <point x="129" y="-100" type="move" name="L"/>
    </contour>
  </outline>
</glyph>
<glyph name="ModHalfTriangularColon" format="1">
  <advance width="485"/>
  <unicode hex="02D1"/>
  <outline>
    <contour>
      <point x="543" y="1016" type="line" name="hr00"/>
      <point x="115" y="1016" type="line"/>
      <point x="160" y="629" type="line"/>
      <point x="344" y="629" type="line"/>
    </contour>
  </outline>
</glyph>
<glyph name="ModUpTack" format="1">
  <advance width="850"/>
  <unicode hex="02D4"/>
  <outline>
    <contour>
      <point x="702" y="346" type="line" name="hr00"/>
      <point x="459" y="346" type="line"/>
      <point x="539" y="758" type="line"/>
      <point x="397" y="758" type="line"/>
      <point x="317" y="346" type="line"/>
      <point x="72" y="346" type="line"/>
      <point x="43" y="207" type="line"/>
      <point x="674" y="207" type="line"/>
    </contour>
  </outline>
</glyph>
<glyph name="ModPlusSgn" format="1">
  <advance width="498"/>
  <unicode hex="02D6"/>
  <outline>
    <contour>
      <point x="515" y="571" type="line" name="hr00"/>
      <point x="322" y="571" type="line"/>
      <point x="359" y="759" type="line"/>
      <point x="244" y="759" type="line"/>
      <point x="208" y="571" type="line"/>
      <point x="15" y="571" type="line"/>
      <point x="-8" y="454" type="line"/>
      <point x="185" y="454" type="line"/>
      <point x="146" y="261" type="line"/>
      <point x="263" y="261" type="line"/>
      <point x="300" y="454" type="line"/>
      <point x="490" y="454" type="line"/>
    </contour>
  </outline>
</glyph>
<glyph name="DotAbv" format="1">
  <advance width="279"/>
  <unicode hex="02D9"/>
  <outline>
    <contour>
      <point x="442" y="1337" type="curve" smooth="yes" name="hr00"/>
      <point x="442" y="1421"/>
      <point x="383" y="1487"/>
      <point x="303" y="1487" type="curve" smooth="yes"/>
      <point x="221" y="1487"/>
      <point x="166" y="1419"/>
      <point x="166" y="1337" type="curve" smooth="yes"/>
      <point x="166" y="1257"/>
      <point x="225" y="1198"/>
      <point x="305" y="1198" type="curve" smooth="yes"/>
      <point x="383" y="1198"/>
      <point x="442" y="1262"/>
    </contour>
  </outline>
</glyph>
<glyph name="RingAbv" format="1">
  <advance width="518"/>
  <unicode hex="02DA"/>
  <outline>
    <contour>
      <point x="692" y="1438" type="curve" smooth="yes" name="hr00"/>
      <point x="692" y="1559"/>
      <point x="602" y="1645"/>
      <point x="481" y="1645" type="curve" smooth="yes"/>
      <point x="319" y="1645"/>
      <point x="166" y="1499"/>
      <point x="166" y="1335" type="curve" smooth="yes"/>
      <point x="166" y="1212"/>
      <point x="258" y="1128"/>
      <point x="379" y="1128" type="curve" smooth="yes"/>
      <point x="539" y="1128"/>
      <point x="692" y="1274"/>
    </contour>
    <contour>
      <point x="561" y="1411" type="curve" smooth="yes"/>
      <point x="561" y="1331"/>
      <point x="485" y="1257"/>
      <point x="403" y="1257" type="curve" smooth="yes"/>
      <point x="344" y="1257"/>
      <point x="297" y="1300"/>
      <point x="297" y="1362" type="curve" smooth="yes"/>
      <point x="297" y="1442"/>
      <point x="375" y="1516"/>
      <point x="455" y="1516" type="curve" smooth="yes"/>
      <point x="516" y="1516"/>
      <point x="561" y="1473"/>
    </contour>
  </outline>
</glyph>
<glyph name="ModCrossAccent" format="1">
  <advance width="498"/>
  <unicode hex="02DF"/>
  <outline>
    <contour>
      <point x="387" y="297" type="line" name="hr00"/>
      <point x="470" y="380" type="line"/>
      <point x="335" y="515" type="line"/>
      <point x="468" y="648" type="line"/>
      <point x="385" y="731" type="line"/>
      <point x="252" y="598" type="line"/>
      <point x="118" y="732" type="line"/>
      <point x="35" y="649" type="line"/>
      <point x="170" y="515" type="line"/>
      <point x="33" y="379" type="line"/>
      <point x="116" y="296" type="line"/>
      <point x="252" y="432" type="line"/>
    </contour>
  </outline>
</glyph>
<glyph name="ModYangDepartingToneMrk" format="1">
  <advance width="727"/>
  <unicode hex="02EB"/>
  <outline>
    <contour>
      <point x="641" y="557" type="line" name="hr00"/>
      <point x="272" y="557" type="line"/>
      <point x="322" y="805" type="line"/>
      <point x="178" y="805" type="line"/>
      <point x="53" y="172" type="line"/>
      <point x="197" y="172" type="line"/>
      <point x="244" y="416" type="line"/>
      <point x="612" y="416" type="line"/>
    </contour>
  </outline>
</glyph>
<glyph name="ModUnaspd" format="1">
  <advance width="1010"/>
  <unicode hex="02ED"/>
  <outline>
    <contour>
      <point x="949" y="960" type="line" name="hr00"/>
      <point x="123" y="960" type="line"/>
      <point x="90" y="795" type="line"/>
      <point x="918" y="795" type="line"/>
    </contour>
    <contour>
      <point x="1010" y="1235" type="line"/>
      <point x="184" y="1235" type="line"/>
      <point x="151" y="1070" type="line"/>
      <point x="979" y="1070" type="line"/>
    </contour>
  </outline>
</glyph>
<glyph name="ModBeginLowTn" format="1">
  <advance width="631"/>
  <unicode hex="02FB"/>
  <outline>
    <contour>
      <point x="583" y="-304" type="line" name="hr00"/>
      <point x="583" y="-217" type="line"/>
      <point x="139" y="-217" type="line"/>
      <point x="139" y="350" type="line"/>
      <point x="52" y="350" type="line"/>
      <point x="52" y="-304" type="line"/>
    </contour>
  </outline>
</glyph>
<glyph name="ModShelf" format="1">
  <advance width="1070"/>
  <unicode hex="02FD"/>
  <outline>
    <contour>
      <point x="5" y="-237" type="line" name="hr00"/>
      <point x="43" y="-50" type="line"/>
      <point x="-65" y="-50" type="line"/>
      <point x="-126" y="-356" type="line"/>
      <point x="851" y="-356" type="line"/>
      <point x="913" y="-50" type="line"/>
      <point x="805" y="-50" type="line"/>
      <point x="767" y="-237" type="line"/>
    </contour>
  </outline>
</glyph>
<glyph name="CombMacron" format="1">
  <advance width="0"/>
  <unicode hex="0304"/>
  <outline>
    <contour>
      <point x="-43" y="1365" type="line" name="hr00"/>
      <point x="-739" y="1365" type="line"/>
      <point x="-772" y="1200" type="line"/>
      <point x="-74" y="1200" type="line"/>
    </contour>
    <contour>
      <point x="-384" y="1470" type="move" name="U"/>
    </contour>
    <contour>
      <point x="-443" y="1100" type="move" name="_U"/>
    </contour>
  </outline>
</glyph>
<glyph name="CombOverline" format="1">
  <advance width="0"/>
  <unicode hex="0305"/>
  <outline>
    <contour>
      <point x="362" y="1630" type="line" name="hr00"/>
      <point x="-1036" y="1630" type="line"/>
      <point x="-1069" y="1465" type="line"/>
      <point x="331" y="1465" type="line"/>
    </contour>
    <contour>
      <point x="-443" y="1100" type="move" name="_U"/>
    </contour>
    <contour>
      <point x="-363" y="1580" type="move" name="U"/>
    </contour>
  </outline>
</glyph>
<glyph name="CombHookAbv" format="1">
  <advance width="0"/>
  <unicode hex="0309"/>
  <outline>
    <contour>
      <point x="-210" y="1448" type="curve" smooth="yes" name="hr00"/>
      <point x="-210" y="1518"/>
      <point x="-261" y="1569"/>
      <point x="-351" y="1569" type="curve" smooth="yes"/>
      <point x="-446" y="1569"/>
      <point x="-536" y="1499"/>
      <point x="-536" y="1464" type="curve" smooth="yes"/>
      <point x="-536" y="1438"/>
      <point x="-536" y="1405"/>
      <point x="-493" y="1405" type="curve" smooth="yes"/>
      <point x="-468" y="1405"/>
      <point x="-444" y="1417"/>
      <point x="-444" y="1417" type="curve"/>
      <point x="-405" y="1495" type="line"/>
      <point x="-392" y="1507"/>
      <point x="-378" y="1511"/>
      <point x="-364" y="1511" type="curve" smooth="yes"/>
      <point x="-331" y="1511"/>
      <point x="-306" y="1466"/>
      <point x="-319" y="1405" type="curve" smooth="yes"/>
      <point x="-333" y="1337"/>
      <point x="-392" y="1305"/>
      <point x="-458" y="1288" type="curve"/>
      <point x="-489" y="1128" type="line"/>
      <point x="-425" y="1128" type="line"/>
      <point x="-401" y="1247" type="line"/>
      <point x="-308" y="1282"/>
      <point x="-210" y="1335"/>
    </contour>
    <contour>
      <point x="-399" y="1500" type="move" name="U"/>
    </contour>
    <contour>
      <point x="-443" y="1100" type="move" name="_U"/>
    </contour>
  </outline>
</glyph>
<glyph name="CombCaron" format="1">
  <advance width="0"/>
  <unicode hex="030C"/>
  <outline>
    <contour>
      <point x="-18" y="1479" type="line" name="hr00"/>
      <point x="-188" y="1479" type="line"/>
      <point x="-403" y="1286" type="line"/>
      <point x="-545" y="1479" type="line"/>
      <point x="-715" y="1479" type="line"/>
      <point x="-557" y="1128" type="line"/>
      <point x="-315" y="1128" type="line"/>
    </contour>
    <contour>
      <point x="-399" y="1500" type="move" name="U"/>
    </contour>
    <contour>
      <point x="-443" y="1100" type="move" name="_U"/>
    </contour>
  </outline>
</glyph>
<glyph name="CombVertLineAbv" format="1">
  <advance width="0"/>
  <unicode hex="030D"/>
  <outline>
    <contour>
      <point x="-298" y="1505" type="line" name="hr00"/>
      <point x="-425" y="1505" type="line"/>
      <point x="-498" y="1128" type="line"/>
      <point x="-373" y="1128" type="line"/>
    </contour>
    <contour>
      <point x="-399" y="1500" type="move" name="U"/>
    </contour>
    <contour>
      <point x="-443" y="1100" type="move" name="_U"/>
    </contour>
  </outline>
</glyph>
<glyph name="CombDblVertLineAbv" format="1">
  <advance width="0"/>
  <unicode hex="030E"/>
  <outline>
    <contour>
      <point x="-157" y="1505" type="line" name="hr00"/>
      <point x="-284" y="1505" type="line"/>
      <point x="-360" y="1128" type="line"/>
      <point x="-233" y="1128" type="line"/>
    </contour>
    <contour>
      <point x="-438" y="1505" type="line"/>
      <point x="-565" y="1505" type="line"/>
      <point x="-638" y="1128" type="line"/>
      <point x="-513" y="1128" type="line"/>
    </contour>
    <contour>
      <point x="-399" y="1500" type="move" name="U"/>
    </contour>
    <contour>
      <point x="-443" y="1100" type="move" name="_U"/>
    </contour>
  </outline>
</glyph>
<glyph name="CombTrndCommaAbv" format="1">
  <advance width="0"/>
  <unicode hex="0312"/>
  <outline>
    <contour>
      <point x="-564" y="1264" type="curve" smooth="yes" name="hr00"/>
      <point x="-564" y="1178"/>
      <point x="-501" y="1127"/>
      <point x="-417" y="1127" type="curve" smooth="yes"/>
      <point x="-337" y="1127"/>
      <point x="-253" y="1178"/>
      <point x="-253" y="1268" type="curve" smooth="yes"/>
      <point x="-253" y="1293"/>
      <point x="-261" y="1318"/>
      <point x="-280" y="1336" type="curve"/>
      <point x="-409" y="1336" type="line"/>
      <point x="-392" y="1412"/>
      <point x="-300" y="1469"/>
      <point x="-233" y="1488" type="curve"/>
      <point x="-216" y="1570" type="line"/>
      <point x="-362" y="1543"/>
      <point x="-564" y="1436"/>
    </contour>
    <contour>
      <point x="-399" y="1500" type="move" name="U"/>
    </contour>
    <contour>
      <point x="-443" y="1100" type="move" name="_U"/>
    </contour>
  </outline>
</glyph>
<glyph name="CombCommaAbvRt" format="1">
  <advance width="315"/>
  <unicode hex="0315"/>
  <outline>
    <contour>
      <point x="489" y="1634" type="curve" smooth="yes" name="hr00"/>
      <point x="489" y="1720"/>
      <point x="426" y="1771"/>
      <point x="342" y="1771" type="curve" smooth="yes"/>
      <point x="262" y="1771"/>
      <point x="178" y="1720"/>
      <point x="178" y="1630" type="curve" smooth="yes"/>
      <point x="178" y="1605"/>
      <point x="186" y="1580"/>
      <point x="205" y="1562" type="curve"/>
      <point x="334" y="1562" type="line"/>
      <point x="317" y="1486"/>
      <point x="225" y="1429"/>
      <point x="158" y="1410" type="curve"/>
      <point x="141" y="1328" type="line"/>
      <point x="287" y="1355"/>
      <point x="489" y="1462"/>
    </contour>
    <contour>
      <point x="0" y="1200" type="move" name="_R"/>
    </contour>
  </outline>
</glyph>
<glyph name="CombRtTackBlw" format="1">
  <advance width="0"/>
  <unicode hex="0319"/>
  <outline>
    <contour>
      <point x="-578" y="-268" type="line" name="hr00"/>
      <point x="-752" y="-268" type="line"/>
      <point x="-726" y="-125" type="line"/>
      <point x="-836" y="-125" type="line"/>
      <point x="-916" y="-522" type="line"/>
      <point x="-803" y="-522" type="line"/>
      <point x="-775" y="-381" type="line"/>
      <point x="-601" y="-381" type="line"/>
    </contour>
    <contour>
      <point x="-763" y="-500" type="move" name="L"/>
    </contour>
    <contour>
      <point x="-687" y="-100" type="move" name="_L"/>
    </contour>
  </outline>
</glyph>
<glyph name="CombLftAngAbv" format="1">
  <advance width="565"/>
  <unicode hex="031A"/>
  <outline>
    <contour>
      <point x="645" y="1419" type="line" name="hr00"/>
      <point x="227" y="1419" type="line"/>
      <point x="209" y="1317" type="line"/>
      <point x="524" y="1317" type="line"/>
      <point x="457" y="981" type="line"/>
      <point x="559" y="981" type="line"/>
    </contour>
  </outline>
</glyph>
<glyph name="CombHorn" format="1">
  <advance width="374"/>
  <unicode hex="031B"/>
  <outline>
    <contour>
      <point x="501" y="1531" type="curve" smooth="yes" name="hr01"/>
      <point x="501" y="1623"/>
      <point x="456" y="1713"/>
      <point x="358" y="1713" type="curve" smooth="yes" name="hr02"/>
      <point x="264" y="1713"/>
      <point x="143" y="1623"/>
      <point x="143" y="1526" type="curve" smooth="yes"/>
      <point x="143" y="1498"/>
      <point x="152" y="1457"/>
      <point x="166" y="1433" type="curve"/>
      <point x="319" y="1433" type="line"/>
      <point x="292" y="1289"/>
      <point x="198" y="1179"/>
      <point x="59" y="1131" type="curve"/>
      <point x="59" y="1043" type="line"/>
      <point x="299" y="1094"/>
      <point x="501" y="1306"/>
    </contour>
    <contour>
      <point x="0" y="1200" type="move" name="_R"/>
    </contour>
  </outline>
</glyph>
<glyph name="CombLftHalfRingBlw" format="1">
  <advance width="0"/>
  <unicode hex="031C"/>
  <outline>
    <contour>
      <point x="-570" y="-125" type="line" name="hr00"/>
      <point x="-738" y="-125"/>
      <point x="-867" y="-227"/>
      <point x="-867" y="-403" type="curve" smooth="yes"/>
      <point x="-867" y="-526"/>
      <point x="-769" y="-567"/>
      <point x="-658" y="-567" type="curve"/>
      <point x="-642" y="-485" type="line"/>
      <point x="-709" y="-485"/>
      <point x="-773" y="-469"/>
      <point x="-773" y="-389" type="curve" smooth="yes"/>
      <point x="-773" y="-270"/>
      <point x="-703" y="-207"/>
      <point x="-587" y="-207" type="curve"/>
    </contour>
    <contour>
      <point x="-763" y="-500" type="move" name="L"/>
    </contour>
    <contour>
      <point x="-687" y="-100" type="move" name="_L"/>
    </contour>
  </outline>
</glyph>
<glyph name="CombUpTackBlw" format="1">
  <advance width="0"/>
  <unicode hex="031D"/>
  <outline>
    <contour>
      <point x="-536" y="-289" type="line" name="hr00"/>
      <point x="-669" y="-289" type="line"/>
      <point x="-638" y="-125" type="line"/>
      <point x="-749" y="-125" type="line"/>
      <point x="-782" y="-289" type="line"/>
      <point x="-915" y="-289" type="line"/>
      <point x="-937" y="-399" type="line"/>
      <point x="-559" y="-399" type="line"/>
    </contour>
    <contour>
      <point x="-763" y="-500" type="move" name="L"/>
    </contour>
    <contour>
      <point x="-687" y="-100" type="move" name="_L"/>
    </contour>
  </outline>
</glyph>
<glyph name="CombDwnTackBlw" format="1">
  <advance width="0"/>
  <unicode hex="031E"/>
  <outline>
    <contour>
      <point x="-503" y="-125" type="line" name="hr00"/>
      <point x="-882" y="-125" type="line"/>
      <point x="-905" y="-238" type="line"/>
      <point x="-772" y="-238" type="line"/>
      <point x="-802" y="-399" type="line"/>
      <point x="-692" y="-399" type="line"/>
      <point x="-659" y="-238" type="line"/>
      <point x="-526" y="-238" type="line"/>
    </contour>
    <contour>
      <point x="-763" y="-500" type="move" name="L"/>
    </contour>
    <contour>
      <point x="-687" y="-100" type="move" name="_L"/>
    </contour>
  </outline>
</glyph>
<glyph name="CombMinusSgnBlw" format="1">
  <advance width="0"/>
  <unicode hex="0320"/>
  <outline>
    <contour>
      <point x="-463" y="-125" type="line" name="hr00"/>
      <point x="-922" y="-125" type="line"/>
      <point x="-945" y="-238" type="line"/>
      <point x="-486" y="-238" type="line"/>
    </contour>
    <contour>
      <point x="-687" y="-100" type="move" name="_L"/>
    </contour>
    <contour>
      <point x="-763" y="-500" type="move" name="L"/>
    </contour>
  </outline>
</glyph>
<glyph name="CombDotBlw" format="1">
  <advance width="0"/>
  <unicode hex="0323"/>
  <outline>
    <contour>
      <point x="-593" y="-324" type="curve" smooth="yes" name="hr00"/>
      <point x="-593" y="-240"/>
      <point x="-655" y="-174"/>
      <point x="-735" y="-174" type="curve" smooth="yes"/>
      <point x="-817" y="-174"/>
      <point x="-872" y="-242"/>
      <point x="-872" y="-324" type="curve" smooth="yes"/>
      <point x="-872" y="-403"/>
      <point x="-813" y="-463"/>
      <point x="-733" y="-463" type="curve" smooth="yes"/>
      <point x="-653" y="-463"/>
      <point x="-593" y="-399"/>
    </contour>
    <contour>
      <point x="-763" y="-500" type="move" name="L"/>
    </contour>
    <contour>
      <point x="-687" y="-100" type="move" name="_L"/>
    </contour>
  </outline>
</glyph>
<glyph name="CombDiaerBlw" format="1">
  <advance width="0"/>
  <unicode hex="0324"/>
  <outline>
    <contour>
      <point x="-375" y="-315" type="curve" smooth="yes" name="hr01"/>
      <point x="-375" y="-238"/>
      <point x="-439" y="-174"/>
      <point x="-517" y="-174" type="curve" smooth="yes" name="hr02"/>
      <point x="-594" y="-174"/>
      <point x="-658" y="-238"/>
      <point x="-658" y="-315" type="curve" smooth="yes"/>
      <point x="-658" y="-393"/>
      <point x="-594" y="-457"/>
      <point x="-517" y="-457" type="curve" smooth="yes"/>
      <point x="-439" y="-457"/>
      <point x="-375" y="-393"/>
    </contour>
    <contour>
      <point x="-807" y="-315" type="curve" smooth="yes"/>
      <point x="-807" y="-238"/>
      <point x="-871" y="-174"/>
      <point x="-949" y="-174" type="curve" smooth="yes" name="hr04"/>
      <point x="-1027" y="-174"/>
      <point x="-1088" y="-238"/>
      <point x="-1088" y="-315" type="curve" smooth="yes"/>
      <point x="-1088" y="-393"/>
      <point x="-1027" y="-457"/>
      <point x="-949" y="-457" type="curve" smooth="yes"/>
      <point x="-871" y="-457"/>
      <point x="-807" y="-393"/>
    </contour>
    <contour>
      <point x="-763" y="-500" type="move" name="L"/>
    </contour>
    <contour>
      <point x="-687" y="-100" type="move" name="_L"/>
    </contour>
  </outline>
</glyph>
<glyph name="CombCedilla" format="1">
  <advance width="0"/>
  <unicode hex="0327"/>
  <outline>
    <contour>
      <point x="-464" y="-231" type="curve" smooth="yes" name="hr01"/>
      <point x="-464" y="-150"/>
      <point x="-527" y="-113"/>
      <point x="-609" y="-113" type="curve" smooth="yes"/>
      <point x="-630" y="-113"/>
      <point x="-638" y="-111"/>
      <point x="-638" y="-111" type="curve"/>
      <point x="-605" y="50" type="line"/>
      <point x="-710" y="50" type="line"/>
      <point x="-765" y="-229" type="line"/>
      <point x="-765" y="-229"/>
      <point x="-732" y="-225"/>
      <point x="-718" y="-225" type="curve" smooth="yes"/>
      <point x="-677" y="-225"/>
      <point x="-642" y="-242"/>
      <point x="-642" y="-281" type="curve" smooth="yes"/>
      <point x="-642" y="-350"/>
      <point x="-722" y="-365"/>
      <point x="-775" y="-365" type="curve" smooth="yes"/>
      <point x="-826" y="-365"/>
      <point x="-902" y="-348"/>
      <point x="-902" y="-348" type="curve"/>
      <point x="-923" y="-451" type="line" name="hr02"/>
      <point x="-923" y="-451"/>
      <point x="-845" y="-473"/>
      <point x="-761" y="-473" type="curve" smooth="yes" name="hr03"/>
      <point x="-617" y="-473"/>
      <point x="-464" y="-391"/>
    </contour>
    <contour>
      <point x="-783" y="-600" type="move" name="L"/>
    </contour>
    <contour>
      <point x="-667" y="0" type="move" name="_H"/>
    </contour>
  </outline>
</glyph>
<glyph name="CombVertLineBlw" format="1">
  <advance width="0"/>
  <unicode hex="0329"/>
  <outline>
    <contour>
      <point x="-630" y="-125" type="line" name="hr00"/>
      <point x="-755" y="-125" type="line"/>
      <point x="-831" y="-502" type="line"/>
      <point x="-706" y="-502" type="line"/>
    </contour>
    <contour>
      <point x="-763" y="-500" type="move" name="L"/>
    </contour>
    <contour>
      <point x="-687" y="-100" type="move" name="_L"/>
    </contour>
  </outline>
</glyph>
<glyph name="CombBridgeBlw" format="1">
  <advance width="0"/>
  <unicode hex="032A"/>
  <outline>
    <contour>
      <point x="-441" y="-125" type="line" name="hr00"/>
      <point x="-945" y="-125" type="line"/>
      <point x="-1007" y="-434" type="line"/>
      <point x="-894" y="-434" type="line"/>
      <point x="-855" y="-238" type="line"/>
      <point x="-576" y="-238" type="line"/>
      <point x="-615" y="-434" type="line"/>
      <point x="-503" y="-434" type="line"/>
    </contour>
    <contour>
      <point x="-763" y="-500" type="move" name="L"/>
    </contour>
    <contour>
      <point x="-687" y="-100" type="move" name="_L"/>
    </contour>
  </outline>
</glyph>
<glyph name="CombCaronBlw" format="1">
  <advance width="0"/>
  <unicode hex="032C"/>
  <outline>
    <contour>
      <point x="-345" y="-125" type="line" name="hr00"/>
      <point x="-517" y="-125" type="line"/>
      <point x="-732" y="-317" type="line"/>
      <point x="-871" y="-125" type="line"/>
      <point x="-1041" y="-125" type="line"/>
      <point x="-883" y="-475" type="line"/>
      <point x="-642" y="-475" type="line"/>
    </contour>
    <contour>
      <point x="-763" y="-500" type="move" name="L"/>
    </contour>
    <contour>
      <point x="-687" y="-100" type="move" name="_L"/>
    </contour>
  </outline>
</glyph>
<glyph name="CombDblLowLine" format="1">
  <advance width="0"/>
  <unicode hex="0333"/>
  <outline>
    <contour>
      <point x="0" y="-175" type="line" name="hr00"/>
      <point x="-1400" y="-175" type="line"/>
      <point x="-1433" y="-340" type="line"/>
      <point x="-33" y="-340" type="line"/>
    </contour>
    <contour>
      <point x="-60" y="-440" type="line"/>
      <point x="-1460" y="-440" type="line"/>
      <point x="-1493" y="-605" type="line"/>
      <point x="-93" y="-605" type="line"/>
    </contour>
    <contour>
      <point x="-763" y="-500" type="move" name="L"/>
    </contour>
    <contour>
      <point x="-687" y="-100" type="move" name="_L"/>
    </contour>
  </outline>
</glyph>
<glyph name="CombShortStrkOverlay" format="1">
  <advance width="0"/>
  <unicode hex="0335"/>
  <outline>
    <contour>
      <point x="-218" y="450" type="line" name="hr00"/>
      <point x="-218" y="571" type="line"/>
      <point x="-903" y="571" type="line"/>
      <point x="-903" y="450" type="line"/>
    </contour>
  </outline>
</glyph>
<glyph name="CombLngStrkOverlay" format="1">
  <advance width="0"/>
  <unicode hex="0336"/>
  <outline>
    <contour>
      <point x="42" y="450" type="line" name="hr00"/>
      <point x="42" y="571" type="line"/>
      <point x="-1173" y="571" type="line"/>
      <point x="-1173" y="450" type="line"/>
    </contour>
  </outline>
</glyph>
<glyph name="CombShortSolidusOverlay" format="1">
  <advance width="0"/>
  <unicode hex="0337"/>
  <outline>
    <contour>
      <point x="-113" y="1087" type="line" name="hr00"/>
      <point x="-228" y="1153" type="line"/>
      <point x="-1037" y="-123" type="line"/>
      <point x="-932" y="-193" type="line"/>
    </contour>
  </outline>
</glyph>
<glyph name="CombLngSolidusOverlay" format="1">
  <advance width="0"/>
  <unicode hex="0338"/>
  <outline>
    <contour>
      <point x="-53" y="1237" type="line" name="hr00"/>
      <point x="-168" y="1303" type="line"/>
      <point x="-1097" y="-273" type="line"/>
      <point x="-992" y="-343" type="line"/>
    </contour>
  </outline>
</glyph>
<glyph name="CombSqrBlw" format="1">
  <advance width="0"/>
  <unicode hex="033B"/>
  <outline>
    <contour>
      <point x="-469" y="-125" type="line" name="hr00"/>
      <point x="-917" y="-125" type="line"/>
      <point x="-1007" y="-573" type="line"/>
      <point x="-559" y="-573" type="line"/>
    </contour>
    <contour>
      <point x="-585" y="-223" type="line"/>
      <point x="-636" y="-475" type="line"/>
      <point x="-888" y="-475" type="line"/>
      <point x="-839" y="-223" type="line"/>
    </contour>
    <contour>
      <point x="-763" y="-500" type="move" name="L"/>
    </contour>
    <contour>
      <point x="-687" y="-100" type="move" name="_L"/>
    </contour>
  </outline>
</glyph>
<glyph name="CombEqSgnBlw" format="1">
  <advance width="0"/>
  <unicode hex="0347"/>
  <outline>
    <contour>
      <point x="-300" y="-175" type="line" name="hr00"/>
      <point x="-1100" y="-175" type="line"/>
      <point x="-1133" y="-340" type="line"/>
      <point x="-333" y="-340" type="line"/>
    </contour>
    <contour>
      <point x="-360" y="-440" type="line"/>
      <point x="-1160" y="-440" type="line"/>
      <point x="-1193" y="-605" type="line"/>
      <point x="-393" y="-605" type="line"/>
    </contour>
    <contour>
      <point x="-763" y="-500" type="move" name="L"/>
    </contour>
    <contour>
      <point x="-687" y="-100" type="move" name="_L"/>
    </contour>
  </outline>
</glyph>
<glyph name="CombDblVertLineBlw" format="1">
  <advance width="0"/>
  <unicode hex="0348"/>
  <outline>
    <contour>
      <point x="-491" y="-125" type="line" name="hr00"/>
      <point x="-618" y="-125" type="line"/>
      <point x="-691" y="-502" type="line"/>
      <point x="-566" y="-502" type="line"/>
    </contour>
    <contour>
      <point x="-771" y="-125" type="line"/>
      <point x="-896" y="-125" type="line"/>
      <point x="-972" y="-502" type="line"/>
      <point x="-847" y="-502" type="line"/>
    </contour>
    <contour>
      <point x="-763" y="-500" type="move" name="L"/>
    </contour>
    <contour>
      <point x="-687" y="-100" type="move" name="_L"/>
    </contour>
  </outline>
</glyph>
<glyph name="CombHomotheticAbv" format="1">
  <advance width="0"/>
  <unicode hex="034B"/>
  <outline>
    <contour>
      <point x="-432" y="1215" type="curve" name="hr01"/>
      <point x="-432" y="1261"/>
      <point x="-459" y="1289"/>
      <point x="-505" y="1289" type="curve" smooth="yes"/>
      <point x="-549" y="1289"/>
      <point x="-579" y="1259"/>
      <point x="-579" y="1215" type="curve" smooth="yes"/>
      <point x="-579" y="1170"/>
      <point x="-549" y="1141"/>
      <point x="-505" y="1141" type="curve" smooth="yes"/>
      <point x="-459" y="1141"/>
      <point x="-432" y="1168"/>
    </contour>
    <contour>
      <point x="-172" y="1608" type="curve" name="hr02"/>
      <point x="-172" y="1654"/>
      <point x="-199" y="1682"/>
      <point x="-245" y="1682" type="curve" smooth="yes"/>
      <point x="-289" y="1682"/>
      <point x="-319" y="1652"/>
      <point x="-319" y="1608" type="curve" smooth="yes"/>
      <point x="-319" y="1563"/>
      <point x="-289" y="1534"/>
      <point x="-245" y="1534" type="curve" smooth="yes"/>
      <point x="-199" y="1534"/>
      <point x="-172" y="1561"/>
    </contour>
    <contour>
      <point x="8" y="1538" type="curve"/>
      <point x="-103" y="1538" type="line"/>
      <point x="-119" y="1485"/>
      <point x="-168" y="1442"/>
      <point x="-211" y="1442" type="curve" smooth="yes"/>
      <point x="-334" y="1442"/>
      <point x="-356" y="1538"/>
      <point x="-465" y="1538" type="curve" smooth="yes" name="hr03"/>
      <point x="-602" y="1538"/>
      <point x="-698" y="1425"/>
      <point x="-762" y="1284" type="curve"/>
      <point x="-651" y="1284" type="line"/>
      <point x="-633" y="1339"/>
      <point x="-586" y="1382"/>
      <point x="-543" y="1382" type="curve" smooth="yes"/>
      <point x="-420" y="1382"/>
      <point x="-397" y="1284"/>
      <point x="-289" y="1284" type="curve" smooth="yes" name="hr04"/>
      <point x="-150" y="1284"/>
      <point x="-53" y="1397"/>
    </contour>
    <contour>
      <point x="-286" y="1980" type="move" name="U"/>
    </contour>
    <contour>
      <point x="-443" y="1100" type="move" name="_U"/>
    </contour>
  </outline>
</glyph>
<glyph name="CombUpArrwBlw" format="1">
  <advance width="0"/>
  <unicode hex="034E"/>
  <outline>
    <contour>
      <point x="-563" y="-315" type="line" name="hr00"/>
      <point x="-699" y="-146" type="line"/>
      <point x="-899" y="-315" type="line"/>
      <point x="-783" y="-315" type="line"/>
      <point x="-831" y="-571" type="line"/>
      <point x="-728" y="-571" type="line"/>
      <point x="-680" y="-315" type="line"/>
    </contour>
    <contour>
      <point x="-763" y="-500" type="move" name="L"/>
    </contour>
    <contour>
      <point x="-687" y="-100" type="move" name="_L"/>
    </contour>
  </outline>
</glyph>
<glyph name="CombXBlw" format="1">
  <advance width="0"/>
  <unicode hex="0353"/>
  <outline>
    <contour>
      <point x="-609" y="-591" type="line" name="hr00"/>
      <point x="-526" y="-508" type="line"/>
      <point x="-661" y="-373" type="line"/>
      <point x="-528" y="-240" type="line"/>
      <point x="-611" y="-157" type="line"/>
      <point x="-744" y="-290" type="line"/>
      <point x="-878" y="-156" type="line"/>
      <point x="-961" y="-239" type="line"/>
      <point x="-826" y="-373" type="line"/>
      <point x="-963" y="-509" type="line"/>
      <point x="-880" y="-592" type="line"/>
      <point x="-744" y="-456" type="line"/>
    </contour>
    <contour>
      <point x="-763" y="-500" type="move" name="L"/>
    </contour>
    <contour>
      <point x="-687" y="-100" type="move" name="_L"/>
    </contour>
  </outline>
</glyph>
<glyph name="CombDblRingBlw" format="1">
  <advance width="0"/>
  <unicode hex="035A"/>
  <outline>
    <contour>
      <point x="-676" y="-334" type="curve" smooth="yes" name="hr00"/>
      <point x="-676" y="-211"/>
      <point x="-768" y="-125"/>
      <point x="-889" y="-125" type="curve" smooth="yes"/>
      <point x="-1051" y="-125"/>
      <point x="-1204" y="-272"/>
      <point x="-1204" y="-434" type="curve" smooth="yes"/>
      <point x="-1204" y="-557"/>
      <point x="-1112" y="-641"/>
      <point x="-991" y="-641" type="curve" smooth="yes"/>
      <point x="-830" y="-641"/>
      <point x="-676" y="-498"/>
    </contour>
    <contour>
      <point x="-807" y="-358" type="curve" smooth="yes"/>
      <point x="-807" y="-440"/>
      <point x="-885" y="-512"/>
      <point x="-967" y="-512" type="curve" smooth="yes"/>
      <point x="-1026" y="-512"/>
      <point x="-1071" y="-469"/>
      <point x="-1071" y="-410" type="curve" smooth="yes"/>
      <point x="-1071" y="-328"/>
      <point x="-996" y="-254"/>
      <point x="-914" y="-254" type="curve" smooth="yes"/>
      <point x="-854" y="-254"/>
      <point x="-807" y="-297"/>
    </contour>
    <contour>
      <point x="-286" y="-334" type="curve" smooth="yes"/>
      <point x="-286" y="-211"/>
      <point x="-378" y="-125"/>
      <point x="-499" y="-125" type="curve" smooth="yes"/>
      <point x="-661" y="-125"/>
      <point x="-814" y="-272"/>
      <point x="-814" y="-434" type="curve" smooth="yes"/>
      <point x="-814" y="-557"/>
      <point x="-722" y="-641"/>
      <point x="-601" y="-641" type="curve" smooth="yes"/>
      <point x="-440" y="-641"/>
      <point x="-286" y="-498"/>
    </contour>
    <contour>
      <point x="-417" y="-358" type="curve" smooth="yes"/>
      <point x="-417" y="-440"/>
      <point x="-495" y="-512"/>
      <point x="-577" y="-512" type="curve" smooth="yes"/>
      <point x="-636" y="-512"/>
      <point x="-681" y="-469"/>
      <point x="-681" y="-410" type="curve" smooth="yes"/>
      <point x="-681" y="-328"/>
      <point x="-606" y="-254"/>
      <point x="-524" y="-254" type="curve" smooth="yes"/>
      <point x="-464" y="-254"/>
      <point x="-417" y="-297"/>
    </contour>
    <contour>
      <point x="-790" y="-642" type="move" name="L"/>
    </contour>
    <contour>
      <point x="-687" y="-100" type="move" name="_L"/>
    </contour>
  </outline>
</glyph>
<glyph name="CombZigZagAbv" format="1">
  <advance width="0"/>
  <unicode hex="035B"/>
  <outline>
    <contour>
      <point x="-441" y="1523" type="line" name="hr00"/>
      <point x="-589" y="1243" type="line"/>
      <point x="-410" y="1243" type="line"/>
      <point x="-493" y="1083" type="line"/>
      <point x="-364" y="1083" type="line"/>
      <point x="-216" y="1363" type="line"/>
      <point x="-396" y="1363" type="line"/>
      <point x="-312" y="1523" type="line"/>
    </contour>
    <contour>
      <point x="-371" y="1540" type="move" name="U"/>
    </contour>
    <contour>
      <point x="-443" y="1100" type="move" name="_U"/>
    </contour>
  </outline>
</glyph>
<glyph name="CombDblMacron" format="1">
  <advance width="0"/>
  <unicode hex="035E"/>
  <outline>
    <contour>
      <point x="951" y="1795" type="line" name="hr00"/>
      <point x="-447" y="1795" type="line"/>
      <point x="-480" y="1630" type="line"/>
      <point x="920" y="1630" type="line"/>
    </contour>
    <contour>
      <point x="254" y="1905" type="move" name="U"/>
    </contour>
  </outline>
</glyph>
<glyph name="CombDblMacronBlw" format="1">
  <advance width="0"/>
  <unicode hex="035F"/>
  <outline>
    <contour>
      <point x="480" y="-546" type="line" name="hr00"/>
      <point x="-920" y="-546" type="line"/>
      <point x="-953" y="-711" type="line"/>
      <point x="447" y="-711" type="line"/>
    </contour>
    <contour>
      <point x="-244" y="-700" type="move" name="L"/>
    </contour>
  </outline>
</glyph>
<glyph name="CombDblInvBreve" format="1">
  <advance width="0"/>
  <unicode hex="0361"/>
  <outline>
    <contour>
      <point x="989" y="1621" type="line" name="hr00"/>
      <point x="909" y="1797"/>
      <point x="658" y="1893"/>
      <point x="273" y="1893" type="curve" smooth="yes"/>
      <point x="-115" y="1893"/>
      <point x="-407" y="1801"/>
      <point x="-562" y="1621" type="curve"/>
      <point x="-501" y="1553" type="line"/>
      <point x="-376" y="1686"/>
      <point x="-64" y="1715"/>
      <point x="228" y="1715" type="curve" smooth="yes"/>
      <point x="517" y="1715"/>
      <point x="831" y="1686"/>
      <point x="901" y="1553" type="curve"/>
    </contour>
    <contour>
      <point x="280" y="1905" type="move" name="U"/>
    </contour>
  </outline>
</glyph>
<glyph name="GrSmTheta" format="1">
  <advance width="1219"/>
  <unicode hex="03B8"/>
  <outline>
    <contour>
      <point x="1194" y="915" type="curve" smooth="yes" name="hr00"/>
      <point x="1194" y="1171"/>
      <point x="1122" y="1407"/>
      <point x="778" y="1407" type="curve" smooth="yes"/>
      <point x="264" y="1407"/>
      <point x="86" y="827"/>
      <point x="86" y="453" type="curve" smooth="yes"/>
      <point x="86" y="193"/>
      <point x="168" y="-25"/>
      <point x="502" y="-25" type="curve" smooth="yes"/>
      <point x="1012" y="-25"/>
      <point x="1194" y="545"/>
    </contour>
    <contour>
      <point x="899" y="1012" type="curve" smooth="yes"/>
      <point x="899" y="936"/>
      <point x="891" y="850"/>
      <point x="883" y="772" type="curve"/>
      <point x="428" y="772" type="line"/>
      <point x="489" y="993"/>
      <point x="588" y="1280"/>
      <point x="760" y="1280" type="curve" smooth="yes"/>
      <point x="893" y="1280"/>
      <point x="899" y="1155"/>
    </contour>
    <contour>
      <point x="862" y="655" type="line"/>
      <point x="811" y="416"/>
      <point x="698" y="100"/>
      <point x="520" y="100" type="curve" smooth="yes"/>
      <point x="360" y="100"/>
      <point x="377" y="297"/>
      <point x="377" y="408" type="curve" smooth="yes"/>
      <point x="377" y="494"/>
      <point x="391" y="584"/>
      <point x="403" y="655" type="curve"/>
    </contour>
    <contour>
      <point x="800" y="1540" type="move" name="U"/>
    </contour>
    <contour>
      <point x="484" y="-100" type="move" name="L"/>
    </contour>
  </outline>
</glyph>
<glyph name="GrSmMu" format="1">
  <advance width="1120"/>
  <unicode hex="03BC"/>
  <outline>
    <contour>
      <point x="610" y="129" type="line" smooth="yes" name="hr01"/>
      <point x="601" y="81"/>
      <point x="633" y="-25"/>
      <point x="801" y="-25" type="curve" smooth="yes" name="hr02"/>
      <point x="918" y="-25"/>
      <point x="1069" y="27"/>
      <point x="1124" y="57" type="curve"/>
      <point x="1124" y="172" type="line" name="hr03"/>
      <point x="1000" y="106"/>
      <point x="973" y="98"/>
      <point x="952" y="98" type="curve" smooth="yes"/>
      <point x="909" y="98"/>
      <point x="884" y="129"/>
      <point x="899" y="205" type="curve" smooth="yes"/>
      <point x="1054" y="999" type="line"/>
      <point x="781" y="999" type="line"/>
    </contour>
    <contour>
      <point x="-94" y="-422" type="line"/>
      <point x="189" y="-422" type="line"/>
      <point x="205" y="-342" type="line"/>
      <point x="201" y="-301"/>
      <point x="157" y="-155"/>
      <point x="145" y="1" type="curve" name="hr04"/>
      <point x="181" y="-16"/>
      <point x="227" y="-25"/>
      <point x="284" y="-25" type="curve" smooth="yes" name="hr05"/>
      <point x="429" y="-25"/>
      <point x="630" y="128"/>
      <point x="630" y="128" type="curve"/>
      <point x="638" y="202" type="line"/>
      <point x="638" y="202"/>
      <point x="546" y="162"/>
      <point x="467" y="162" type="curve" smooth="yes"/>
      <point x="307" y="162"/>
      <point x="319" y="289"/>
      <point x="338" y="389" type="curve" smooth="yes"/>
      <point x="458" y="999" type="line"/>
      <point x="185" y="999" type="line"/>
    </contour>
    <contour>
      <point x="648" y="1100" type="move" name="U"/>
    </contour>
    <contour>
      <point x="410" y="-100" type="move" name="L"/>
    </contour>
  </outline>
</glyph>
<glyph name="GrSmSigma" format="1">
  <advance width="1135"/>
  <unicode hex="03C3"/>
  <outline>
    <contour>
      <point x="1274" y="1063" type="curve" name="hr01"/>
      <point x="1167" y="1063" type="line"/>
      <point x="1151" y="1004"/>
      <point x="1118" y="993"/>
      <point x="1047" y="993" type="curve" smooth="yes"/>
      <point x="879" y="993"/>
      <point x="782" y="1024"/>
      <point x="655" y="1024" type="curve" smooth="yes" name="hr02"/>
      <point x="276" y="1024"/>
      <point x="66" y="692"/>
      <point x="66" y="371" type="curve" smooth="yes"/>
      <point x="66" y="143"/>
      <point x="195" y="-25"/>
      <point x="475" y="-25" type="curve" smooth="yes"/>
      <point x="848" y="-25"/>
      <point x="1069" y="299"/>
      <point x="1069" y="621" type="curve" smooth="yes"/>
      <point x="1069" y="707"/>
      <point x="1053" y="784"/>
      <point x="1018" y="848" type="curve" name="hr03"/>
      <point x="1042" y="838"/>
      <point x="1075" y="838"/>
      <point x="1092" y="838" type="curve" smooth="yes"/>
      <point x="1155" y="838"/>
      <point x="1253" y="920"/>
    </contour>
    <contour>
      <point x="774" y="629" type="curve" smooth="yes" name="hr04"/>
      <point x="774" y="377"/>
      <point x="643" y="88"/>
      <point x="500" y="88" type="curve" smooth="yes"/>
      <point x="453" y="88"/>
      <point x="358" y="168"/>
      <point x="358" y="379" type="curve" smooth="yes"/>
      <point x="358" y="655"/>
      <point x="508" y="915"/>
      <point x="633" y="915" type="curve" smooth="yes"/>
      <point x="684" y="915"/>
      <point x="774" y="829"/>
    </contour>
    <contour>
      <point x="620" y="1100" type="move" name="U"/>
    </contour>
    <contour>
      <point x="376" y="-100" type="move" name="L"/>
    </contour>
  </outline>
</glyph>
<glyph name="GrSmChi" format="1">
  <advance width="1370"/>
  <unicode hex="03C7"/>
  <outline>
    <contour>
      <point x="1419" y="987" type="line" name="hr00"/>
      <point x="1122" y="987" type="line"/>
      <point x="743" y="532" type="line"/>
      <point x="719" y="745" type="line" smooth="yes"/>
      <point x="700" y="909"/>
      <point x="623" y="1012"/>
      <point x="475" y="1012" type="curve" smooth="yes"/>
      <point x="258" y="1012"/>
      <point x="106" y="946"/>
      <point x="106" y="815" type="curve" smooth="yes"/>
      <point x="106" y="756"/>
      <point x="145" y="684"/>
      <point x="270" y="684" type="curve"/>
      <point x="406" y="893" type="line"/>
      <point x="481" y="893"/>
      <point x="518" y="850"/>
      <point x="535" y="698" type="curve" smooth="yes"/>
      <point x="578" y="326" type="line"/>
      <point x="-61" y="-446" type="line"/>
      <point x="238" y="-446" type="line"/>
      <point x="616" y="8" type="line"/>
      <point x="641" y="-205" type="line" smooth="yes"/>
      <point x="659" y="-369"/>
      <point x="737" y="-469"/>
      <point x="885" y="-469" type="curve" smooth="yes"/>
      <point x="1102" y="-469"/>
      <point x="1255" y="-406"/>
      <point x="1255" y="-274" type="curve" smooth="yes"/>
      <point x="1255" y="-213"/>
      <point x="1214" y="-143"/>
      <point x="1090" y="-143" type="curve"/>
      <point x="954" y="-350" type="line"/>
      <point x="874" y="-350"/>
      <point x="844" y="-309"/>
      <point x="825" y="-158" type="curve" smooth="yes"/>
      <point x="780" y="215" type="line"/>
    </contour>
    <contour>
      <point x="850" y="1100" type="move" name="U"/>
    </contour>
    <contour>
      <point x="530" y="-500" type="move" name="L"/>
    </contour>
  </outline>
</glyph>
<glyph name="CyCapSha" format="1">
  <advance width="2062"/>
  <unicode hex="0428"/>
  <outline>
    <contour>
      <point x="2154" y="1270" type="line" name="hr01"/>
      <point x="2154" y="1374" type="line"/>
      <point x="1571" y="1374" type="line"/>
      <point x="1571" y="1270" type="line"/>
      <point x="1655" y="1260" type="line" smooth="yes"/>
      <point x="1677" y="1255"/>
      <point x="1696" y="1241"/>
      <point x="1690" y="1214" type="curve" smooth="yes"/>
      <point x="1483" y="166" type="line" smooth="yes"/>
      <point x="1479" y="139"/>
      <point x="1452" y="121"/>
      <point x="1430" y="121" type="curve" smooth="yes"/>
      <point x="1141" y="121" type="line" smooth="yes"/>
      <point x="1116" y="121"/>
      <point x="1098" y="139"/>
      <point x="1104" y="166" type="curve" smooth="yes"/>
      <point x="1311" y="1214" type="line" smooth="yes"/>
      <point x="1317" y="1241"/>
      <point x="1341" y="1257"/>
      <point x="1366" y="1260" type="curve" smooth="yes"/>
      <point x="1473" y="1270" type="line"/>
      <point x="1473" y="1374" type="line"/>
      <point x="899" y="1374" type="line"/>
      <point x="899" y="1270" type="line"/>
      <point x="981" y="1260" type="line" smooth="yes"/>
      <point x="1006" y="1255"/>
      <point x="1024" y="1241"/>
      <point x="1018" y="1214" type="curve" smooth="yes"/>
      <point x="811" y="166" type="line" smooth="yes"/>
      <point x="805" y="139"/>
      <point x="780" y="121"/>
      <point x="758" y="121" type="curve" smooth="yes"/>
      <point x="469" y="121" type="line" smooth="yes"/>
      <point x="444" y="121"/>
      <point x="426" y="139"/>
      <point x="432" y="166" type="curve" smooth="yes"/>
      <point x="639" y="1214" type="line" smooth="yes"/>
      <point x="645" y="1241"/>
      <point x="670" y="1257"/>
      <point x="692" y="1260" type="curve" smooth="yes"/>
      <point x="801" y="1270" type="line"/>
      <point x="801" y="1374" type="line"/>
      <point x="217" y="1374" type="line"/>
      <point x="217" y="1270" type="line"/>
      <point x="309" y="1260" type="line" smooth="yes"/>
      <point x="334" y="1255"/>
      <point x="352" y="1241"/>
      <point x="346" y="1214" type="curve" smooth="yes"/>
      <point x="137" y="160" type="line" smooth="yes" name="hr02"/>
      <point x="133" y="133"/>
      <point x="109" y="117"/>
      <point x="84" y="115" type="curve" smooth="yes"/>
      <point x="-35" y="104" type="line"/>
      <point x="-35" y="0" type="line" name="hr03"/>
      <point x="1903" y="0" type="line"/>
      <point x="1903" y="104" type="line" name="hr04"/>
      <point x="1810" y="115" type="line" smooth="yes"/>
      <point x="1788" y="117"/>
      <point x="1769" y="133"/>
      <point x="1776" y="160" type="curve" smooth="yes"/>
      <point x="1982" y="1214" type="line" smooth="yes"/>
      <point x="1989" y="1241"/>
      <point x="2013" y="1257"/>
      <point x="2038" y="1260" type="curve" smooth="yes"/>
    </contour>
    <contour>
      <point x="1197" y="1500" type="move" name="U"/>
    </contour>
    <contour>
      <point x="909" y="-100" type="move" name="L"/>
    </contour>
  </outline>
</glyph>
<glyph name="CyCapHardSgn" format="1">
  <advance width="1446"/>
  <unicode hex="042A"/>
  <outline>
    <contour>
      <point x="1358" y="516" type="curve" smooth="yes" name="hr01"/>
      <point x="1358" y="733"/>
      <point x="1169" y="866"/>
      <point x="856" y="866" type="curve" smooth="yes"/>
      <point x="825" y="866"/>
      <point x="784" y="862"/>
      <point x="750" y="860" type="curve"/>
      <point x="819" y="1214" type="line" smooth="yes" name="hr02"/>
      <point x="825" y="1241"/>
      <point x="850" y="1257"/>
      <point x="874" y="1260" type="curve" smooth="yes"/>
      <point x="1012" y="1270" type="line"/>
      <point x="1012" y="1374" type="line" name="hr03"/>
      <point x="174" y="1374" type="line"/>
      <point x="96" y="981" type="line"/>
      <point x="248" y="981" type="line"/>
      <point x="330" y="1210" type="line" smooth="yes"/>
      <point x="340" y="1243"/>
      <point x="352" y="1251"/>
      <point x="377" y="1251" type="curve" smooth="yes"/>
      <point x="496" y="1251" type="line" smooth="yes"/>
      <point x="524" y="1251"/>
      <point x="532" y="1241"/>
      <point x="526" y="1210" type="curve" smooth="yes"/>
      <point x="319" y="160" type="line" smooth="yes"/>
      <point x="313" y="133"/>
      <point x="289" y="117"/>
      <point x="264" y="115" type="curve" smooth="yes"/>
      <point x="137" y="104" type="line"/>
      <point x="137" y="0" type="line" name="hr04"/>
      <point x="596" y="0"/>
      <point x="399" y="0"/>
      <point x="651" y="0" type="curve" smooth="yes"/>
      <point x="1016" y="0"/>
      <point x="1358" y="92"/>
    </contour>
    <contour>
      <point x="1044" y="532" type="curve" smooth="yes"/>
      <point x="1044" y="281"/>
      <point x="938" y="117"/>
      <point x="664" y="117" type="curve" smooth="yes"/>
      <point x="643" y="117"/>
      <point x="621" y="119"/>
      <point x="602" y="119" type="curve"/>
      <point x="727" y="741" type="line"/>
      <point x="754" y="745"/>
      <point x="797" y="750"/>
      <point x="815" y="750" type="curve" smooth="yes"/>
      <point x="954" y="750"/>
      <point x="1044" y="690"/>
    </contour>
    <contour>
      <point x="859" y="1500" type="move" name="U"/>
    </contour>
    <contour>
      <point x="571" y="-100" type="move" name="L"/>
    </contour>
  </outline>
</glyph>
<glyph name="CyCapYu" format="1">
  <advance width="2089"/>
  <unicode hex="042E"/>
  <outline>
    <contour>
      <point x="2050" y="854" type="curve" smooth="yes" name="hr01"/>
      <point x="2050" y="1145"/>
      <point x="1878" y="1407"/>
      <point x="1483" y="1407" type="curve" smooth="yes" name="hr02"/>
      <point x="1071" y="1407"/>
      <point x="815" y="1112"/>
      <point x="733" y="772" type="curve"/>
      <point x="555" y="772" type="line"/>
      <point x="641" y="1214" type="line" smooth="yes" name="hr03"/>
      <point x="647" y="1241"/>
      <point x="672" y="1257"/>
      <point x="696" y="1260" type="curve" smooth="yes"/>
      <point x="813" y="1270" type="line"/>
      <point x="813" y="1374" type="line"/>
      <point x="211" y="1374" type="line"/>
      <point x="211" y="1270" type="line"/>
      <point x="313" y="1260" type="line" smooth="yes"/>
      <point x="336" y="1257"/>
      <point x="354" y="1241"/>
      <point x="348" y="1214" type="curve" smooth="yes"/>
      <point x="141" y="160" type="line" smooth="yes"/>
      <point x="135" y="133"/>
      <point x="111" y="117"/>
      <point x="86" y="115" type="curve" smooth="yes"/>
      <point x="-31" y="104" type="line"/>
      <point x="-31" y="0" type="line"/>
      <point x="561" y="0" type="line"/>
      <point x="561" y="104" type="line"/>
      <point x="469" y="115" type="line" smooth="yes"/>
      <point x="446" y="117"/>
      <point x="428" y="133"/>
      <point x="434" y="160" type="curve" smooth="yes"/>
      <point x="524" y="623" type="line"/>
      <point x="711" y="623" type="line"/>
      <point x="709" y="594"/>
      <point x="707" y="565"/>
      <point x="707" y="539" type="curve" smooth="yes"/>
      <point x="707" y="207"/>
      <point x="897" y="-33"/>
      <point x="1278" y="-33" type="curve" smooth="yes" name="hr04"/>
      <point x="1812" y="-33"/>
      <point x="2050" y="434"/>
    </contour>
    <contour>
      <point x="1731" y="854" type="curve" smooth="yes" name="hr05"/>
      <point x="1731" y="498"/>
      <point x="1534" y="94"/>
      <point x="1292" y="94" type="curve" smooth="yes"/>
      <point x="1157" y="94"/>
      <point x="1024" y="240"/>
      <point x="1024" y="522" type="curve" smooth="yes"/>
      <point x="1024" y="891"/>
      <point x="1221" y="1284"/>
      <point x="1464" y="1284" type="curve" smooth="yes"/>
      <point x="1606" y="1284"/>
      <point x="1731" y="1128"/>
    </contour>
    <contour>
      <point x="1197" y="1500" type="move" name="U"/>
    </contour>
    <contour>
      <point x="909" y="-100" type="move" name="L"/>
    </contour>
  </outline>
</glyph>
<glyph name="CySmDze" format="1">
  <advance width="850"/>
  <unicode hex="0455"/>
  <outline>
    <contour>
      <point x="807" y="866" type="curve" smooth="yes" name="hr00"/>
      <point x="807" y="918"/>
      <point x="727" y="1024"/>
      <point x="557" y="1024" type="curve" smooth="yes"/>
      <point x="338" y="1024"/>
      <point x="143" y="901"/>
      <point x="143" y="709" type="curve" smooth="yes"/>
      <point x="143" y="606"/>
      <point x="227" y="516"/>
      <point x="313" y="451" type="curve" smooth="yes"/>
      <point x="414" y="375"/>
      <point x="481" y="317"/>
      <point x="481" y="233" type="curve" smooth="yes"/>
      <point x="481" y="137"/>
      <point x="440" y="76"/>
      <point x="358" y="76" type="curve" smooth="yes"/>
      <point x="303" y="76"/>
      <point x="219" y="98"/>
      <point x="190" y="139" type="curve"/>
      <point x="227" y="260" type="line"/>
      <point x="201" y="289"/>
      <point x="160" y="309"/>
      <point x="100" y="309" type="curve" smooth="yes"/>
      <point x="45" y="309"/>
      <point x="-14" y="242"/>
      <point x="-14" y="170" type="curve" smooth="yes"/>
      <point x="-14" y="72"/>
      <point x="82" y="-25"/>
      <point x="297" y="-25" type="curve" smooth="yes"/>
      <point x="604" y="-25"/>
      <point x="754" y="145"/>
      <point x="754" y="303" type="curve" smooth="yes"/>
      <point x="754" y="403"/>
      <point x="666" y="483"/>
      <point x="573" y="555" type="curve" smooth="yes"/>
      <point x="485" y="623"/>
      <point x="391" y="700"/>
      <point x="391" y="784" type="curve" smooth="yes"/>
      <point x="391" y="836"/>
      <point x="395" y="911"/>
      <point x="477" y="911" type="curve" smooth="yes"/>
      <point x="508" y="911"/>
      <point x="530" y="903"/>
      <point x="530" y="903" type="curve"/>
      <point x="635" y="725" type="line"/>
      <point x="760" y="733"/>
      <point x="807" y="774"/>
    </contour>
    <contour>
      <point x="548" y="1100" type="move" name="U"/>
    </contour>
    <contour>
      <point x="304" y="-100" type="move" name="L"/>
    </contour>
  </outline>
</glyph>
<glyph name="CySmDzhe" format="1">
  <advance width="1176"/>
  <unicode hex="045F"/>
  <outline>
    <contour>
      <point x="612" y="0" type="line" name="hr00"/>
      <point x="523" y="-64"/>
      <point x="452" y="-125"/>
      <point x="452" y="-137" type="curve" smooth="yes"/>
      <point x="452" y="-170"/>
      <point x="487" y="-227"/>
      <point x="487" y="-260" type="curve" smooth="yes"/>
      <point x="487" y="-291"/>
      <point x="415" y="-344"/>
      <point x="415" y="-344" type="curve"/>
      <point x="454" y="-428" type="line"/>
      <point x="454" y="-428"/>
      <point x="669" y="-283"/>
      <point x="669" y="-238" type="curve" smooth="yes"/>
      <point x="669" y="-154"/>
      <point x="624" y="-139"/>
      <point x="624" y="-115" type="curve" smooth="yes"/>
      <point x="624" y="-106"/>
      <point x="648" y="-39"/>
      <point x="676" y="0" type="curve"/>
    </contour>
    <contour>
      <point x="735" y="1100" type="move" name="U"/>
    </contour>
    <contour>
      <point x="415" y="-500" type="move" name="L"/>
    </contour>
    <component base="CySmI"/>
  </outline>
</glyph>
<glyph name="CyCapIzhitsa" format="1">
  <advance width="1499"/>
  <unicode hex="0474"/>
  <outline>
    <contour>
      <point x="733" y="-33" type="line" name="hr01"/>
      <point x="1143" y="1017"/>
      <point x="1355" y="1255"/>
      <point x="1454" y="1275" type="curve"/>
      <point x="1581" y="1153" type="line"/>
      <point x="1645" y="1159"/>
      <point x="1741" y="1187"/>
      <point x="1741" y="1286" type="curve" smooth="yes"/>
      <point x="1741" y="1345"/>
      <point x="1698" y="1427"/>
      <point x="1556" y="1427" type="curve" smooth="yes"/>
      <point x="1302" y="1427"/>
      <point x="1110" y="1288"/>
      <point x="725" y="383" type="curve" name="hr02"/>
      <point x="592" y="1237" type="line" smooth="yes"/>
      <point x="588" y="1262"/>
      <point x="606" y="1268"/>
      <point x="629" y="1268" type="curve" smooth="yes"/>
      <point x="629" y="1268"/>
      <point x="678" y="1268"/>
      <point x="721" y="1270" type="curve"/>
      <point x="721" y="1374" type="line"/>
      <point x="170" y="1374" type="line"/>
      <point x="170" y="1270" type="line"/>
      <point x="205" y="1268"/>
      <point x="250" y="1266"/>
      <point x="250" y="1266" type="curve"/>
      <point x="272" y="1266"/>
      <point x="293" y="1262"/>
      <point x="297" y="1235" type="curve" smooth="yes"/>
      <point x="498" y="-33" type="line"/>
    </contour>
    <contour>
      <point x="797" y="0" type="move" name="O"/>
    </contour>
    <contour>
      <point x="633" y="0" type="move" name="H"/>
    </contour>
    <contour>
      <point x="901" y="1500" type="move" name="U"/>
    </contour>
    <contour>
      <point x="613" y="-100" type="move" name="L"/>
    </contour>
  </outline>
</glyph>
<glyph name="CyCapShortITail" format="1">
  <advance width="1536"/>
  <unicode hex="048A"/>
  <outline>
    <contour>
      <point x="1206" y="102" type="line" name="hr01"/>
      <point x="1206" y="0" type="line"/>
      <point x="975" y="-340" type="line"/>
      <point x="975" y="-340"/>
      <point x="1145" y="-341"/>
      <point x="1145" y="-340" type="curve" smooth="yes"/>
      <point x="1145" y="-339"/>
      <point x="1376" y="0"/>
      <point x="1376" y="0" type="curve"/>
      <point x="1376" y="102" type="line"/>
    </contour>
    <contour>
      <point x="1007" y="1907" type="move" name="U"/>
    </contour>
    <contour>
      <point x="646" y="-100" type="move" name="L"/>
    </contour>
    <component base="CyCapI"/>
    <component base="CombBreve.CyShortMrkAlt.UCHt" xOffset="1517"/>
  </outline>
</glyph>
<glyph name="CySmShortITail" format="1">
  <advance width="1176"/>
  <unicode hex="048B"/>
  <outline>
    <contour>
      <point x="971" y="52" type="line" name="hr00"/>
      <point x="971" y="0" type="line"/>
      <point x="740" y="-310" type="line"/>
      <point x="740" y="-310"/>
      <point x="900" y="-311"/>
      <point x="900" y="-310" type="curve" smooth="yes"/>
      <point x="900" y="-309"/>
      <point x="1171" y="58"/>
      <point x="1171" y="58" type="curve"/>
      <point x="1131" y="102" type="line"/>
    </contour>
    <contour>
      <point x="779" y="1500" type="move" name="U"/>
    </contour>
    <contour>
      <point x="491" y="-100" type="move" name="L"/>
    </contour>
    <component base="CySmI"/>
    <component base="CombBreve.CyShortMrkAlt" xOffset="1130"/>
  </outline>
</glyph>
<glyph name="CyCapSemisoftSgn" format="1">
  <advance width="1243"/>
  <unicode hex="048C"/>
  <outline>
    <contour>
      <point x="1176" y="520" type="curve" smooth="yes" name="hr01"/>
      <point x="1176" y="739"/>
      <point x="987" y="866"/>
      <point x="676" y="866" type="curve" smooth="yes"/>
      <point x="645" y="866"/>
      <point x="602" y="862"/>
      <point x="569" y="860" type="curve"/>
      <point x="701" y="1534" type="line"/>
      <point x="408" y="1534" type="line"/>
      <point x="137" y="160" type="line" name="hr02"/>
      <point x="133" y="133"/>
      <point x="109" y="117"/>
      <point x="84" y="115" type="curve" smooth="yes"/>
      <point x="-43" y="104" type="line"/>
      <point x="-43" y="0" type="line" name="hr03"/>
      <point x="416" y="0"/>
      <point x="217" y="0"/>
      <point x="471" y="0" type="curve" smooth="yes"/>
      <point x="840" y="0"/>
      <point x="1176" y="94"/>
    </contour>
    <contour>
      <point x="862" y="512" type="curve" smooth="yes"/>
      <point x="862" y="268"/>
      <point x="739" y="117"/>
      <point x="483" y="117" type="curve" smooth="yes"/>
      <point x="461" y="117"/>
      <point x="438" y="119"/>
      <point x="422" y="119" type="curve"/>
      <point x="547" y="741" type="line"/>
      <point x="573" y="745"/>
      <point x="614" y="750"/>
      <point x="635" y="750" type="curve" smooth="yes"/>
      <point x="780" y="750"/>
      <point x="862" y="684"/>
    </contour>
    <contour>
      <point x="157" y="1237" type="line"/>
      <point x="871" y="1237" type="line"/>
      <point x="871" y="1374" type="line"/>
      <point x="157" y="1374" type="line"/>
    </contour>
    <contour>
      <point x="789" y="1540" type="move" name="U"/>
    </contour>
    <contour>
      <point x="473" y="-100" type="move" name="L"/>
    </contour>
  </outline>
</glyph>
<glyph name="CyCapLigEnGhe" format="1">
  <advance width="1806"/>
  <unicode hex="04A4"/>
  <outline>
    <contour>
      <point x="1657" y="1302" type="line" name="hr01"/>
      <point x="1657" y="1374" type="line" name="hr02"/>
      <point x="1038" y="1374" type="line"/>
      <point x="1038" y="1272" type="line"/>
      <point x="1092" y="1266"/>
      <point x="1153" y="1264"/>
      <point x="1153" y="1264" type="curve"/>
      <point x="1186" y="1262"/>
      <point x="1200" y="1255"/>
      <point x="1196" y="1231" type="curve" smooth="yes"/>
      <point x="1108" y="780" type="line"/>
      <point x="555" y="780" type="line"/>
      <point x="643" y="1229" type="line" smooth="yes"/>
      <point x="647" y="1253"/>
      <point x="659" y="1260"/>
      <point x="686" y="1262" type="curve"/>
      <point x="686" y="1262"/>
      <point x="750" y="1266"/>
      <point x="813" y="1272" type="curve"/>
      <point x="813" y="1374" type="line"/>
      <point x="195" y="1374" type="line"/>
      <point x="195" y="1272" type="line"/>
      <point x="252" y="1266"/>
      <point x="311" y="1262"/>
      <point x="311" y="1262" type="curve"/>
      <point x="340" y="1260"/>
      <point x="354" y="1255"/>
      <point x="350" y="1231" type="curve" smooth="yes"/>
      <point x="137" y="145" type="line" smooth="yes"/>
      <point x="133" y="121"/>
      <point x="121" y="115"/>
      <point x="92" y="113" type="curve"/>
      <point x="92" y="113"/>
      <point x="31" y="109"/>
      <point x="-31" y="102" type="curve"/>
      <point x="-31" y="0" type="line"/>
      <point x="588" y="0" type="line"/>
      <point x="588" y="102" type="line"/>
      <point x="528" y="109"/>
      <point x="467" y="113"/>
      <point x="467" y="113" type="curve"/>
      <point x="432" y="115"/>
      <point x="426" y="119"/>
      <point x="430" y="143" type="curve" smooth="yes"/>
      <point x="530" y="657" type="line"/>
      <point x="1083" y="657" type="line"/>
      <point x="983" y="145" type="line" smooth="yes"/>
      <point x="979" y="121"/>
      <point x="963" y="115"/>
      <point x="938" y="113" type="curve"/>
      <point x="938" y="113"/>
      <point x="874" y="109"/>
      <point x="811" y="102" type="curve"/>
      <point x="811" y="0" type="line"/>
      <point x="1432" y="0" type="line"/>
      <point x="1432" y="102" type="line"/>
      <point x="1372" y="109"/>
      <point x="1311" y="113"/>
      <point x="1311" y="113" type="curve"/>
      <point x="1284" y="115"/>
      <point x="1272" y="121"/>
      <point x="1276" y="143" type="curve" smooth="yes"/>
      <point x="1498" y="1279" type="line" smooth="yes" name="hr03"/>
      <point x="1502" y="1297"/>
      <point x="1510" y="1307"/>
      <point x="1535" y="1310" type="curve" smooth="yes"/>
    </contour>
    <contour>
      <point x="1446" y="1262" type="line" name="hr04"/>
      <point x="1669" y="1262" type="line" smooth="yes"/>
      <point x="1689" y="1262"/>
      <point x="1716" y="1253"/>
      <point x="1714" y="1235" type="curve"/>
      <point x="1704" y="1016" type="line"/>
      <point x="1863" y="1016" type="line"/>
      <point x="1937" y="1374" type="line"/>
      <point x="1452" y="1374" type="line"/>
    </contour>
    <contour>
      <point x="944" y="1500" type="move" name="U"/>
    </contour>
    <contour>
      <point x="656" y="-100" type="move" name="L"/>
    </contour>
  </outline>
</glyph>
<glyph name="CySmLigEnGhe" format="1">
  <advance width="1422"/>
  <unicode hex="04A5"/>
  <outline>
    <contour>
      <point x="1178" y="66" type="curve" name="hr01"/>
      <point x="1178" y="174" type="line"/>
      <point x="1155" y="168"/>
      <point x="1020" y="106"/>
      <point x="997" y="106" type="curve" smooth="yes"/>
      <point x="948" y="106"/>
      <point x="948" y="150"/>
      <point x="958" y="199" type="curve" smooth="yes"/>
      <point x="1114" y="999" type="line"/>
      <point x="842" y="999" type="line"/>
      <point x="756" y="559" type="line"/>
      <point x="422" y="559" type="line"/>
      <point x="510" y="1024" type="line" name="hr02"/>
      <point x="369" y="1024" type="line"/>
      <point x="43" y="956" type="line"/>
      <point x="43" y="885" type="line"/>
      <point x="207" y="868" type="line"/>
      <point x="39" y="0" type="line"/>
      <point x="313" y="0" type="line"/>
      <point x="397" y="444" type="line"/>
      <point x="733" y="444" type="line"/>
      <point x="682" y="182" type="line" smooth="yes"/>
      <point x="664" y="84"/>
      <point x="717" y="-25"/>
      <point x="864" y="-25" type="curve" smooth="yes" name="hr03"/>
      <point x="983" y="-25"/>
      <point x="1069" y="20"/>
    </contour>
    <contour>
      <point x="1229" y="881" type="line" name="hr04"/>
      <point x="1255" y="881"/>
      <point x="1257" y="872"/>
      <point x="1257" y="842" type="curve"/>
      <point x="1254" y="696" type="line"/>
      <point x="1360" y="696" type="line"/>
      <point x="1422" y="999" type="line"/>
      <point x="965" y="999" type="line"/>
      <point x="932" y="881" type="line"/>
    </contour>
    <contour>
      <point x="758" y="1100" type="move" name="U"/>
    </contour>
    <contour>
      <point x="514" y="-100" type="move" name="L"/>
    </contour>
  </outline>
</glyph>
<glyph name="CyCapAbkhasCheDesc" format="1">
  <advance width="1685"/>
  <unicode hex="04BE"/>
  <outline>
    <contour>
      <point x="666" y="128" type="line" name="hr00"/>
      <point x="720" y="40" type="line"/>
      <point x="822" y="-10"/>
      <point x="857" y="-93"/>
      <point x="780" y="-420" type="curve"/>
      <point x="940" y="-420" type="line"/>
      <point x="1002" y="-92"/>
      <point x="1044" y="-16"/>
      <point x="1216" y="40" type="curve"/>
      <point x="1266" y="128" type="line"/>
    </contour>
    <contour>
      <point x="1246" y="1500" type="move" name="U"/>
    </contour>
    <contour>
      <point x="850" y="-500" type="move" name="L"/>
    </contour>
    <component base="CyCapAbkhasChe"/>
  </outline>
</glyph>
<glyph name="CySmAbkhasCheDesc" format="1">
  <advance width="1260"/>
  <unicode hex="04BF"/>
  <outline>
    <contour>
      <point x="576" y="-428" type="line" name="hr01"/>
      <point x="576" y="-428"/>
      <point x="791" y="-283"/>
      <point x="791" y="-238" type="curve" smooth="yes" name="hr02"/>
      <point x="791" y="-154"/>
      <point x="746" y="-139"/>
      <point x="746" y="-115" type="curve" smooth="yes"/>
      <point x="746" y="-102"/>
      <point x="797" y="0"/>
      <point x="894" y="76" type="curve"/>
      <point x="859" y="74"/>
      <point x="834" y="68"/>
      <point x="793" y="73" type="curve"/>
      <point x="684" y="-4"/>
      <point x="574" y="-121"/>
      <point x="574" y="-137" type="curve" smooth="yes"/>
      <point x="574" y="-170"/>
      <point x="609" y="-227"/>
      <point x="609" y="-260" type="curve" smooth="yes"/>
      <point x="609" y="-291"/>
      <point x="537" y="-344"/>
      <point x="537" y="-344" type="curve"/>
    </contour>
    <contour>
      <point x="883" y="1100" type="move" name="U"/>
    </contour>
    <contour>
      <point x="660" y="-400" type="move" name="L"/>
    </contour>
    <component base="CySmAbkhasChe"/>
  </outline>
</glyph>
<glyph name="CyCapElTail" format="1">
  <advance width="1497"/>
  <unicode hex="04C5"/>
  <outline>
    <contour>
      <point x="1587" y="1270" type="line" name="hr01"/>
      <point x="1587" y="1374" type="line" name="hr02"/>
      <point x="457" y="1374" type="line"/>
      <point x="457" y="1270" type="line" name="hr03"/>
      <point x="584" y="1255" type="line" smooth="yes" name="hr04"/>
      <point x="616" y="1251"/>
      <point x="621" y="1241"/>
      <point x="616" y="1214" type="curve" smooth="yes"/>
      <point x="545" y="852"/>
      <point x="422" y="426"/>
      <point x="340" y="293" type="curve" smooth="yes"/>
      <point x="307" y="242"/>
      <point x="281" y="174"/>
      <point x="252" y="158" type="curve"/>
      <point x="100" y="291" type="line"/>
      <point x="8" y="291"/>
      <point x="-100" y="199"/>
      <point x="-100" y="131" type="curve" smooth="yes"/>
      <point x="-100" y="53"/>
      <point x="-29" y="-33"/>
      <point x="47" y="-33" type="curve" smooth="yes"/>
      <point x="254" y="-33"/>
      <point x="375" y="41"/>
      <point x="500" y="225" type="curve" smooth="yes"/>
      <point x="590" y="360"/>
      <point x="707" y="721"/>
      <point x="811" y="1251" type="curve" name="hr05"/>
      <point x="1133" y="1251" type="line"/>
      <point x="915" y="160" type="line" smooth="yes"/>
      <point x="911" y="133"/>
      <point x="887" y="117"/>
      <point x="862" y="115" type="curve" smooth="yes"/>
      <point x="743" y="104" type="line"/>
      <point x="743" y="0" type="line" name="hr06"/>
      <point x="1337" y="0" type="line"/>
      <point x="1337" y="104" type="line" name="hr07"/>
      <point x="1245" y="115" type="line" smooth="yes"/>
      <point x="1223" y="117"/>
      <point x="1204" y="133"/>
      <point x="1208" y="160" type="curve" smooth="yes"/>
      <point x="1417" y="1214" type="line" smooth="yes"/>
      <point x="1421" y="1241"/>
      <point x="1448" y="1257"/>
      <point x="1470" y="1260" type="curve" smooth="yes"/>
    </contour>
    <contour>
      <point x="1167" y="82" type="line" name="hr08"/>
      <point x="1167" y="0" type="line"/>
      <point x="936" y="-340" type="line"/>
      <point x="1106" y="-340" type="line"/>
      <point x="1337" y="0" type="line"/>
      <point x="1337" y="82" type="line"/>
    </contour>
    <contour>
      <point x="1050" y="1500" type="move" name="U"/>
    </contour>
    <contour>
      <point x="540" y="-360" type="move" name="L"/>
    </contour>
  </outline>
</glyph>
<glyph name="CySmEnTail" format="1">
  <advance width="1178"/>
  <unicode hex="04CA"/>
  <outline>
    <contour>
      <point x="1178" y="66" type="curve" name="hr01"/>
      <point x="1178" y="174" type="line" name="hr02"/>
      <point x="1155" y="168"/>
      <point x="1020" y="106"/>
      <point x="997" y="106" type="curve" smooth="yes"/>
      <point x="948" y="106"/>
      <point x="948" y="150"/>
      <point x="958" y="199" type="curve" smooth="yes"/>
      <point x="1114" y="999" type="line"/>
      <point x="842" y="999" type="line"/>
      <point x="756" y="559" type="line"/>
      <point x="422" y="559" type="line"/>
      <point x="510" y="1024" type="line" name="hr03"/>
      <point x="369" y="1024" type="line"/>
      <point x="43" y="956" type="line"/>
      <point x="43" y="885" type="line"/>
      <point x="207" y="868" type="line"/>
      <point x="39" y="0" type="line"/>
      <point x="313" y="0" type="line"/>
      <point x="397" y="444" type="line"/>
      <point x="733" y="444" type="line"/>
      <point x="682" y="182" type="line" smooth="yes"/>
      <point x="664" y="84"/>
      <point x="717" y="-25"/>
      <point x="864" y="-25" type="curve" smooth="yes" name="hr04"/>
      <point x="983" y="-25"/>
      <point x="1069" y="20"/>
    </contour>
    <contour>
      <point x="970" y="52" type="line"/>
      <point x="970" y="0" type="line"/>
      <point x="739" y="-310" type="line"/>
      <point x="739" y="-310"/>
      <point x="899" y="-311"/>
      <point x="899" y="-310" type="curve" smooth="yes"/>
      <point x="899" y="-309"/>
      <point x="1178" y="66"/>
      <point x="1178" y="66" type="curve"/>
      <point x="1130" y="102" type="line"/>
    </contour>
    <contour>
      <point x="731" y="1100" type="move" name="U"/>
    </contour>
    <contour>
      <point x="487" y="-100" type="move" name="L"/>
    </contour>
  </outline>
</glyph>
<glyph name="CyCapEmTail" format="1">
  <advance width="1823"/>
  <unicode hex="04CD"/>
  <outline>
    <contour>
      <point x="1935" y="1272" type="line" name="hr01"/>
      <point x="1935" y="1374" type="line" name="hr02"/>
      <point x="1376" y="1374" type="line"/>
      <point x="1376" y="1298" type="line"/>
      <point x="895" y="446" type="line"/>
      <point x="739" y="1307" type="line"/>
      <point x="739" y="1374" type="line"/>
      <point x="195" y="1374" type="line"/>
      <point x="195" y="1272" type="line"/>
      <point x="252" y="1266"/>
      <point x="313" y="1262"/>
      <point x="313" y="1262" type="curve"/>
      <point x="340" y="1260"/>
      <point x="354" y="1255"/>
      <point x="350" y="1231" type="curve" smooth="yes"/>
      <point x="139" y="145" type="line" smooth="yes"/>
      <point x="133" y="119"/>
      <point x="115" y="115"/>
      <point x="86" y="113" type="curve"/>
      <point x="86" y="113"/>
      <point x="27" y="109"/>
      <point x="-29" y="102" type="curve"/>
      <point x="-29" y="0" type="line" name="hr03"/>
      <point x="526" y="0" type="line"/>
      <point x="526" y="102" type="line" name="hr04"/>
      <point x="463" y="109"/>
      <point x="401" y="113"/>
      <point x="401" y="113" type="curve"/>
      <point x="383" y="115"/>
      <point x="367" y="121"/>
      <point x="373" y="143" type="curve"/>
      <point x="518" y="922" type="line"/>
      <point x="684" y="0" type="line" name="hr05"/>
      <point x="885" y="0" type="line"/>
      <point x="1417" y="936" type="line"/>
      <point x="1264" y="145" type="line" smooth="yes" name="hr06"/>
      <point x="1260" y="121"/>
      <point x="1241" y="113"/>
      <point x="1219" y="113" type="curve" smooth="yes"/>
      <point x="1219" y="113"/>
      <point x="1155" y="109"/>
      <point x="1094" y="102" type="curve"/>
      <point x="1094" y="0" type="line" name="hr07"/>
      <point x="1712" y="0" type="line"/>
      <point x="1712" y="102" type="line" name="hr08"/>
      <point x="1655" y="109"/>
      <point x="1593" y="113"/>
      <point x="1593" y="113" type="curve"/>
      <point x="1567" y="115"/>
      <point x="1552" y="119"/>
      <point x="1556" y="143" type="curve" smooth="yes"/>
      <point x="1767" y="1229" type="line" smooth="yes"/>
      <point x="1772" y="1247"/>
      <point x="1778" y="1255"/>
      <point x="1796" y="1257" type="curve" smooth="yes"/>
    </contour>
    <contour>
      <point x="1542" y="82" type="line" name="hr09"/>
      <point x="1542" y="0" type="line"/>
      <point x="1311" y="-340" type="line"/>
      <point x="1481" y="-340" type="line"/>
      <point x="1712" y="0" type="line"/>
      <point x="1712" y="82" type="line"/>
    </contour>
    <contour>
      <point x="1091" y="1500" type="move" name="U"/>
    </contour>
    <contour>
      <point x="803" y="-100" type="move" name="L"/>
    </contour>
  </outline>
</glyph>
<glyph name="CyCapAbkhasDze" format="1">
  <advance width="1260"/>
  <unicode hex="04E0"/>
  <outline>
    <contour>
      <point x="1314" y="1374" type="line" name="hr00"/>
      <point x="305" y="1374" type="line"/>
      <point x="195" y="801" type="line"/>
      <point x="343" y="801" type="line"/>
      <point x="409" y="1059" type="line"/>
      <point x="415" y="1081"/>
      <point x="444" y="1114"/>
      <point x="466" y="1114" type="curve" smooth="yes"/>
      <point x="944" y="1114" type="line"/>
      <point x="537" y="765" type="line"/>
      <point x="596" y="698" type="line"/>
      <point x="602" y="705"/>
      <point x="628" y="718"/>
      <point x="693" y="718" type="curve" smooth="yes"/>
      <point x="825" y="718"/>
      <point x="918" y="640"/>
      <point x="880" y="442" type="curve" smooth="yes"/>
      <point x="838" y="225"/>
      <point x="728" y="108"/>
      <point x="534" y="106" type="curve" smooth="yes"/>
      <point x="438" y="105"/>
      <point x="351" y="138"/>
      <point x="303" y="171" type="curve"/>
      <point x="312" y="454" type="line"/>
      <point x="290" y="469"/>
      <point x="256" y="487"/>
      <point x="215" y="485" type="curve"/>
      <point x="142" y="485"/>
      <point x="38" y="446"/>
      <point x="10" y="301" type="curve" smooth="yes"/>
      <point x="-23" y="129"/>
      <point x="182" y="-33"/>
      <point x="489" y="-33" type="curve" smooth="yes"/>
      <point x="851" y="-33"/>
      <point x="1141" y="128"/>
      <point x="1203" y="452" type="curve" smooth="yes"/>
      <point x="1245" y="675"/>
      <point x="1093" y="847"/>
      <point x="802" y="847" type="curve"/>
      <point x="1293" y="1266" type="line"/>
    </contour>
    <contour>
      <point x="820" y="1500" type="move" name="U"/>
    </contour>
    <contour>
      <point x="500" y="-100" type="move" name="L"/>
    </contour>
  </outline>
</glyph>
<glyph name="CySmKomiLje" format="1">
  <advance width="1607"/>
  <unicode hex="0509"/>
  <outline>
    <contour>
      <point x="1106" y="852" type="line" name="hr00"/>
      <point x="1110" y="874"/>
      <point x="1120" y="883"/>
      <point x="1135" y="885" type="curve"/>
      <point x="1257" y="891" type="line"/>
      <point x="1257" y="987" type="line"/>
      <point x="281" y="987" type="line"/>
      <point x="281" y="891" type="line"/>
      <point x="324" y="887"/>
      <point x="373" y="885"/>
      <point x="373" y="885" type="curve"/>
      <point x="399" y="883"/>
      <point x="410" y="872"/>
      <point x="403" y="844" type="curve" smooth="yes"/>
      <point x="350" y="584"/>
      <point x="270" y="305"/>
      <point x="207" y="211" type="curve" smooth="yes"/>
      <point x="201" y="203"/>
      <point x="168" y="141"/>
      <point x="143" y="141" type="curve"/>
      <point x="35" y="231" type="line"/>
      <point x="-72" y="231"/>
      <point x="-121" y="150"/>
      <point x="-121" y="86" type="curve" smooth="yes"/>
      <point x="-121" y="0"/>
      <point x="-51" y="-25"/>
      <point x="10" y="-25" type="curve" smooth="yes"/>
      <point x="125" y="-25"/>
      <point x="240" y="0"/>
      <point x="344" y="133" type="curve" smooth="yes"/>
      <point x="426" y="238"/>
      <point x="510" y="494"/>
      <point x="586" y="868" type="curve"/>
      <point x="836" y="868" type="line"/>
      <point x="716" y="275" type="line" smooth="yes"/>
      <point x="677" y="72"/>
      <point x="773" y="-25"/>
      <point x="1020" y="-25" type="curve" smooth="yes"/>
      <point x="1307" y="-25"/>
      <point x="1452" y="178"/>
      <point x="1473" y="284" type="curve" smooth="yes"/>
      <point x="1527" y="559" type="line"/>
      <point x="1255" y="559" type="line"/>
      <point x="1197" y="264" type="line"/>
      <point x="1171" y="145"/>
      <point x="1119" y="106"/>
      <point x="1063" y="106" type="curve" smooth="yes"/>
      <point x="999" y="106"/>
      <point x="963" y="147"/>
      <point x="986" y="263" type="curve"/>
    </contour>
    <contour>
      <point x="861" y="1100" type="move" name="U"/>
    </contour>
    <contour>
      <point x="617" y="-100" type="move" name="L"/>
    </contour>
  </outline>
</glyph>
<glyph name="CyCapElHook" format="1">
  <advance width="1497"/>
  <unicode hex="0512"/>
  <outline>
    <contour>
      <point x="1133" y="1251" type="line" name="hr00"/>
      <point x="901" y="88" type="line" smooth="yes"/>
      <point x="851" y="-163"/>
      <point x="771" y="-282"/>
      <point x="616" y="-282" type="curve" smooth="yes"/>
      <point x="576" y="-282"/>
      <point x="546" y="-277"/>
      <point x="500" y="-270" type="curve"/>
      <point x="500" y="-386" type="line"/>
      <point x="541" y="-398"/>
      <point x="601" y="-409"/>
      <point x="642" y="-408" type="curve" smooth="yes"/>
      <point x="898" y="-401"/>
      <point x="1130" y="-242"/>
      <point x="1202" y="122" type="curve" smooth="yes"/>
      <point x="1417" y="1214" type="line"/>
      <point x="1421" y="1241"/>
      <point x="1448" y="1257"/>
      <point x="1470" y="1260" type="curve"/>
      <point x="1587" y="1270" type="line"/>
      <point x="1587" y="1374" type="line"/>
      <point x="457" y="1374" type="line"/>
      <point x="457" y="1270" type="line"/>
      <point x="584" y="1255" type="line" smooth="yes"/>
      <point x="616" y="1251"/>
      <point x="621" y="1241"/>
      <point x="616" y="1214" type="curve" smooth="yes"/>
      <point x="545" y="852"/>
      <point x="422" y="426"/>
      <point x="340" y="293" type="curve"/>
      <point x="307" y="242"/>
      <point x="281" y="174"/>
      <point x="252" y="158" type="curve"/>
      <point x="100" y="291" type="line"/>
      <point x="8" y="291"/>
      <point x="-100" y="199"/>
      <point x="-100" y="131" type="curve" smooth="yes"/>
      <point x="-100" y="53"/>
      <point x="-29" y="-33"/>
      <point x="47" y="-33" type="curve" smooth="yes"/>
      <point x="254" y="-33"/>
      <point x="375" y="41"/>
      <point x="500" y="225" type="curve"/>
      <point x="590" y="360"/>
      <point x="707" y="721"/>
      <point x="811" y="1251" type="curve"/>
    </contour>
    <contour>
      <point x="1050" y="1500" type="move" name="U"/>
    </contour>
    <contour>
      <point x="513" y="-500" type="move" name="L"/>
    </contour>
  </outline>
</glyph>
<glyph name="CyCapLha" format="1">
  <advance width="2082"/>
  <unicode hex="0514"/>
  <outline>
    <contour>
      <point x="1447" y="1374" type="line" name="hr01"/>
      <point x="457" y="1374" type="line"/>
      <point x="457" y="1270" type="line" name="hr02"/>
      <point x="584" y="1255" type="line" smooth="yes"/>
      <point x="616" y="1251"/>
      <point x="621" y="1241"/>
      <point x="616" y="1214" type="curve" smooth="yes"/>
      <point x="545" y="852"/>
      <point x="422" y="426"/>
      <point x="340" y="293" type="curve" smooth="yes"/>
      <point x="307" y="242"/>
      <point x="281" y="174"/>
      <point x="252" y="158" type="curve"/>
      <point x="100" y="291" type="line"/>
      <point x="8" y="291"/>
      <point x="-100" y="199"/>
      <point x="-100" y="131" type="curve" smooth="yes"/>
      <point x="-100" y="53"/>
      <point x="-29" y="-33"/>
      <point x="47" y="-33" type="curve" smooth="yes"/>
      <point x="254" y="-33"/>
      <point x="375" y="41"/>
      <point x="500" y="225" type="curve" smooth="yes"/>
      <point x="590" y="360"/>
      <point x="707" y="721"/>
      <point x="811" y="1251" type="curve" name="hr03"/>
      <point x="1133" y="1251" type="line"/>
    </contour>
    <contour>
      <point x="2175" y="1272" type="line" name="hr04"/>
      <point x="2175" y="1374" type="line" name="hr05"/>
      <point x="1626" y="1374" type="line"/>
      <point x="1626" y="1272" type="line" name="hr06"/>
      <point x="1736" y="1262" type="line" smooth="yes"/>
      <point x="1763" y="1260"/>
      <point x="1755" y="1243"/>
      <point x="1744" y="1233" type="curve"/>
      <point x="1464" y="920" type="line"/>
      <point x="1325" y="1233" type="line" smooth="yes" name="hr07"/>
      <point x="1314" y="1257"/>
      <point x="1335" y="1264"/>
      <point x="1353" y="1264" type="curve" smooth="yes"/>
      <point x="1353" y="1264"/>
      <point x="1423" y="1266"/>
      <point x="1488" y="1272" type="curve"/>
      <point x="1488" y="1374" type="line" name="hr08"/>
      <point x="870" y="1374" type="line"/>
      <point x="870" y="1272" type="line" name="hr09"/>
      <point x="919" y="1268"/>
      <point x="972" y="1264"/>
      <point x="972" y="1264" type="curve"/>
      <point x="1003" y="1262"/>
      <point x="1011" y="1262"/>
      <point x="1022" y="1239" type="curve" smooth="yes"/>
      <point x="1267" y="696" type="line"/>
      <point x="759" y="135" type="line" smooth="yes"/>
      <point x="739" y="113"/>
      <point x="729" y="113"/>
      <point x="694" y="111" type="curve"/>
      <point x="694" y="111"/>
      <point x="649" y="106"/>
      <point x="610" y="102" type="curve"/>
      <point x="610" y="0" type="line" name="hr10"/>
      <point x="1173" y="0" type="line"/>
      <point x="1173" y="102" type="line" name="hr11"/>
      <point x="1044" y="111" type="line" smooth="yes" name="hr12"/>
      <point x="1022" y="113"/>
      <point x="1019" y="131"/>
      <point x="1030" y="141" type="curve"/>
      <point x="1359" y="502" type="line"/>
      <point x="1517" y="141" type="line" smooth="yes"/>
      <point x="1529" y="115"/>
      <point x="1505" y="113"/>
      <point x="1474" y="111" type="curve"/>
      <point x="1474" y="111"/>
      <point x="1411" y="106"/>
      <point x="1357" y="102" type="curve"/>
      <point x="1357" y="0" type="line" name="hr13"/>
      <point x="1972" y="0" type="line"/>
      <point x="1972" y="102" type="line" name="hr14"/>
      <point x="1912" y="109"/>
      <point x="1857" y="111"/>
      <point x="1857" y="111" type="curve"/>
      <point x="1841" y="113"/>
      <point x="1830" y="115"/>
      <point x="1820" y="135" type="curve"/>
      <point x="1552" y="735" type="line"/>
      <point x="2000" y="1237" type="line" smooth="yes"/>
      <point x="2007" y="1245"/>
      <point x="2019" y="1260"/>
      <point x="2048" y="1262" type="curve" smooth="yes"/>
    </contour>
    <contour>
      <point x="1391" y="1500" type="move" name="U"/>
    </contour>
    <contour>
      <point x="970" y="-100" type="move" name="L"/>
    </contour>
  </outline>
</glyph>
<glyph name="CySmRha" format="1">
  <advance width="1550"/>
  <unicode hex="0517"/>
  <outline>
    <contour>
      <point x="1042" y="637" type="curve" smooth="yes" name="hr01"/>
      <point x="1042" y="823"/>
      <point x="944" y="1024"/>
      <point x="729" y="1024" type="curve" smooth="yes"/>
      <point x="621" y="1024"/>
      <point x="526" y="973"/>
      <point x="483" y="948" type="curve"/>
      <point x="498" y="1024" type="line"/>
      <point x="360" y="1024" type="line"/>
      <point x="23" y="956" type="line"/>
      <point x="23" y="887" type="line"/>
      <point x="193" y="868" type="line"/>
      <point x="-39" y="-311" type="line" smooth="yes"/>
      <point x="-43" y="-330"/>
      <point x="-53" y="-344"/>
      <point x="-74" y="-346" type="curve"/>
      <point x="-74" y="-346"/>
      <point x="-154" y="-352"/>
      <point x="-197" y="-356" type="curve"/>
      <point x="-197" y="-449" type="line"/>
      <point x="406" y="-449" type="line"/>
      <point x="406" y="-356" type="line"/>
      <point x="311" y="-348"/>
      <point x="264" y="-344"/>
      <point x="264" y="-344" type="curve"/>
      <point x="242" y="-344"/>
      <point x="229" y="-330"/>
      <point x="233" y="-311" type="curve" smooth="yes"/>
      <point x="295" y="-8" type="line" name="hr02"/>
      <point x="322" y="-16"/>
      <point x="360" y="-25"/>
      <point x="410" y="-25" type="curve" smooth="yes" name="hr03"/>
      <point x="799" y="-25"/>
      <point x="1042" y="309"/>
    </contour>
    <contour>
      <point x="756" y="629" type="curve" smooth="yes"/>
      <point x="756" y="389"/>
      <point x="621" y="84"/>
      <point x="449" y="84" type="curve" smooth="yes"/>
      <point x="412" y="84"/>
      <point x="356" y="119"/>
      <point x="324" y="139" type="curve"/>
      <point x="449" y="770" type="line"/>
      <point x="489" y="807"/>
      <point x="575" y="881"/>
      <point x="633" y="881" type="curve" smooth="yes"/>
      <point x="741" y="881"/>
      <point x="756" y="743"/>
    </contour>
    <contour>
      <point x="860" y="417" type="curve"/>
      <point x="902" y="195"/>
      <point x="1019" y="-25"/>
      <point x="1152" y="-25" type="curve" smooth="yes"/>
      <point x="1271" y="-25"/>
      <point x="1353" y="-8"/>
      <point x="1447" y="47" type="curve"/>
      <point x="1447" y="166" type="line"/>
      <point x="1357" y="104"/>
      <point x="1310" y="104"/>
      <point x="1288" y="104" type="curve" smooth="yes"/>
      <point x="1240" y="104"/>
      <point x="1224" y="174"/>
      <point x="1187" y="256" type="curve" smooth="yes"/>
      <point x="1150" y="340"/>
      <point x="1103" y="475"/>
      <point x="1089" y="524" type="curve"/>
      <point x="1152" y="678"/>
      <point x="1271" y="797"/>
      <point x="1337" y="846" type="curve"/>
      <point x="1427" y="739" type="line"/>
      <point x="1566" y="739"/>
      <point x="1570" y="842"/>
      <point x="1570" y="895" type="curve" smooth="yes"/>
      <point x="1570" y="971"/>
      <point x="1486" y="1024"/>
      <point x="1402" y="1024" type="curve" smooth="yes"/>
      <point x="1259" y="1024"/>
      <point x="1079" y="835"/>
    </contour>
    <contour>
      <point x="929" y="1100" type="move" name="U"/>
    </contour>
    <contour>
      <point x="604" y="-500" type="move" name="L"/>
    </contour>
  </outline>
</glyph>
<glyph name="LtnSmCapA" format="1">
  <advance width="1194"/>
  <unicode hex="1D00"/>
  <outline>
    <contour>
      <point x="1110" y="0" type="line" name="hr01"/>
      <point x="1110" y="96" type="line"/>
      <point x="1069" y="100"/>
      <point x="1024" y="104"/>
      <point x="1024" y="104" type="curve"/>
      <point x="1012" y="104"/>
      <point x="1001" y="119"/>
      <point x="997" y="133" type="curve"/>
      <point x="823" y="1024" type="line"/>
      <point x="608" y="1024" type="line"/>
      <point x="10" y="106" type="line"/>
      <point x="-86" y="96" type="line"/>
      <point x="-86" y="0" type="line"/>
      <point x="360" y="0" type="line"/>
      <point x="360" y="96" type="line"/>
      <point x="326" y="100"/>
      <point x="285" y="102"/>
      <point x="285" y="102" type="curve"/>
      <point x="266" y="104"/>
      <point x="233" y="109"/>
      <point x="242" y="123" type="curve" smooth="yes"/>
      <point x="389" y="369" type="line"/>
      <point x="688" y="369" type="line"/>
      <point x="729" y="133" type="line"/>
      <point x="733" y="121"/>
      <point x="727" y="106"/>
      <point x="715" y="104" type="curve" smooth="yes"/>
      <point x="629" y="96" type="line"/>
      <point x="629" y="0" type="line"/>
    </contour>
    <contour>
      <point x="666" y="477" type="line"/>
      <point x="459" y="477" type="line"/>
      <point x="618" y="727" type="line"/>
    </contour>
    <contour>
      <point x="727" y="1100" type="move" name="U"/>
    </contour>
    <contour>
      <point x="483" y="-100" type="move" name="L"/>
    </contour>
  </outline>
</glyph>
<glyph name="LtnSmTrndAe" format="1">
  <advance width="1608"/>
  <unicode hex="1D02"/>
  <outline>
    <contour>
      <point x="35" y="188" type="curve" smooth="yes" name="hr01"/>
      <point x="35" y="127"/>
      <point x="74" y="-25"/>
      <point x="273" y="-25" type="curve" smooth="yes"/>
      <point x="348" y="-25"/>
      <point x="480" y="2"/>
      <point x="572" y="79" type="curve"/>
      <point x="543" y="0" type="line" name="hr02"/>
      <point x="758" y="0" type="line"/>
      <point x="779" y="43" type="line" name="hr03"/>
      <point x="809" y="12"/>
      <point x="854" y="-25"/>
      <point x="910" y="-25" type="curve" smooth="yes"/>
      <point x="1346" y="-25"/>
      <point x="1542" y="344"/>
      <point x="1542" y="649" type="curve" smooth="yes"/>
      <point x="1542" y="802"/>
      <point x="1454" y="1024"/>
      <point x="1205" y="1024" type="curve" smooth="yes"/>
      <point x="1084" y="1024"/>
      <point x="969" y="976"/>
      <point x="881" y="893" type="curve"/>
      <point x="832" y="997"/>
      <point x="740" y="1024"/>
      <point x="568" y="1024" type="curve" smooth="yes"/>
      <point x="371" y="1024"/>
      <point x="191" y="903"/>
      <point x="113" y="823" type="curve"/>
      <point x="113" y="626" type="line"/>
      <point x="332" y="819"/>
      <point x="402" y="884"/>
      <point x="492" y="884" type="curve" smooth="yes"/>
      <point x="652" y="884"/>
      <point x="678" y="778"/>
      <point x="678" y="690" type="curve" smooth="yes"/>
      <point x="678" y="639"/>
      <point x="676" y="606"/>
      <point x="660" y="548" type="curve"/>
      <point x="385" y="526"/>
      <point x="35" y="401"/>
    </contour>
    <contour>
      <point x="295" y="188" type="curve" smooth="yes"/>
      <point x="295" y="315"/>
      <point x="498" y="413"/>
      <point x="645" y="446" type="curve"/>
      <point x="629" y="264"/>
      <point x="475" y="96"/>
      <point x="369" y="96" type="curve" smooth="yes"/>
      <point x="305" y="96"/>
      <point x="295" y="139"/>
    </contour>
    <contour>
      <point x="846" y="192" type="line"/>
      <point x="951" y="751" type="line"/>
      <point x="985" y="796"/>
      <point x="1065" y="872"/>
      <point x="1139" y="872" type="curve" smooth="yes" name="hr04"/>
      <point x="1270" y="872"/>
      <point x="1260" y="729"/>
      <point x="1260" y="637" type="curve" smooth="yes"/>
      <point x="1260" y="413"/>
      <point x="1153" y="116"/>
      <point x="914" y="90" type="curve"/>
    </contour>
    <contour>
      <point x="910" y="1100" type="move" name="U"/>
    </contour>
    <contour>
      <point x="666" y="-100" type="move" name="L"/>
    </contour>
  </outline>
</glyph>
<glyph name="LtnSmCapBarredB" format="1">
  <advance width="1075"/>
  <unicode hex="1D03"/>
  <outline>
    <contour>
      <point x="1051" y="455" type="line" name="hr01"/>
      <point x="1051" y="576" type="line"/>
      <point x="30" y="576" type="line"/>
      <point x="30" y="455" type="line"/>
    </contour>
    <contour>
      <point x="1016" y="797" type="curve" name="hr02"/>
      <point x="1016" y="913"/>
      <point x="977" y="999"/>
      <point x="698" y="999" type="curve" smooth="yes"/>
      <point x="145" y="999" type="line"/>
      <point x="145" y="901" type="line"/>
      <point x="186" y="899"/>
      <point x="231" y="895"/>
      <point x="231" y="895" type="curve"/>
      <point x="260" y="893"/>
      <point x="266" y="885"/>
      <point x="262" y="866" type="curve" smooth="yes"/>
      <point x="102" y="127" type="line"/>
      <point x="100" y="111"/>
      <point x="86" y="104"/>
      <point x="59" y="102" type="curve"/>
      <point x="59" y="102"/>
      <point x="12" y="100"/>
      <point x="-31" y="98" type="curve"/>
      <point x="-31" y="0" type="line" name="hr03"/>
      <point x="489" y="0" type="line" smooth="yes"/>
      <point x="805" y="0"/>
      <point x="983" y="108"/>
      <point x="983" y="302" type="curve" smooth="yes"/>
      <point x="983" y="411"/>
      <point x="831" y="486"/>
      <point x="697" y="517" type="curve"/>
      <point x="822" y="566"/>
      <point x="1016" y="664"/>
    </contour>
    <contour>
      <point x="739" y="784" type="curve" smooth="yes"/>
      <point x="739" y="657"/>
      <point x="659" y="576"/>
      <point x="512" y="576" type="curve" smooth="yes" name="hr05"/>
      <point x="510" y="576"/>
      <point x="475" y="576"/>
      <point x="469" y="576" type="curve"/>
      <point x="537" y="895" type="line"/>
      <point x="547" y="895"/>
      <point x="578" y="895"/>
      <point x="588" y="895" type="curve" smooth="yes"/>
      <point x="678" y="895"/>
      <point x="739" y="868"/>
    </contour>
    <contour>
      <point x="700" y="328" type="curve" name="hr07"/>
      <point x="700" y="180"/>
      <point x="616" y="106"/>
      <point x="436" y="106" type="curve" smooth="yes"/>
      <point x="426" y="106"/>
      <point x="383" y="106"/>
      <point x="371" y="106" type="curve"/>
      <point x="446" y="455" type="line"/>
      <point x="469" y="455"/>
      <point x="510" y="455"/>
      <point x="532" y="455" type="curve" smooth="yes"/>
      <point x="637" y="455"/>
      <point x="700" y="438"/>
    </contour>
    <contour>
      <point x="552" y="-100" type="move" name="L"/>
    </contour>
    <contour>
      <point x="660" y="1100" type="move" name="U"/>
    </contour>
  </outline>
</glyph>
<glyph name="LtnSmCapEth" format="1">
  <advance width="1212"/>
  <unicode hex="1D06"/>
  <outline>
    <contour>
      <point x="667" y="457" type="line" name="hr01"/>
      <point x="667" y="586" type="line"/>
      <point x="39" y="586" type="line"/>
      <point x="39" y="457" type="line"/>
    </contour>
    <contour>
      <point x="1147" y="614" type="curve"/>
      <point x="1147" y="893"/>
      <point x="922" y="999"/>
      <point x="582" y="999" type="curve" smooth="yes"/>
      <point x="147" y="999" type="line"/>
      <point x="147" y="901" type="line" name="hr02"/>
      <point x="217" y="895"/>
      <point x="250" y="895"/>
      <point x="250" y="895" type="curve"/>
      <point x="262" y="893"/>
      <point x="268" y="883"/>
      <point x="266" y="874" type="curve" smooth="yes"/>
      <point x="104" y="131" type="line" smooth="yes"/>
      <point x="100" y="111"/>
      <point x="90" y="106"/>
      <point x="61" y="104" type="curve"/>
      <point x="61" y="104"/>
      <point x="12" y="102"/>
      <point x="-31" y="98" type="curve"/>
      <point x="-31" y="0" type="line" name="hr03"/>
      <point x="399" y="0" type="line" smooth="yes"/>
      <point x="864" y="0"/>
      <point x="1147" y="262"/>
    </contour>
    <contour>
      <point x="862" y="629" type="curve"/>
      <point x="862" y="352"/>
      <point x="694" y="117"/>
      <point x="428" y="117" type="curve" smooth="yes"/>
      <point x="375" y="117" type="line"/>
      <point x="539" y="887" type="line"/>
      <point x="567" y="887" type="line" smooth="yes"/>
      <point x="692" y="887"/>
      <point x="862" y="860"/>
    </contour>
    <contour>
      <point x="601" y="-100" type="move" name="L"/>
    </contour>
    <contour>
      <point x="702" y="1100" type="move" name="U"/>
    </contour>
  </outline>
</glyph>
<glyph name="LtnSmTrndI" format="1">
  <advance width="631"/>
  <unicode hex="1D09"/>
  <outline>
    <contour>
      <point x="-38" y="-359" type="curve" smooth="yes" name="hr01"/>
      <point x="-38" y="-447"/>
      <point x="34" y="-517"/>
      <point x="122" y="-517" type="curve" smooth="yes"/>
      <point x="210" y="-517"/>
      <point x="279" y="-447"/>
      <point x="279" y="-359" type="curve" smooth="yes"/>
      <point x="279" y="-271"/>
      <point x="210" y="-199"/>
      <point x="122" y="-199" type="curve" smooth="yes"/>
      <point x="34" y="-199"/>
      <point x="-38" y="-271"/>
    </contour>
    <contour>
      <point x="-65" y="933" type="curve"/>
      <point x="-65" y="821" type="line" name="hr02"/>
      <point x="11" y="862"/>
      <point x="126" y="890"/>
      <point x="148" y="890" type="curve" smooth="yes"/>
      <point x="197" y="890"/>
      <point x="197" y="845"/>
      <point x="187" y="796" type="curve" smooth="yes"/>
      <point x="29" y="-25" type="line"/>
      <point x="173" y="-25" type="line"/>
      <point x="511" y="43" type="line"/>
      <point x="511" y="114" type="line"/>
      <point x="335" y="133" type="line"/>
      <point x="464" y="813" type="line"/>
      <point x="484" y="913"/>
      <point x="431" y="1024"/>
      <point x="281" y="1024" type="curve" smooth="yes"/>
      <point x="163" y="1024"/>
      <point x="58" y="999"/>
    </contour>
    <contour>
      <point x="90" y="-500" type="move" name="L"/>
    </contour>
    <contour>
      <point x="400" y="1100" type="move" name="U"/>
    </contour>
  </outline>
</glyph>
